<svg width="44" height="44" viewBox="0 0 44 44" fill="none" xmlns="http://www.w3.org/2000/svg">
<path d="M29.6588 38.1562C27.2665 39.2946 24.6494 39.8819 22 39.875C12.144 39.875 4.12504 31.856 4.12504 22C4.12504 17.7719 5.57841 13.7789 8.25004 10.5765V13.75H11V5.5H2.75004V8.25H6.65779C3.2487 12.0172 1.36531 16.9193 1.37504 22C1.37504 33.3726 10.6274 42.625 22 42.625C25.0585 42.6328 28.0798 41.9543 30.8413 40.6395L29.6588 38.1562Z" fill="#0758A4"/>
<path d="M28.875 12.375C24.53 12.375 20.9674 15.7534 20.6553 20.02C19.1436 18.6408 17.1713 17.8758 15.125 17.875H9.625V23.375C9.625 27.9249 13.3265 31.625 17.875 31.625H20.625V37.125H23.375V26.125H26.125C30.6735 26.125 34.375 22.4249 34.375 17.875V12.375H28.875ZM17.875 28.875C14.8417 28.875 12.375 26.4082 12.375 23.375V20.625H15.125C18.1582 20.625 20.625 23.0918 20.625 26.125V26.9308L17.4721 23.7779L15.5279 25.7221L18.6808 28.875H17.875ZM31.625 17.875C31.625 20.9082 29.1583 23.375 26.125 23.375H25.3192L28.4721 20.2221L26.5279 18.2779L23.375 21.4308V20.625C23.375 17.5917 25.8417 15.125 28.875 15.125H31.625V17.875Z" fill="#0758A4"/>
<path d="M42.6249 22.0001C42.6249 10.6274 33.3726 1.37507 21.9999 1.37507C18.9414 1.3673 15.9202 2.04579 13.1587 3.36057L14.3412 5.84382C16.7335 4.70547 19.3506 4.11814 21.9999 4.12507C31.8559 4.12507 39.8749 12.1441 39.8749 22.0001C39.8749 26.2282 38.4216 30.2212 35.7499 33.4236V30.2501H32.9999V38.5001H41.2499V35.7501H37.3422C40.7513 31.9829 42.6347 27.0808 42.6249 22.0001Z" fill="#0758A4"/>
</svg>
