<svg width="44" height="44" viewBox="0 0 44 44" fill="none" xmlns="http://www.w3.org/2000/svg">
<path d="M35.5 30.4375C34.6562 30.4375 33.8125 30.1 33.1375 29.425L28.075 24.3625C27.4 23.6875 27.0625 22.8438 27.0625 22C27.0625 21.1562 27.4 20.3125 28.075 19.6375L33.1375 14.575C33.8125 13.9 34.6562 13.5625 35.5 13.5625C36.3438 13.5625 37.1875 13.9 37.8625 14.575L42.925 19.6375C43.6 20.3125 43.9375 21.1562 43.9375 22C43.9375 22.8438 43.6 23.6875 42.925 24.3625L37.8625 29.425C37.1875 30.1 36.3438 30.4375 35.5 30.4375ZM35.5 16.9375L30.4375 22L35.5 27.0625L40.5625 22L35.5 16.9375ZM22 16.9375C21.1562 16.9375 20.3125 16.6 19.6375 15.925L14.575 10.8625C13.9 10.1875 13.5625 9.34375 13.5625 8.5C13.5625 7.65625 13.9 6.8125 14.575 6.1375L19.6375 1.075C20.3125 0.4 21.1562 0.0625 22 0.0625C22.8438 0.0625 23.6875 0.4 24.3625 1.075L29.425 6.1375C30.1 6.8125 30.4375 7.65625 30.4375 8.5C30.4375 9.34375 30.1 10.1875 29.425 10.8625L24.3625 15.925C23.6875 16.6 22.8438 16.9375 22 16.9375ZM22 3.4375L16.9375 8.5L22 13.5625L27.0625 8.5L22 3.4375ZM22 43.9375C21.1562 43.9375 20.3125 43.6 19.6375 42.925L14.575 37.8625C13.9 37.1875 13.5625 36.3438 13.5625 35.5C13.5625 34.6562 13.9 33.8125 14.575 33.1375L19.6375 28.075C20.3125 27.4 21.1562 27.0625 22 27.0625C22.8438 27.0625 23.6875 27.4 24.3625 28.075L29.425 33.1375C30.1 33.8125 30.4375 34.6562 30.4375 35.5C30.4375 36.3438 30.1 37.1875 29.425 37.8625L24.3625 42.925C23.6875 43.6 22.8438 43.9375 22 43.9375ZM22 30.4375L16.9375 35.5L22 40.5625L27.0625 35.5L22 30.4375ZM8.5 30.4375C7.65625 30.4375 6.8125 30.1 6.1375 29.425L1.075 24.3625C0.4 23.6875 0.0625 22.8438 0.0625 22C0.0625 21.1562 0.4 20.3125 1.075 19.6375L6.1375 14.575C6.8125 13.9 7.65625 13.5625 8.5 13.5625C9.34375 13.5625 10.1875 13.9 10.8625 14.575L15.925 19.6375C16.6 20.3125 16.9375 21.1562 16.9375 22C16.9375 22.8438 16.6 23.6875 15.925 24.3625L10.8625 29.425C10.1875 30.1 9.34375 30.4375 8.5 30.4375ZM8.5 16.9375L3.4375 22L8.5 27.0625L13.5625 22L8.5 16.9375Z" fill="#ffffff"/>
</svg>
