<svg xmlns="http://www.w3.org/2000/svg" xmlns:xlink="http://www.w3.org/1999/xlink" viewBox="0 0 8137 8137" width="8137" height="8137" preserveAspectRatio="xMidYMid meet" style="width: 100%; height: 100%; transform: translate3d(0px, 0px, 0px); content-visibility: visible;"><defs><clipPath id="__lottie_element_2"><rect width="8137" height="8137" x="0" y="0"></rect></clipPath></defs><g clip-path="url(#__lottie_element_2)"><g transform="matrix(1,0,0,1,1484.4580078125,3021.630126953125)" opacity="1" style="display: block;"><g opacity="0.9633097847116244" transform="matrix(1,0,0,1,0,0)"><g opacity="1" transform="matrix(1,0,0,1,1114.9530029296875,145.62600708007812)"><path fill="rgb(255,161,41)" fill-opacity="1" d=" M-0.11599999666213989,-145.37600708007812 C20.368999481201172,-145.37600708007812 37.215999603271484,-128.76199340820312 37.215999603271484,-108.26899719238281 C37.215999603271484,-108.26899719238281 37.215999603271484,108.47100067138672 37.215999603271484,108.47100067138672 C37.215999603271484,128.843994140625 20.368999481201172,145.37600708007812 -0.11599999666213989,145.37600708007812 C-20.683000564575195,145.37600708007812 -37.215999603271484,128.843994140625 -37.215999603271484,108.47100067138672 C-37.215999603271484,108.47100067138672 -37.215999603271484,-108.26899719238281 -37.215999603271484,-108.26899719238281 C-37.215999603271484,-128.76199340820312 -20.683000564575195,-145.37600708007812 -0.11599999666213989,-145.37600708007812z"></path></g><g opacity="1" transform="matrix(1,0,0,1,694.947998046875,254.06100463867188)"><path fill="rgb(255,161,41)" fill-opacity="1" d=" M-72.85299682617188,-125.85900115966797 C-55.138999938964844,-136.1790008544922 -32.43299865722656,-130.1269989013672 -22.22599983215332,-112.33100128173828 C-22.22599983215332,-112.33100128173828 86.22000122070312,75.30400085449219 86.22000122070312,75.30400085449219 C96.50700378417969,92.98699951171875 90.41600036621094,115.76499938964844 72.62000274658203,125.97100067138672 C54.895999908447266,136.17799377441406 32.191001892089844,130.20899963378906 21.993000030517578,112.40399932861328 C21.993000030517578,112.40399932861328 -86.46199798583984,-75.19100189208984 -86.46199798583984,-75.19100189208984 C-96.50700378417969,-93.0270004272461 -90.5770034790039,-115.7750015258789 -72.85299682617188,-125.85900115966797z"></path></g><g opacity="1" transform="matrix(1,0,0,1,385.3299865722656,557.9400024414062)"><path fill="rgb(255,161,41)" fill-opacity="1" d=" M-125.93499755859375,-72.77300262451172 C-115.57499694824219,-90.45600128173828 -92.87100219726562,-96.50700378417969 -75.22799682617188,-86.26000213623047 C-75.22799682617188,-86.26000213623047 112.40899658203125,21.993000030517578 112.40899658203125,21.993000030517578 C130.12399291992188,32.27199935913086 136.21400451660156,54.86399841308594 126.01599884033203,72.85399627685547 C115.89099884033203,90.375 93.18599700927734,96.50700378417969 75.30799865722656,86.26899719238281 C75.30799865722656,86.26899719238281 -112.3270034790039,-22.106000900268555 -112.3270034790039,-22.106000900268555 C-130.2050018310547,-32.3120002746582 -136.21400451660156,-54.93600082397461 -125.93499755859375,-72.77300262451172z"></path></g><g opacity="1" transform="matrix(1,0,0,1,269.2049865722656,975.791015625)"><path fill="rgb(255,161,41)" fill-opacity="1" d=" M-145.39199829101562,0.10100000351667404 C-145.39199829101562,-20.46500015258789 -128.85899353027344,-37.03900146484375 -108.29299926757812,-37.03900146484375 C-108.29299926757812,-37.03900146484375 108.29199981689453,-37.03900146484375 108.29199981689453,-37.03900146484375 C128.85899353027344,-37.03900146484375 145.39199829101562,-20.46500015258789 145.39199829101562,0.10100000351667404 C145.39199829101562,20.54599952697754 128.85899353027344,37.03900146484375 108.29199981689453,37.03900146484375 C108.29199981689453,37.03900146484375 -108.29299926757812,37.03900146484375 -108.29299926757812,37.03900146484375 C-128.85899353027344,37.03900146484375 -145.39199829101562,20.54599952697754 -145.39199829101562,0.10100000351667404z"></path></g><g opacity="1" transform="matrix(1,0,0,1,377.6189880371094,1395.718017578125)"><path fill="rgb(255,161,41)" fill-opacity="1" d=" M-125.8949966430664,72.83399963378906 C-136.2550048828125,55.11899948120117 -130.0919952392578,32.527000427246094 -112.28800201416016,22.125999450683594 C-112.28800201416016,22.125999450683594 75.26799774169922,-86.20700073242188 75.26799774169922,-86.20700073242188 C92.98300170898438,-96.60800170898438 115.68800354003906,-90.51699829101562 125.97599792480469,-72.5989990234375 C136.25599670410156,-54.88399887084961 130.08299255371094,-32.17900085449219 112.36699676513672,-21.891000747680664 C112.36699676513672,-21.891000747680664 -75.18800354003906,86.32099914550781 -75.18800354003906,86.32099914550781 C-93.06400299072266,96.60800170898438 -115.61599731445312,90.58999633789062 -125.8949966430664,72.83399963378906z"></path></g><g opacity="1" transform="matrix(1,0,0,1,1534.8370361328125,254.06100463867188)"><path fill="rgb(255,161,41)" fill-opacity="1" d=" M72.81400299072266,-125.85900115966797 C55.018001556396484,-136.1790008544922 32.3120002746582,-130.1269989013672 21.871000289916992,-112.33100128173828 C21.871000289916992,-112.33100128173828 -86.34100341796875,75.30400085449219 -86.34100341796875,75.30400085449219 C-96.62799835205078,92.98699951171875 -90.61000061035156,115.76499938964844 -72.73300170898438,125.97100067138672 C-54.9370002746582,136.17799377441406 -32.39400100708008,130.20899963378906 -21.95199966430664,112.40399932861328 C-21.95199966430664,112.40399932861328 86.26899719238281,-75.19100189208984 86.26899719238281,-75.19100189208984 C96.62799835205078,-93.0270004272461 90.45700073242188,-115.7750015258789 72.81400299072266,-125.85900115966797z"></path></g><g opacity="1" transform="matrix(1,0,0,1,1844.449951171875,557.9400024414062)"><path fill="rgb(255,161,41)" fill-opacity="1" d=" M125.81800079345703,-72.77300262451172 C115.69300079345703,-90.45600128173828 92.98699951171875,-96.50700378417969 75.27200317382812,-86.26000213623047 C75.27200317382812,-86.26000213623047 -112.44400024414062,21.993000030517578 -112.44400024414062,21.993000030517578 C-130.16000366210938,32.27199935913086 -136.17799377441406,54.86399841308594 -126.0530014038086,72.85399627685547 C-115.927001953125,90.375 -92.90599822998047,96.50700378417969 -75.18299865722656,86.26899719238281 C-75.18299865722656,86.26899719238281 112.20999908447266,-22.106000900268555 112.20999908447266,-22.106000900268555 C130.08700561523438,-32.3120002746582 136.17799377441406,-54.93600082397461 125.81800079345703,-72.77300262451172z"></path></g><g opacity="1" transform="matrix(1,0,0,1,1960.4990234375,975.791015625)"><path fill="rgb(255,161,41)" fill-opacity="1" d=" M145.43299865722656,0.10100000351667404 C145.43299865722656,-20.46500015258789 128.81900024414062,-37.03900146484375 108.33300018310547,-37.03900146484375 C108.33300018310547,-37.03900146484375 -108.33300018310547,-37.03900146484375 -108.33300018310547,-37.03900146484375 C-128.89999389648438,-37.03900146484375 -145.43299865722656,-20.46500015258789 -145.43299865722656,0.10100000351667404 C-145.43299865722656,20.54599952697754 -128.89999389648438,37.03900146484375 -108.33300018310547,37.03900146484375 C-108.33300018310547,37.03900146484375 108.33300018310547,37.03900146484375 108.33300018310547,37.03900146484375 C128.81900024414062,37.03900146484375 145.43299865722656,20.54599952697754 145.43299865722656,0.10100000351667404z"></path></g><g opacity="1" transform="matrix(1,0,0,1,1852.166015625,1395.718017578125)"><path fill="rgb(255,161,41)" fill-opacity="1" d=" M125.93599700927734,72.83399963378906 C136.21499633789062,55.11899948120117 130.052001953125,32.527000427246094 112.40899658203125,22.125999450683594 C112.40899658203125,22.125999450683594 -75.38999938964844,-86.20700073242188 -75.38999938964844,-86.20700073242188 C-93.02400207519531,-96.60800170898438 -115.72899627685547,-90.51699829101562 -126.01599884033203,-72.5989990234375 C-136.21400451660156,-54.88399887084961 -130.0500030517578,-32.17900085449219 -112.3270034790039,-21.891000747680664 C-112.3270034790039,-21.891000747680664 75.30799865722656,86.32099914550781 75.30799865722656,86.32099914550781 C92.9520034790039,96.60800170898438 115.81099700927734,90.58999633789062 125.93599700927734,72.83399963378906z"></path></g></g><g opacity="1" transform="matrix(1,0,0,1,0,0)"><g opacity="1" transform="matrix(1,0,0,1,1114.8310546875,1639.77197265625)"><path fill="rgb(230,173,125)" fill-opacity="1" d=" M-935.8079833984375,-0.11800000071525574 C-688.7639770507812,112.29000091552734 -360.40301513671875,180.67300415039062 -0.15700000524520874,180.67300415039062 C360.40301513671875,180.67300415039062 688.7650146484375,112.29000091552734 935.8079833984375,-0.11800000071525574 C688.7650146484375,-112.20999908447266 360.40301513671875,-180.67300415039062 -0.15700000524520874,-180.67300415039062 C-360.40301513671875,-180.67300415039062 -688.7639770507812,-112.20999908447266 -935.8079833984375,-0.11800000071525574z"></path></g><g opacity="1" transform="matrix(1,0,0,1,0,0)"><g opacity="1" transform="matrix(1,0,0,1,1103.595947265625,1181.699951171875)"><path fill="rgb(251,214,81)" fill-opacity="1" d=" M464.7439880371094,28.062999725341797 C514.3419799804688,-53.775001525878906 542.89501953125,-149.843994140625 542.89501953125,-252.48300170898438 C542.89501953125,-552.3330078125 299.6520080566406,-795.5349731445312 0.004999999888241291,-795.5349731445312 C-299.8840026855469,-795.5349731445312 -542.8939819335938,-552.3330078125 -542.8939819335938,-252.48300170898438 C-542.8939819335938,-149.843994140625 -514.4949951171875,-53.775001525878906 -464.81500244140625,28.062999725341797 C-318.1520080566406,290.3340148925781 -288.25299072265625,353.10400390625 -286.6730041503906,472.82598876953125 C-283.8210144042969,652.31298828125 -286.6730041503906,795.5349731445312 -286.6730041503906,795.5349731445312 C-286.6730041503906,795.5349731445312 0.004999999888241291,795.5349731445312 0.004999999888241291,795.5349731445312 C0.004999999888241291,795.5349731445312 286.3590087890625,795.5349731445312 286.3590087890625,795.5349731445312 C286.3590087890625,795.5349731445312 283.6700134277344,652.31298828125 286.3590087890625,472.82598876953125 C288.26300048828125,353.10400390625 317.9259948730469,290.3340148925781 464.7439880371094,28.062999725341797z"></path></g><g opacity="1" transform="matrix(1,0,0,1,1103.47900390625,2141.217041015625)"><path fill="rgb(0,33,83)" fill-opacity="1" d=" M0.12200000137090683,-82.03199768066406 C0.12200000137090683,-82.03199768066406 -203.5780029296875,-82.03199768066406 -203.5780029296875,-82.03199768066406 C-173.43600463867188,82.03099822998047 0.12200000137090683,82.03099822998047 0.12200000137090683,82.03099822998047 C0.12200000137090683,82.03099822998047 173.43600463867188,82.03099822998047 203.5780029296875,-82.03199768066406 C203.5780029296875,-82.03199768066406 0.12200000137090683,-82.03199768066406 0.12200000137090683,-82.03199768066406z"></path></g><g opacity="1" transform="matrix(1,0,0,1,1103.5240478515625,1792.5849609375)"><path fill="rgb(118,130,149)" fill-opacity="1" d=" M369.41900634765625,-0.061000000685453415 C369.41900634765625,51.992000579833984 327.3290100097656,94.23500061035156 275.2030029296875,94.23500061035156 C275.2030029296875,94.23500061035156 -275.2040100097656,94.23500061035156 -275.2040100097656,94.23500061035156 C-327.1759948730469,94.23500061035156 -369.41900634765625,51.992000579833984 -369.41900634765625,-0.061000000685453415 C-369.41900634765625,-52.11399841308594 -327.1759948730469,-94.23500061035156 -275.2040100097656,-94.23500061035156 C-275.2040100097656,-94.23500061035156 275.2030029296875,-94.23500061035156 275.2030029296875,-94.23500061035156 C327.3290100097656,-94.23500061035156 369.41900634765625,-52.11399841308594 369.41900634765625,-0.061000000685453415z"></path></g><g opacity="1" transform="matrix(1,0,0,1,1103.6009521484375,1774.0909423828125)"><path fill="rgb(173,190,206)" fill-opacity="1" d=" M339.8320007324219,-0.07699999958276749 C339.8320007324219,41.930999755859375 300.9909973144531,75.74099731445312 252.9720001220703,75.74099731445312 C252.9720001220703,75.74099731445312 -253.3699951171875,75.74099731445312 -253.3699951171875,75.74099731445312 C-301.15301513671875,75.74099731445312 -339.8320007324219,41.930999755859375 -339.8320007324219,-0.07699999958276749 C-339.8320007324219,-41.882999420166016 -301.15301513671875,-75.74099731445312 -253.3699951171875,-75.74099731445312 C-253.3699951171875,-75.74099731445312 252.9720001220703,-75.74099731445312 252.9720001220703,-75.74099731445312 C300.9909973144531,-75.74099731445312 339.8320007324219,-41.882999420166016 339.8320007324219,-0.07699999958276749z"></path></g><g opacity="1" transform="matrix(1,0,0,1,1103.5240478515625,1977.27099609375)"><path fill="rgb(118,130,149)" fill-opacity="1" d=" M369.41900634765625,-0.035999998450279236 C369.41900634765625,52.0890007019043 327.3290100097656,94.29199981689453 275.2030029296875,94.29199981689453 C275.2030029296875,94.29199981689453 -275.2040100097656,94.29199981689453 -275.2040100097656,94.29199981689453 C-327.1759948730469,94.29199981689453 -369.41900634765625,52.0890007019043 -369.41900634765625,-0.035999998450279236 C-369.41900634765625,-52.16999816894531 -327.1759948730469,-94.29199981689453 -275.2040100097656,-94.29199981689453 C-275.2040100097656,-94.29199981689453 275.2030029296875,-94.29199981689453 275.2030029296875,-94.29199981689453 C327.3290100097656,-94.29199981689453 369.41900634765625,-52.16999816894531 369.41900634765625,-0.035999998450279236z"></path></g><g opacity="1" transform="matrix(1,0,0,1,1103.6009521484375,1958.864013671875)"><path fill="rgb(173,190,206)" fill-opacity="1" d=" M339.8320007324219,0.0560000017285347 C339.8320007324219,41.94300079345703 300.9909973144531,75.88400268554688 252.9720001220703,75.88400268554688 C252.9720001220703,75.88400268554688 -253.3699951171875,75.88400268554688 -253.3699951171875,75.88400268554688 C-301.15301513671875,75.88400268554688 -339.8320007324219,41.94300079345703 -339.8320007324219,0.0560000017285347 C-339.8320007324219,-41.90299987792969 -301.15301513671875,-75.88400268554688 -253.3699951171875,-75.88400268554688 C-253.3699951171875,-75.88400268554688 252.9720001220703,-75.88400268554688 252.9720001220703,-75.88400268554688 C300.9909973144531,-75.88400268554688 339.8320007324219,-41.90299987792969 339.8320007324219,0.0560000017285347z"></path></g></g></g><g opacity="1" transform="matrix(1,0,0,1,1114.83203125,2710.06201171875)"><path fill="rgb(244,194,150)" fill-opacity="1" d=" M937.5499877929688,-313.7340087890625 C937.5499877929688,-313.7340087890625 919.114013671875,-313.7340087890625 919.114013671875,-313.7340087890625 C926.8660278320312,-377.45098876953125 934.7789916992188,-440.0979919433594 942.531005859375,-499.5880126953125 C958.7479858398438,-624.9310302734375 983.510986328125,-848.635986328125 934.302001953125,-1069.531982421875 C687.3400268554688,-957.7230224609375 359.6910095214844,-889.6160278320312 -0.15700000524520874,-889.6160278320312 C-359.6080017089844,-889.6160278320312 -687.3400268554688,-957.7230224609375 -934.2210083007812,-1069.531982421875 C-983.4299926757812,-848.635986328125 -958.9829711914062,-624.9310302734375 -942.531982421875,-499.5880126953125 C-934.780029296875,-440.0979919433594 -926.7849731445312,-377.45098876953125 -918.9600219726562,-313.7340087890625 C-918.9600219726562,-313.7340087890625 -937.5490112304688,-313.7340087890625 -937.5490112304688,-313.7340087890625 C-1100.656982421875,-434.40399169921875 -1114.5810546875,-119.01799774169922 -1046.3919677734375,-11.276000022888184 C-989.9099731445312,77.875 -988.8090209960938,87.72599792480469 -954.7150268554688,185.9739990234375 C-929.4739990234375,258.5119934082031 -887.9500122070312,268.0060119628906 -853.1439819335938,260.1730041503906 C-848.7130126953125,303.0880126953125 -844.9149780273438,340.6189880371094 -842.0640258789062,370.2900085449219 C-827.27197265625,536.0460205078125 -428.906005859375,868.2069702148438 -338.4100036621094,972.0360107421875 C-254.0050048828125,1069.531982421875 -112.64700317382812,1031.5980224609375 -67.552001953125,1029.5419921875 C-21.67300033569336,1027.4110107421875 0.004999999888241291,1026.301025390625 0.004999999888241291,1026.301025390625 C0.004999999888241291,1026.301025390625 21.753000259399414,1027.4110107421875 67.39900207519531,1029.5419921875 C112.64700317382812,1031.5980224609375 253.8509979248047,1069.531982421875 338.5639953613281,972.0360107421875 C428.82598876953125,868.2069702148438 827.0369873046875,536.0460205078125 842.3060302734375,370.2900085449219 C844.9949951171875,340.6189880371094 848.7130126953125,303.0880126953125 852.9819946289062,260.1730041503906 C888.031982421875,268.0060119628906 929.7160034179688,258.5119934082031 954.6320190429688,185.9739990234375 C988.8090209960938,87.72599792480469 989.989990234375,77.875 1046.4739990234375,-11.276000022888184 C1114.5810546875,-119.01799774169922 1100.5849609375,-434.40399169921875 937.5499877929688,-313.7340087890625z"></path></g></g><g transform="matrix(0,0,0,0,4094.287109375,2306.343017578125)" opacity="1" style="display: block;"><g opacity="1" transform="matrix(1,0,0,1,1378.29296875,1006.5390014648438)"><path fill="rgb(173,190,206)" fill-opacity="1" d=" M1273.93896484375,0.035999998450279236 C1273.93896484375,555.7490234375 703.677001953125,1006.2890014648438 0.03700000047683716,1006.2890014648438 C-703.5159912109375,1006.2890014648438 -1273.93896484375,555.7490234375 -1273.93896484375,0.035999998450279236 C-1273.93896484375,-555.7100219726562 -703.5159912109375,-1006.2890014648438 0.03700000047683716,-1006.2890014648438 C703.677001953125,-1006.2890014648438 1273.93896484375,-555.7100219726562 1273.93896484375,0.035999998450279236z"></path></g><g opacity="1" transform="matrix(1,0,0,1,2291.79296875,1546.092041015625)"><path fill="rgb(173,190,206)" fill-opacity="1" d=" M395.1659851074219,395.14599609375 C395.1659851074219,395.14599609375 395.1659851074219,395.14599609375 395.1659851074219,395.14599609375 C395.1659851074219,395.14599609375 -395.1659851074219,131.80499267578125 -395.1659851074219,131.80499267578125 C-395.1659851074219,131.80499267578125 131.7429962158203,-395.14599609375 131.7429962158203,-395.14599609375 C131.7429962158203,-395.14599609375 395.1659851074219,395.14599609375 395.1659851074219,395.14599609375z"></path></g><g opacity="1" transform="matrix(1,0,0,1,395.41900634765625,1546.092041015625)"><path fill="rgb(173,190,206)" fill-opacity="1" d=" M-395.16900634765625,395.14599609375 C-395.16900634765625,395.14599609375 -395.16900634765625,395.14599609375 -395.16900634765625,395.14599609375 C-395.16900634765625,395.14599609375 395.16900634765625,131.80499267578125 395.16900634765625,131.80499267578125 C395.16900634765625,131.80499267578125 -131.7469940185547,-395.14599609375 -131.7469940185547,-395.14599609375 C-131.7469940185547,-395.14599609375 -395.16900634765625,395.14599609375 -395.16900634765625,395.14599609375z"></path></g><g opacity="1" transform="matrix(1,0,0,1,0,0)"><g opacity="1" transform="matrix(1,0,0,1,1089.8380126953125,731.8900146484375)"><path fill="rgb(28,70,111)" fill-opacity="1" d=" M73.2509994506836,47.9739990234375 C72.38400268554688,63.356998443603516 62.72800064086914,75.50700378417969 51.176998138427734,75.02899932861328 C51.176998138427734,75.02899932861328 -58.46099853515625,69.375 -58.46099853515625,69.375 C-69.8499984741211,68.66200256347656 -78.3949966430664,55.80699920654297 -77.68199920654297,40.22200012207031 C-77.68199920654297,40.22200012207031 -73.08899688720703,-47.86000061035156 -73.08899688720703,-47.86000061035156 C-72.38400268554688,-63.404998779296875 -62.41299819946289,-75.50700378417969 -50.86199951171875,-74.83499908447266 C-50.86199951171875,-74.83499908447266 58.459999084472656,-69.41600036621094 58.459999084472656,-69.41600036621094 C69.8489990234375,-68.7030029296875 78.39600372314453,-55.84700012207031 77.68199920654297,-40.14899826049805 C77.68199920654297,-40.14899826049805 73.2509994506836,47.9739990234375 73.2509994506836,47.9739990234375z"></path></g><g opacity="1" transform="matrix(1,0,0,1,1041.7010498046875,1678.9449462890625)"><path fill="rgb(28,70,111)" fill-opacity="1" d=" M77.71800231933594,-40.24700164794922 C78.51200103759766,-55.86399841308594 69.81199645996094,-68.88099670410156 58.42300033569336,-69.39099884033203 C58.42300033569336,-69.39099884033203 -50.979000091552734,-74.81099700927734 -50.979000091552734,-74.81099700927734 C-62.37699890136719,-75.52400207519531 -72.33999633789062,-63.380001068115234 -73.13400268554688,-47.83599853515625 C-73.13400268554688,-47.83599853515625 -77.63700103759766,40.409000396728516 -77.63700103759766,40.409000396728516 C-78.51200103759766,55.750999450683594 -69.96700286865234,68.84100341796875 -58.415000915527344,69.4000015258789 C-58.415000915527344,69.4000015258789 51.14099884033203,74.81900024414062 51.14099884033203,74.81900024414062 C62.529998779296875,75.52400207519531 72.4219970703125,63.38100051879883 73.2959976196289,47.95800018310547 C73.2959976196289,47.95800018310547 77.71800231933594,-40.24700164794922 77.71800231933594,-40.24700164794922z"></path></g><g opacity="1" transform="matrix(1,0,0,1,849.8369750976562,783.2459716796875)"><path fill="rgb(28,70,111)" fill-opacity="1" d=" M87.32599639892578,5.164000034332275 C94.37300109863281,18.84600067138672 91.91799926757812,34.154998779296875 81.63099670410156,39.452999114990234 C81.63099670410156,39.452999114990234 -15.822999954223633,89.25299835205078 -15.822999954223633,89.25299835205078 C-26.02899932861328,94.51000213623047 -39.95500183105469,87.59300231933594 -46.99399948120117,73.8219985961914 C-46.99399948120117,73.8219985961914 -87.41500091552734,-4.8480000495910645 -87.41500091552734,-4.8480000495910645 C-94.37300109863281,-18.69099998474121 -91.84500122070312,-33.99300003051758 -81.8010025024414,-39.257999420166016 C-81.8010025024414,-39.257999420166016 15.897000312805176,-89.0510025024414 15.897000312805176,-89.0510025024414 C26.10300064086914,-94.51000213623047 40.10100173950195,-87.38999938964844 47.13999938964844,-73.66799926757812 C47.13999938964844,-73.66799926757812 87.32599639892578,5.164000034332275 87.32599639892578,5.164000034332275z"></path></g><g opacity="1" transform="matrix(1,0,0,1,1281.822998046875,1627.60595703125)"><path fill="rgb(28,70,111)" fill-opacity="1" d=" M46.9900016784668,-73.74099731445312 C39.869998931884766,-87.74600219726562 26.025999069213867,-94.47000122070312 15.746000289916992,-89.32599639892578 C15.746000289916992,-89.32599639892578 -81.78900146484375,-39.4119987487793 -81.78900146484375,-39.4119987487793 C-91.99500274658203,-34.11399841308594 -94.44999694824219,-18.804000854492188 -87.49199676513672,-4.921000003814697 C-87.49199676513672,-4.921000003814697 -47.380001068115234,73.62799835205078 -47.380001068115234,73.62799835205078 C-40.18600082397461,87.59300231933594 -26.100000381469727,94.47000122070312 -15.973999977111816,89.33399963378906 C-15.973999977111816,89.33399963378906 81.63600158691406,39.3390007019043 81.63600158691406,39.3390007019043 C91.76100158691406,34.03300094604492 94.4489974975586,18.73200035095215 87.3290023803711,4.767000198364258 C87.3290023803711,4.767000198364258 46.9900016784668,-73.74099731445312 46.9900016784668,-73.74099731445312z"></path></g><g opacity="1" transform="matrix(1,0,0,1,667.7739868164062,947.8610229492188)"><path fill="rgb(28,70,111)" fill-opacity="1" d=" M78.03500366210938,-39.41299819946289 C91.24700164794922,-31.02899932861328 96.6240005493164,-16.23699951171875 90.53299713134766,-6.815999984741211 C90.53299713134766,-6.815999984741211 30.891000747680664,85.26000213623047 30.891000747680664,85.26000213623047 C24.56599998474121,94.90699768066406 9.133000373840332,95.81500244140625 -3.997999906539917,87.43099975585938 C-3.997999906539917,87.43099975585938 -78.11499786376953,39.380001068115234 -78.11499786376953,39.380001068115234 C-91.09200286865234,31.027999877929688 -96.6240005493164,16.358999252319336 -90.45099639892578,6.823999881744385 C-90.45099639892578,6.823999881744385 -30.809999465942383,-85.33300018310547 -30.809999465942383,-85.33300018310547 C-24.718000411987305,-94.94000244140625 -9.0600004196167,-95.81500244140625 3.8350000381469727,-87.35099792480469 C3.8350000381469727,-87.35099792480469 78.03500366210938,-39.41299819946289 78.03500366210938,-39.41299819946289z"></path></g><g opacity="1" transform="matrix(1,0,0,1,1463.885986328125,1463.052001953125)"><path fill="rgb(28,70,111)" fill-opacity="1" d=" M3.993000030517578,-87.37100219726562 C-8.984000205993652,-95.79499816894531 -24.642000198364258,-94.88700103759766 -30.968000411987305,-85.23999786376953 C-30.968000411987305,-85.23999786376953 -90.3030014038086,6.763999938964844 -90.3030014038086,6.763999938964844 C-96.62799835205078,16.371000289916992 -91.2509994506836,30.966999053955078 -78.03900146484375,39.472999572753906 C-78.03900146484375,39.472999572753906 -4.074999809265137,87.37000274658203 -4.074999809265137,87.37000274658203 C8.973999977111816,95.79499816894531 24.639999389648438,94.80500030517578 30.966999053955078,85.23100280761719 C30.966999053955078,85.23100280761719 90.375,-6.803999900817871 90.375,-6.803999900817871 C96.62799835205078,-16.29800033569336 91.08699798583984,-30.895000457763672 78.11000061035156,-39.391998291015625 C78.11000061035156,-39.391998291015625 3.993000030517578,-87.37100219726562 3.993000030517578,-87.37100219726562z"></path></g><g opacity="1" transform="matrix(1,0,0,1,592.2319946289062,1181.3800048828125)"><path fill="rgb(28,70,111)" fill-opacity="1" d=" M47.9739990234375,-73.11299896240234 C63.558998107910156,-72.4000015258789 75.50700378417969,-62.4370002746582 75.11000061035156,-50.999000549316406 C75.11000061035156,-50.999000549316406 69.33300018310547,58.362998962402344 69.33300018310547,58.362998962402344 C68.85600280761719,69.75199890136719 55.80699920654297,78.41100311279297 40.457000732421875,77.61699676513672 C40.457000732421875,77.61699676513672 -47.9739990234375,73.22699737548828 -47.9739990234375,73.22699737548828 C-63.404998779296875,72.52200317382812 -75.50599670410156,62.42900085449219 -74.875,50.926998138427734 C-74.875,50.926998138427734 -69.33499908447266,-58.28099822998047 -69.33499908447266,-58.28099822998047 C-68.7020034790039,-69.87300109863281 -55.80699920654297,-78.41100311279297 -40.303001403808594,-77.58499908447266 C-40.303001403808594,-77.58499908447266 47.9739990234375,-73.11299896240234 47.9739990234375,-73.11299896240234z"></path></g><g opacity="1" transform="matrix(1,0,0,1,1539.428955078125,1229.4959716796875)"><path fill="rgb(28,70,111)" fill-opacity="1" d=" M-40.30799865722656,-77.60199737548828 C-55.8120002746582,-78.3550033569336 -68.86100006103516,-69.80899810791016 -69.41200256347656,-58.29800033569336 C-69.41200256347656,-58.29800033569336 -75.03399658203125,50.983001708984375 -75.03399658203125,50.983001708984375 C-75.50299835205078,62.49399948120117 -63.56399917602539,72.49700164794922 -47.89799880981445,73.20999908447266 C-47.89799880981445,73.20999908447266 40.224998474121094,77.7229995727539 40.224998474121094,77.7229995727539 C55.64899826049805,78.3550033569336 68.697998046875,69.8489990234375 69.33799743652344,58.37900161743164 C69.33799743652344,58.37900161743164 74.9520034790039,-51.10499954223633 74.9520034790039,-51.10499954223633 C75.50299835205078,-62.6150016784668 63.16600036621094,-72.34400177001953 47.816001892089844,-73.12899780273438 C47.816001892089844,-73.12899780273438 -40.30799865722656,-77.60199737548828 -40.30799865722656,-77.60199737548828z"></path></g><g opacity="1" transform="matrix(1,0,0,1,643.72900390625,1421.4410400390625)"><path fill="rgb(28,70,111)" fill-opacity="1" d=" M4.940999984741211,-87.3290023803711 C18.6299991607666,-94.44999694824219 34.053001403808594,-91.88200378417969 39.27000045776367,-81.8290023803711 C39.27000045776367,-81.8290023803711 89.19300079345703,15.779000282287598 89.19300079345703,15.779000282287598 C94.48999786376953,26.025999069213867 87.45099639892578,40.03200149536133 73.5260009765625,47.111000061035156 C73.5260009765625,47.111000061035156 -4.949999809265137,87.33000183105469 -4.949999809265137,87.33000183105469 C-18.631000518798828,94.44999694824219 -34.05400085449219,91.8010025024414 -39.35900115966797,81.59400177001953 C-39.35900115966797,81.59400177001953 -89.27400207519531,-15.940999984741211 -89.27400207519531,-15.940999984741211 C-94.48999786376953,-26.099000930786133 -87.45099639892578,-40.06399917602539 -73.76899719238281,-47.183998107910156 C-73.76899719238281,-47.183998107910156 4.940999984741211,-87.3290023803711 4.940999984741211,-87.3290023803711z"></path></g><g opacity="1" transform="matrix(1,0,0,1,1487.970947265625,989.552978515625)"><path fill="rgb(28,70,111)" fill-opacity="1" d=" M-73.7249984741211,-47.165000915527344 C-87.56800079345703,-40.012001037597656 -94.4540023803711,-26.128000259399414 -89.30999755859375,-15.880999565124512 C-89.30999755859375,-15.880999565124512 -39.314998626708984,81.572998046875 -39.314998626708984,81.572998046875 C-34.250999450683594,91.81999969482422 -18.82900047302246,94.42900085449219 -4.986000061035156,87.30899810791016 C-4.986000061035156,87.30899810791016 73.7249984741211,47.16299819946289 73.7249984741211,47.16299819946289 C87.40699768066406,40.08399963378906 94.4540023803711,26.006000518798828 89.22899627685547,15.880999565124512 C89.22899627685547,15.880999565124512 39.23400115966797,-81.81800079345703 39.23400115966797,-81.81800079345703 C34.17100143432617,-91.98400115966797 18.749000549316406,-94.42900085449219 4.823999881744385,-87.3499984741211 C4.823999881744385,-87.3499984741211 -73.7249984741211,-47.165000915527344 -73.7249984741211,-47.165000915527344z"></path></g><g opacity="1" transform="matrix(1,0,0,1,808.302978515625,1603.5389404296875)"><path fill="rgb(28,70,111)" fill-opacity="1" d=" M-39.62699890136719,-78.11499786376953 C-31.007999420166016,-91.16500091552734 -16.45199966430664,-96.66500091552734 -6.876999855041504,-90.37899780273438 C-6.876999855041504,-90.37899780273438 85.1989974975586,-30.97100067138672 85.1989974975586,-30.97100067138672 C94.76599884033203,-24.636999130249023 95.79399871826172,-9.020000457763672 87.41000366210938,3.8359999656677246 C87.41000366210938,3.8359999656677246 39.391998291015625,78.15599822998047 39.391998291015625,78.15599822998047 C30.934999465942383,91.09200286865234 16.216999053955078,96.66500091552734 6.642000198364258,90.21700286865234 C6.642000198364258,90.21700286865234 -85.27200317382812,30.850000381469727 -85.27200317382812,30.850000381469727 C-95.0009994506836,24.718000411987305 -95.79399871826172,9.0600004196167 -87.56500244140625,-3.996999979019165 C-87.56500244140625,-3.996999979019165 -39.62699890136719,-78.11499786376953 -39.62699890136719,-78.11499786376953z"></path></g><g opacity="1" transform="matrix(1,0,0,1,1323.4339599609375,807.3359985351562)"><path fill="rgb(28,70,111)" fill-opacity="1" d=" M-87.5719985961914,-3.940999984741211 C-95.79399871826172,9.116999626159668 -94.84600067138672,24.735000610351562 -85.197998046875,30.988000869750977 C-85.197998046875,30.988000869750977 6.88700008392334,90.43599700927734 6.88700008392334,90.43599700927734 C16.371000289916992,96.56800079345703 31.009000778198242,91.14900207519531 39.393001556396484,78.1729965209961 C39.393001556396484,78.1729965209961 87.41100311279297,3.931999921798706 87.41100311279297,3.931999921798706 C95.79499816894531,-8.92300033569336 94.9280014038086,-24.6200008392334 85.1989974975586,-30.792999267578125 C85.1989974975586,-30.792999267578125 -6.640999794006348,-90.322998046875 -6.640999794006348,-90.322998046875 C-16.451000213623047,-96.56800079345703 -30.926000595092773,-91.10700225830078 -39.39099884033203,-78.05799865722656 C-39.39099884033203,-78.05799865722656 -87.5719985961914,-3.940999984741211 -87.5719985961914,-3.940999984741211z"></path></g><g opacity="1" transform="matrix(1,0,0,1,1065.7469482421875,1205.426025390625)"><path fill="rgb(28,70,111)" fill-opacity="1" d=" M23.540000915527344,-461.2760009765625 C-231.25599670410156,-474.2120056152344 -448.3999938964844,-278.1929931640625 -461.13299560546875,-23.389999389648438 C-474.1919860839844,231.32400512695312 -278.16400146484375,448.38800048828125 -23.450000762939453,461.2760009765625 C231.26400756835938,474.2120056152344 448.3269958496094,278.11199951171875 461.2239990234375,23.39699935913086 C474.1919860839844,-231.3979949951172 278.3349914550781,-448.3070068359375 23.540000915527344,-461.2760009765625z M-15.300999641418457,303.7409973144531 C-183.08299255371094,295.3169860839844 -312.18499755859375,152.33799743652344 -303.5589904785156,-15.36299991607666 C-295.17498779296875,-183.30599975585938 -152.23699951171875,-312.20599365234375 15.390999794006348,-303.7820129394531 C183.17300415039062,-295.1549987792969 312.5830078125,-152.45199584960938 303.802001953125,15.482999801635742 C295.2650146484375,183.1840057373047 152.47999572753906,312.3269958496094 -15.300999641418457,303.7409973144531z"></path></g></g><g opacity="1" transform="matrix(1,0,0,1,0,0)"><g opacity="1" transform="matrix(1,0,0,1,1800.0389404296875,305.97198486328125)"><path fill="rgb(28,70,111)" fill-opacity="1" d=" M48.17300033569336,31.50200080871582 C47.777000427246094,41.78099822998047 41.21500015258789,49.81700134277344 33.77899932861328,49.3390007019043 C33.77899932861328,49.3390007019043 -38.444000244140625,45.62099838256836 -38.444000244140625,45.62099838256836 C-46.04199981689453,45.30500030517578 -51.65599822998047,36.79999923706055 -51.3390007019043,26.520999908447266 C-51.3390007019043,26.520999908447266 -48.334999084472656,-31.58300018310547 -48.334999084472656,-31.58300018310547 C-47.702999114990234,-41.790000915527344 -41.2140007019043,-49.81700134277344 -33.625,-49.41999816894531 C-33.625,-49.41999816894531 38.444000244140625,-45.823001861572266 38.444000244140625,-45.823001861572266 C46.03499984741211,-45.3129997253418 51.654998779296875,-36.72700119018555 51.178001403808594,-26.479999542236328 C51.178001403808594,-26.479999542236328 48.17300033569336,31.50200080871582 48.17300033569336,31.50200080871582z"></path></g><g opacity="1" transform="matrix(1,0,0,1,1768.2779541015625,930.343017578125)"><path fill="rgb(28,70,111)" fill-opacity="1" d=" M51.21900177001953,-26.56100082397461 C51.696998596191406,-36.80799865722656 46.000999450683594,-45.42599868774414 38.48400115966797,-45.86399841308594 C38.48400115966797,-45.86399841308594 -33.58399963378906,-49.41999816894531 -33.58399963378906,-49.41999816894531 C-41.255001068115234,-49.81700134277344 -47.6619987487793,-41.790000915527344 -48.29399871826172,-31.58300018310547 C-48.29399871826172,-31.58300018310547 -51.145999908447266,26.56100082397461 -51.145999908447266,26.56100082397461 C-51.696998596191406,36.71900177001953 -46.08300018310547,45.38600158691406 -38.564998626708984,45.74300003051758 C-38.564998626708984,45.74300003051758 33.737998962402344,49.257999420166016 33.737998962402344,49.257999420166016 C41.32699966430664,49.81700134277344 47.81700134277344,41.749000549316406 48.292999267578125,31.542999267578125 C48.292999267578125,31.542999267578125 51.21900177001953,-26.56100082397461 51.21900177001953,-26.56100082397461z"></path></g><g opacity="1" transform="matrix(1,0,0,1,1641.7879638671875,339.8429870605469)"><path fill="rgb(28,70,111)" fill-opacity="1" d=" M57.54899978637695,3.365999937057495 C62.21500015258789,12.381999969482422 60.6349983215332,22.466999053955078 53.75,25.948999404907227 C53.75,25.948999404907227 -10.47700023651123,58.893001556396484 -10.47700023651123,58.893001556396484 C-17.128000259399414,62.33599853515625 -26.29800033569336,57.750999450683594 -30.972000122070312,48.61399841308594 C-30.972000122070312,48.61399841308594 -57.54899978637695,-3.24399995803833 -57.54899978637695,-3.24399995803833 C-62.21500015258789,-12.340999603271484 -60.55400085449219,-22.506999969482422 -53.83000183105469,-25.900999069213867 C-53.83000183105469,-25.900999069213867 10.404999732971191,-58.77199935913086 10.404999732971191,-58.77199935913086 C17.281999588012695,-62.33599853515625 26.386999130249023,-57.5890007019043 30.972000122070312,-48.6870002746582 C30.972000122070312,-48.6870002746582 57.54899978637695,3.365999937057495 57.54899978637695,3.365999937057495z"></path></g><g opacity="1" transform="matrix(1,0,0,1,1926.5250244140625,896.4429931640625)"><path fill="rgb(28,70,111)" fill-opacity="1" d=" M30.92799949645996,-48.58599853515625 C26.343000411987305,-57.80400085449219 17.2450008392334,-62.314998626708984 10.522000312805176,-58.750999450683594 C10.522000312805176,-58.750999450683594 -53.7130012512207,-26.003000259399414 -53.7130012512207,-26.003000259399414 C-60.59000015258789,-22.527000427246094 -62.33100128173828,-12.319999694824219 -57.584999084472656,-3.2230000495910645 C-57.584999084472656,-3.2230000495910645 -31.16900062561035,48.512001037597656 -31.16900062561035,48.512001037597656 C-26.4950008392334,57.72999954223633 -17.163999557495117,62.314998626708984 -10.4399995803833,58.87200164794922 C-10.4399995803833,58.87200164794922 53.94900131225586,25.9689998626709 53.94900131225586,25.9689998626709 C60.5989990234375,22.445999145507812 62.33100128173828,12.401000022888184 57.584999084472656,3.183000087738037 C57.584999084472656,3.183000087738037 30.92799949645996,-48.58599853515625 30.92799949645996,-48.58599853515625z"></path></g><g opacity="1" transform="matrix(1,0,0,1,1521.8260498046875,448.3550109863281)"><path fill="rgb(28,70,111)" fill-opacity="1" d=" M51.422000885009766,-26.079999923706055 C59.95899963378906,-20.465999603271484 63.676998138427734,-10.777999877929688 59.48899841308594,-4.484000205993652 C59.48899841308594,-4.484000205993652 20.33099937438965,56.1879997253418 20.33099937438965,56.1879997253418 C16.13599967956543,62.513999938964844 5.85699987411499,63.1870002746582 -2.688999891281128,57.612998962402344 C-2.688999891281128,57.612998962402344 -51.57400131225586,25.924999237060547 -51.57400131225586,25.924999237060547 C-60.11899948120117,20.433000564575195 -63.676998138427734,10.777000427246094 -59.641998291015625,4.451000213623047 C-59.641998291015625,4.451000213623047 -20.405000686645508,-56.220001220703125 -20.405000686645508,-56.220001220703125 C-16.45199966430664,-62.58700180053711 -6.010000228881836,-63.18600082397461 2.372999906539917,-57.60499954223633 C2.372999906539917,-57.60499954223633 51.422000885009766,-26.079999923706055 51.422000885009766,-26.079999923706055z"></path></g><g opacity="1" transform="matrix(1,0,0,1,2046.5679931640625,788.073974609375)"><path fill="rgb(28,70,111)" fill-opacity="1" d=" M2.7260000705718994,-57.768001556396484 C-5.9730000495910645,-63.1870002746582 -16.253000259399414,-62.63600158691406 -20.28700065612793,-56.229000091552734 C-20.28700065612793,-56.229000091552734 -59.5260009765625,4.329999923706055 -59.5260009765625,4.329999923706055 C-63.72100067138672,10.737000465393066 -60.08399963378906,20.385000228881836 -51.375,25.885000228881836 C-51.375,25.885000228881836 -2.572000026702881,57.56399917602539 -2.572000026702881,57.56399917602539 C5.973999977111816,63.18600082397461 16.413999557495117,62.4739990234375 20.368000030517578,56.13999938964844 C20.368000030517578,56.13999938964844 59.6879997253418,-4.61299991607666 59.6879997253418,-4.61299991607666 C63.72100067138672,-10.817999839782715 60.07699966430664,-20.433000564575195 51.53900146484375,-26.086999893188477 C51.53900146484375,-26.086999893188477 2.7260000705718994,-57.768001556396484 2.7260000705718994,-57.768001556396484z"></path></g><g opacity="1" transform="matrix(1,0,0,1,1471.9520263671875,602.333984375)"><path fill="rgb(28,70,111)" fill-opacity="1" d=" M31.60099983215332,-48.23400115966797 C41.88800048828125,-47.83700180053711 49.87300109863281,-41.23500061035156 49.40399932861328,-33.676998138427734 C49.40399932861328,-33.676998138427734 45.75899887084961,38.42399978637695 45.75899887084961,38.42399978637695 C45.44300079345703,45.941001892089844 36.74399948120117,51.715999603271484 26.618000030517578,51.198001861572266 C26.618000030517578,51.198001861572266 -31.599000930786133,48.15299987792969 -31.599000930786133,48.15299987792969 C-41.88600158691406,47.68299865722656 -49.874000549316406,41.15399932861328 -49.40399932861328,33.56399917602539 C-49.40399932861328,33.56399917602539 -45.685001373291016,-38.54499816894531 -45.685001373291016,-38.54499816894531 C-45.28900146484375,-46.09400177001953 -36.6619987487793,-51.71699905395508 -26.53700065612793,-51.23899841308594 C-26.53700065612793,-51.23899841308594 31.60099983215332,-48.23400115966797 31.60099983215332,-48.23400115966797z"></path></g><g opacity="1" transform="matrix(1,0,0,1,2096.44189453125,634.0349731445312)"><path fill="rgb(28,70,111)" fill-opacity="1" d=" M-26.579999923706055,-51.21900177001953 C-36.939998626708984,-51.696998596191406 -45.486000061035156,-45.96099853515625 -45.72200012207031,-38.525001525878906 C-45.72200012207031,-38.525001525878906 -49.439998626708984,33.58300018310547 -49.439998626708984,33.58300018310547 C-49.8380012512207,41.2140007019043 -41.84299850463867,47.78300094604492 -31.562999725341797,48.25299835205078 C-31.562999725341797,48.25299835205078 26.5,51.14500045776367 26.5,51.14500045776367 C36.625,51.696998596191406 45.40599822998047,45.959999084472656 45.64099884033203,38.40299987792969 C45.64099884033203,38.40299987792969 49.35900115966797,-33.696998596191406 49.35900115966797,-33.696998596191406 C49.8380012512207,-41.255001068115234 41.608001708984375,-47.816001892089844 31.482999801635742,-48.33399963378906 C31.482999801635742,-48.33399963378906 -26.579999923706055,-51.21900177001953 -26.579999923706055,-51.21900177001953z"></path></g><g opacity="1" transform="matrix(1,0,0,1,1505.8079833984375,760.5449829101562)"><path fill="rgb(28,70,111)" fill-opacity="1" d=" M3.367000102996826,-57.52899932861328 C12.463000297546387,-62.23500061035156 22.586999893188477,-60.6150016784668 25.98900032043457,-53.972999572753906 C25.98900032043457,-53.972999572753906 58.893001556396484,10.416999816894531 58.893001556396484,10.416999816894531 C62.29600143432617,17.14900016784668 57.8650016784668,26.43899917602539 48.6870002746582,31.06399917602539 C48.6870002746582,31.06399917602539 -3.122999906539917,57.569000244140625 -3.122999906539917,57.569000244140625 C-12.220000267028809,62.23400115966797 -22.344999313354492,60.57500076293945 -25.827999114990234,53.85100173950195 C-25.827999114990234,53.85100173950195 -58.73099899291992,-10.505999565124512 -58.73099899291992,-10.505999565124512 C-62.29499816894531,-17.187999725341797 -57.54800033569336,-26.39900016784668 -48.53300094604492,-31.187000274658203 C-48.53300094604492,-31.187000274658203 3.367000102996826,-57.52899932861328 3.367000102996826,-57.52899932861328z"></path></g><g opacity="1" transform="matrix(1,0,0,1,2062.506103515625,475.7659912109375)"><path fill="rgb(28,70,111)" fill-opacity="1" d=" M-48.650001525878906,-31.027999877929688 C-57.584999084472656,-26.36199951171875 -62.176998138427734,-17.184999465942383 -58.847999572753906,-10.420999526977539 C-58.847999572753906,-10.420999526977539 -26.027000427246094,53.77399826049805 -26.027000427246094,53.77399826049805 C-22.54400062561035,60.6510009765625 -12.5,62.23899841308594 -3.240000009536743,57.645999908447266 C-3.240000009536743,57.645999908447266 48.56999969482422,31.149999618530273 48.56999969482422,31.149999618530273 C57.74700164794922,26.483999252319336 62.178001403808594,17.184999465942383 58.69499969482422,10.501999855041504 C58.69499969482422,10.501999855041504 25.871999740600586,-53.73400115966797 25.871999740600586,-53.73400115966797 C22.469999313354492,-60.611000061035156 12.345000267028809,-62.23899841308594 3.322999954223633,-57.60499954223633 C3.322999954223633,-57.60499954223633 -48.650001525878906,-31.027999877929688 -48.650001525878906,-31.027999877929688z"></path></g><g opacity="1" transform="matrix(1,0,0,1,1614.3399658203125,880.5670166015625)"><path fill="rgb(28,70,111)" fill-opacity="1" d=" M-25.985000610351562,-51.46200180053711 C-20.444000244140625,-60.040000915527344 -10.79800033569336,-63.757999420166016 -4.389999866485596,-59.611000061035156 C-4.389999866485596,-59.611000061035156 56.28099822998047,-20.33099937438965 56.28099822998047,-20.33099937438965 C62.53499984741211,-16.215999603271484 63.24800109863281,-5.936999797821045 57.707000732421875,2.6489999294281006 C57.707000732421875,2.6489999294281006 25.986000061035156,51.6150016784668 25.986000061035156,51.6150016784668 C20.44499969482422,60.03900146484375 10.715999603271484,63.757999420166016 4.4710001945495605,59.60200119018555 C4.4710001945495605,59.60200119018555 -56.04600143432617,20.322999954223633 -56.04600143432617,20.322999954223633 C-62.534000396728516,16.215999603271484 -63.24700164794922,6.011000156402588 -57.625,-2.6480000019073486 C-57.625,-2.6480000019073486 -25.985000610351562,-51.46200180053711 -25.985000610351562,-51.46200180053711z"></path></g><g opacity="1" transform="matrix(1,0,0,1,1954.0150146484375,355.7040100097656)"><path fill="rgb(28,70,111)" fill-opacity="1" d=" M-57.630001068115234,-2.6449999809265137 C-63.1619987487793,5.973999977111816 -62.529998779296875,16.333999633789062 -56.20399856567383,20.336000442504883 C-56.20399856567383,20.336000442504883 4.629000186920166,59.60599899291992 4.629000186920166,59.60599899291992 C10.722000122070312,63.599998474121094 20.448999404907227,60.042999267578125 25.98900032043457,51.457000732421875 C25.98900032043457,51.457000732421875 57.709999084472656,2.490999937057495 57.709999084472656,2.490999937057495 C63.1619987487793,-5.934000015258789 62.529998779296875,-16.21299934387207 56.28499984741211,-20.368000030517578 C56.28499984741211,-20.368000030517578 -4.4679999351501465,-59.638999938964844 -4.4679999351501465,-59.638999938964844 C-10.793999671936035,-63.599998474121094 -20.368000030517578,-60.117000579833984 -25.982999801635742,-51.49800109863281 C-25.982999801635742,-51.49800109863281 -57.630001068115234,-2.6449999809265137 -57.630001068115234,-2.6449999809265137z"></path></g><g opacity="1" transform="matrix(1,0,0,1,1784.2149658203125,618.0560302734375)"><path fill="rgb(28,70,111)" fill-opacity="1" d=" M15.427000045776367,-304.114013671875 C-152.43499755859375,-312.70001220703125 -295.6889953613281,-183.32200622558594 -304.2349853515625,-15.265000343322754 C-312.6189880371094,152.51699829101562 -183.5240020751953,295.61700439453125 -15.5,304.2760009765625 C152.35499572753906,312.70001220703125 295.4540100097656,183.48399353027344 304,15.468000411987305 C312.6189880371094,-152.4759979248047 183.44400024414062,-295.4949951171875 15.427000045776367,-304.114013671875z M-10.282999992370605,200.33299255371094 C-120.86900329589844,194.75100708007812 -205.90499877929688,100.42400360107422 -200.21099853515625,-10.161999702453613 C-194.6790008544922,-120.71499633789062 -100.46399688720703,-205.7519989013672 10.20199966430664,-200.1699981689453 C120.71499633789062,-194.59800720214844 205.83299255371094,-100.46399688720703 200.21099853515625,10.282999992370605 C194.6790008544922,120.86900329589844 100.46399688720703,205.906005859375 -10.282999992370605,200.33299255371094z"></path></g></g></g><g transform="matrix(1,0,0,1,3956.5,4068.499755859375)" opacity="1" style="display: block;"><g opacity="1" transform="matrix(1,0,0,1,2056.048095703125,600.6069946289062)"><path fill="rgb(230,173,125)" fill-opacity="1" d=" M-935.8480224609375,-0.05700000002980232 C-688.7239990234375,112.2699966430664 -360.36199951171875,180.6540069580078 -0.11800000071525574,180.6540069580078 C360.4440002441406,180.6540069580078 688.8049926757812,112.2699966430664 935.8480224609375,-0.05700000002980232 C688.8049926757812,-112.19000244140625 360.4440002441406,-180.6540069580078 -0.11800000071525574,-180.6540069580078 C-360.36199951171875,-180.6540069580078 -688.7239990234375,-112.19000244140625 -935.8480224609375,-0.05700000002980232z"></path></g><g opacity="1" transform="matrix(0.9363580346107483,0,0,0.9363580346107483,-1833.7880859375,-806.0361328125)"><g opacity="1" transform="matrix(1,0,0,1,4003.574951171875,1612.9959716796875)"><path fill="rgb(255,161,41)" fill-opacity="1" d=" M422.1000061035156,-166.16099548339844 C329.5450134277344,-242.33599853515625 175.05499267578125,-292.1700134277344 0,-292.1700134277344 C-175.06399536132812,-292.1700134277344 -329.552001953125,-242.33599853515625 -422.10699462890625,-166.16099548339844 C-422.10699462890625,-166.16099548339844 -513.3079833984375,-166.16099548339844 -513.3079833984375,-166.16099548339844 C-513.3079833984375,-166.16099548339844 -513.3079833984375,0 -513.3079833984375,0 C-513.3079833984375,161.49600219726562 -283.43701171875,292.1700134277344 0,292.1700134277344 C283.5840148925781,292.1700134277344 513.3090209960938,161.49600219726562 513.3090209960938,0 C513.3090209960938,0 513.3090209960938,-166.16099548339844 513.3090209960938,-166.16099548339844 C513.3090209960938,-166.16099548339844 422.1000061035156,-166.16099548339844 422.1000061035156,-166.16099548339844z"></path></g><g opacity="1" transform="matrix(1,0,0,1,4003.574951171875,1426.64501953125)"><path fill="rgb(251,214,81)" fill-opacity="1" d=" M422.1000061035156,-165.97900390625 C329.5450134277344,-242.15499877929688 175.05499267578125,-292.27099609375 0,-292.27099609375 C-175.06399536132812,-292.27099609375 -329.552001953125,-242.15499877929688 -422.260009765625,-165.97900390625 C-422.260009765625,-165.97900390625 -513.3079833984375,-165.97900390625 -513.3079833984375,-165.97900390625 C-513.3079833984375,-165.97900390625 -513.3079833984375,0.019999999552965164 -513.3079833984375,0.019999999552965164 C-513.3079833984375,161.2729949951172 -283.43701171875,292.27099609375 0,292.27099609375 C283.5840148925781,292.27099609375 513.3090209960938,161.2729949951172 513.3090209960938,0.019999999552965164 C513.3090209960938,0.019999999552965164 513.3090209960938,-165.97900390625 513.3090209960938,-165.97900390625 C513.3090209960938,-165.97900390625 422.1000061035156,-165.97900390625 422.1000061035156,-165.97900390625z"></path></g><g opacity="1" transform="matrix(1,0,0,1,4003.574951171875,1240.3179931640625)"><path fill="rgb(255,161,41)" fill-opacity="1" d=" M422.1000061035156,-166.06500244140625 C329.3909912109375,-242.15899658203125 175.05499267578125,-292.15399169921875 0,-292.15399169921875 C-175.06399536132812,-292.15399169921875 -329.552001953125,-242.15899658203125 -422.260009765625,-166.06500244140625 C-422.260009765625,-166.06500244140625 -513.3079833984375,-166.06500244140625 -513.3079833984375,-166.06500244140625 C-513.3079833984375,-166.06500244140625 -513.3079833984375,-0.1379999965429306 -513.3079833984375,-0.1379999965429306 C-513.3079833984375,161.2689971923828 -283.43701171875,292.15399169921875 0,292.15399169921875 C283.5840148925781,292.15399169921875 513.3090209960938,161.2689971923828 513.3090209960938,-0.1379999965429306 C513.3090209960938,-0.1379999965429306 513.3090209960938,-166.06500244140625 513.3090209960938,-166.06500244140625 C513.3090209960938,-166.06500244140625 422.1000061035156,-166.06500244140625 422.1000061035156,-166.06500244140625z"></path></g><g opacity="1" transform="matrix(1,0,0,1,4003.493896484375,1053.926025390625)"><path fill="rgb(251,214,81)" fill-opacity="1" d=" M422.1809997558594,-166.00399780273438 C329.47198486328125,-242.25999450683594 175.13600158691406,-292.2550048828125 0.08100000023841858,-292.2550048828125 C-174.98300170898438,-292.2550048828125 -329.47100830078125,-242.25999450683594 -422.1789855957031,-166.00399780273438 C-422.1789855957031,-166.00399780273438 -513.3889770507812,-166.00399780273438 -513.3889770507812,-166.00399780273438 C-513.3889770507812,-166.00399780273438 -513.3889770507812,0.07699999958276749 -513.3889770507812,0.07699999958276749 C-513.3889770507812,161.57200622558594 -283.510009765625,292.2550048828125 0.08100000023841858,292.2550048828125 C283.6650085449219,292.2550048828125 513.3900146484375,161.57200622558594 513.3900146484375,0.07699999958276749 C513.3900146484375,0.07699999958276749 513.3900146484375,-166.00399780273438 513.3900146484375,-166.00399780273438 C513.3900146484375,-166.00399780273438 422.1809997558594,-166.00399780273438 422.1809997558594,-166.00399780273438z"></path></g><g opacity="1" transform="matrix(1,0,0,1,4003.493896484375,867.6710205078125)"><path fill="rgb(255,161,41)" fill-opacity="1" d=" M422.1809997558594,-166.19400024414062 C329.47198486328125,-242.33700561523438 175.13600158691406,-292.2510070800781 0.08100000023841858,-292.2510070800781 C-174.98300170898438,-292.2510070800781 -329.47100830078125,-242.33700561523438 -422.1789855957031,-166.19400024414062 C-422.1789855957031,-166.19400024414062 -513.3889770507812,-166.19400024414062 -513.3889770507812,-166.19400024414062 C-513.3889770507812,-166.19400024414062 -513.3889770507812,0.04100000113248825 -513.3889770507812,0.04100000113248825 C-513.3889770507812,161.33399963378906 -283.510009765625,292.2510070800781 0.08100000023841858,292.2510070800781 C283.6650085449219,292.2510070800781 513.3900146484375,161.33399963378906 513.3900146484375,0.04100000113248825 C513.3900146484375,0.04100000113248825 513.3900146484375,-166.19400024414062 513.3900146484375,-166.19400024414062 C513.3900146484375,-166.19400024414062 422.1809997558594,-166.19400024414062 422.1809997558594,-166.19400024414062z"></path></g><g opacity="1" transform="matrix(1,0,0,1,4003.493896484375,701.5910034179688)"><path fill="rgb(251,214,81)" fill-opacity="1" d=" M513.3900146484375,-0.11400000005960464 C513.3900146484375,161.22000122070312 283.6650085449219,292.2919921875 0.08100000023841858,292.2919921875 C-283.510009765625,292.2919921875 -513.3889770507812,161.22000122070312 -513.3889770507812,-0.11400000005960464 C-513.3889770507812,-161.44700622558594 -283.510009765625,-292.2909851074219 0.08100000023841858,-292.2909851074219 C283.6650085449219,-292.2909851074219 513.3900146484375,-161.44700622558594 513.3900146484375,-0.11400000005960464z"></path></g><g opacity="1" transform="matrix(1,0,0,1,4003.574951171875,701.6309814453125)"><path fill="rgb(255,161,41)" fill-opacity="1" d=" M432.3869934082031,-0.15399999916553497 C432.3869934082031,135.8260040283203 238.73300170898438,246.05499267578125 0,246.05499267578125 C-238.8939971923828,246.05499267578125 -432.385986328125,135.8260040283203 -432.385986328125,-0.15399999916553497 C-432.385986328125,-135.97999572753906 -238.8939971923828,-246.05499267578125 0,-246.05499267578125 C238.73300170898438,-246.05499267578125 432.3869934082031,-135.97999572753906 432.3869934082031,-0.15399999916553497z"></path></g><g opacity="1" transform="matrix(1,0,0,1,4003.530029296875,701.4530029296875)"><path fill="rgb(251,214,81)" fill-opacity="1" d=" M335.28399658203125,0.024000000208616257 C335.28399658203125,105.35299682617188 185.07200622558594,190.89999389648438 0.04500000178813934,190.89999389648438 C-185.14500427246094,190.89999389648438 -335.2829895019531,105.35299682617188 -335.2829895019531,0.024000000208616257 C-335.2829895019531,-105.30400085449219 -185.14500427246094,-190.89999389648438 0.04500000178813934,-190.89999389648438 C185.07200622558594,-190.89999389648438 335.28399658203125,-105.30400085449219 335.28399658203125,0.024000000208616257z"></path></g><g opacity="1" transform="matrix(1,0,0,1,4003.452880859375,701.5339965820312)"><path fill="rgb(255,161,41)" fill-opacity="1" d=" M-31.68000030517578,120.85600280761719 C-54.1510009765625,120.41899871826172 -73.60800170898438,118.99299621582031 -90.375,116.93599700927734 C-107.06999969482422,114.64399719238281 -120.28099822998047,112.03500366210938 -129.531005859375,109.06199645996094 C-129.531005859375,109.06199645996094 -106.75399780273438,70.93399810791016 -106.75399780273438,70.93399810791016 C-99.63400268554688,73.30799865722656 -89.97799682617188,75.72200012207031 -77.08999633789062,77.94100189208984 C-64.43000030517578,80.1520004272461 -49.47700119018555,81.65899658203125 -31.68000030517578,82.60700225830078 C-31.68000030517578,82.60700225830078 -31.68000030517578,14.928999900817871 -31.68000030517578,14.928999900817871 C-43.944000244140625,11.92300033569336 -55.81100082397461,8.407999992370605 -67.83200073242188,4.5279998779296875 C-79.77999877929688,0.890999972820282 -90.375,-3.694000005722046 -99.63400268554688,-8.878000259399414 C-109.12699890136719,-14.215999603271484 -116.63600158691406,-20.663999557495117 -122.33000183105469,-28.141000747680664 C-127.87000274658203,-35.65800094604492 -130.87600708007812,-44.39799880981445 -130.87600708007812,-54.79899978637695 C-130.87600708007812,-73.74600219726562 -121.94200134277344,-88.49600219726562 -104.06500244140625,-99.18000030517578 C-86.4219970703125,-109.69400024414062 -62.29100036621094,-116.58000183105469 -31.68000030517578,-119.58499908447266 C-31.68000030517578,-119.58499908447266 -31.68000030517578,-149.96099853515625 -31.68000030517578,-149.96099853515625 C-31.68000030517578,-149.96099853515625 28.990999221801758,-149.96099853515625 28.990999221801758,-149.96099853515625 C28.990999221801758,-149.96099853515625 28.990999221801758,-120.88899993896484 28.990999221801758,-120.88899993896484 C46.23699951171875,-120.2979965209961 61.270999908447266,-118.87200164794922 74.08599853515625,-117.05799865722656 C86.9729995727539,-114.95999908447266 98.91999816894531,-112.62699890136719 109.75900268554688,-110.01000213623047 C109.75900268554688,-110.01000213623047 88.63400268554688,-73.19400024414062 88.63400268554688,-73.19400024414062 C82.0719985961914,-75.04900360107422 73.60700225830078,-76.83200073242188 63.481998443603516,-78.6050033569336 C53.356998443603516,-80.34700012207031 41.96799850463867,-81.77300262451172 28.990999221801758,-82.63999938964844 C28.990999221801758,-82.63999938964844 28.990999221801758,-19.951000213623047 28.990999221801758,-19.951000213623047 C41.09299850463867,-16.945999145507812 53.356998443603516,-13.463000297546387 65.54000091552734,-9.510000228881836 C77.95800018310547,-5.517000198364258 88.63400268554688,-1.0049999952316284 98.37100219726562,4.486999988555908 C107.93599700927734,9.711999893188477 115.76899719238281,16.038999557495117 121.69999694824219,23.118000030517578 C127.71800231933594,30.399999618530273 130.87600708007812,38.89699935913086 130.87600708007812,48.95000076293945 C130.87600708007812,69.27300262451172 121.6989974975586,85.2959976196289 103.58599853515625,96.80699920654297 C85.62799835205078,108.2760009765625 60.47700119018555,115.71299743652344 28.990999221801758,118.99299621582031 C28.990999221801758,118.99299621582031 28.990999221801758,149.96099853515625 28.990999221801758,149.96099853515625 C28.990999221801758,149.96099853515625 -31.68000030517578,149.96099853515625 -31.68000030517578,149.96099853515625 C-31.68000030517578,149.96099853515625 -31.68000030517578,120.85600280761719 -31.68000030517578,120.85600280761719z M-54.70100021362305,-58.516998291015625 C-54.70100021362305,-51.792999267578125 -49.95399856567383,-46.21200180053711 -40.858001708984375,-41.70899963378906 C-31.599000930786133,-37.196998596191406 -20.291000366210938,-33.04199981689453 -6.6020002365112305,-29.291000366210938 C-6.6020002365112305,-29.291000366210938 -6.6020002365112305,-83.59500122070312 -6.6020002365112305,-83.59500122070312 C-25.038000106811523,-83.197998046875 -37.61000061035156,-80.62300109863281 -44.41400146484375,-75.88400268554688 C-51.137001037597656,-71.20999908447266 -54.70100021362305,-65.4749984741211 -54.70100021362305,-58.516998291015625z M54.78200149536133,53.729000091552734 C54.78200149536133,46.617000579833984 49.80099868774414,40.80099868774414 39.82899856567383,36.33000183105469 C29.865999221801758,31.81800079345703 17.836999893188477,27.711000442504883 3.99399995803833,23.91200065612793 C3.99399995803833,23.91200065612793 3.99399995803833,82.60700225830078 3.99399995803833,82.60700225830078 C21.0049991607666,81.49700164794922 33.819000244140625,78.45099639892578 42.202999114990234,73.30799865722656 C50.50600051879883,68.32599639892578 54.78200149536133,61.7239990234375 54.78200149536133,53.729000091552734z"></path></g><g opacity="1" transform="matrix(1,0,0,1,4387.22900390625,1611.6309814453125)"><path fill="rgb(251,214,81)" fill-opacity="1" d=" M462.60101318359375,0.061000000685453415 C462.60101318359375,255.5290069580078 255.58900451660156,462.7019958496094 0,462.7019958496094 C-255.42599487304688,462.7019958496094 -462.6000061035156,255.5290069580078 -462.6000061035156,0.061000000685453415 C-462.6000061035156,-255.40699768066406 -255.42599487304688,-462.7019958496094 0,-462.7019958496094 C255.58900451660156,-462.7019958496094 462.60101318359375,-255.40699768066406 462.60101318359375,0.061000000685453415z"></path></g><g opacity="1" transform="matrix(1,0,0,1,4387.31005859375,1611.6929931640625)"><path fill="rgb(255,161,41)" fill-opacity="1" d=" M384.7650146484375,0 C384.7650146484375,212.31700134277344 212.38999938964844,384.6029968261719 -0.0820000022649765,384.6029968261719 C-212.552001953125,384.6029968261719 -384.7640075683594,212.31700134277344 -384.7640075683594,0 C-384.7640075683594,-212.552001953125 -212.552001953125,-384.6029968261719 -0.0820000022649765,-384.6029968261719 C212.38999938964844,-384.6029968261719 384.7650146484375,-212.552001953125 384.7650146484375,0z"></path></g><g opacity="1" transform="matrix(1,0,0,1,4387.34716796875,1611.635986328125)"><path fill="rgb(251,214,81)" fill-opacity="1" d=" M311.9469909667969,0.0560000017285347 C311.9469909667969,172.22799682617188 172.1750030517578,312.0480041503906 -0.11800000071525574,312.0480041503906 C-172.24899291992188,312.0480041503906 -311.9469909667969,172.22799682617188 -311.9469909667969,0.0560000017285347 C-311.9469909667969,-172.27000427246094 -172.24899291992188,-312.0480041503906 -0.11800000071525574,-312.0480041503906 C172.1750030517578,-312.0480041503906 311.9469909667969,-172.27000427246094 311.9469909667969,0.0560000017285347z"></path></g><g opacity="1" transform="matrix(1,0,0,1,4387.30615234375,1611.6109619140625)"><path fill="rgb(255,161,41)" fill-opacity="1" d=" M-29.586000442504883,197.56700134277344 C-50.46900177001953,196.93499755859375 -68.4280014038086,194.75599670410156 -84.16600036621094,190.95700073242188 C-99.7509994506836,187.4010009765625 -111.77300262451172,183.1320037841797 -120.63400268554688,178.34500122070312 C-120.63400268554688,178.34500122070312 -99.43599700927734,115.93199920654297 -99.43599700927734,115.93199920654297 C-92.86599731445312,120.0469970703125 -83.68900299072266,123.87799835205078 -71.74800109863281,127.44300079345703 C-60.196998596191406,130.9980010986328 -46.0369987487793,133.6479949951172 -29.586000442504883,135.0330047607422 C-29.586000442504883,135.0330047607422 -29.586000442504883,24.488000869750977 -29.586000442504883,24.488000869750977 C-40.89500045776367,19.57900047302246 -52.130001068115234,13.843999862670898 -63.20199966430664,7.638999938964844 C-74.2760009765625,1.5470000505447388 -84.16600036621094,-5.929999828338623 -92.86599731445312,-14.630000114440918 C-101.41200256347656,-23.451000213623047 -108.6050033569336,-33.77899932861328 -113.8290023803711,-45.880001068115234 C-119.20800018310547,-58.3380012512207 -121.74299621582031,-72.69200134277344 -121.74299621582031,-89.2239990234375 C-121.74299621582031,-120.55599975585938 -113.59400177001953,-144.84100341796875 -96.9000015258789,-161.96499633789062 C-80.60299682617188,-179.2519989013672 -57.97800064086914,-190.47799682617188 -29.586000442504883,-195.38699340820312 C-29.586000442504883,-195.38699340820312 -29.586000442504883,-245.06700134277344 -29.586000442504883,-245.06700134277344 C-29.586000442504883,-245.06700134277344 27.05900001525879,-245.06700134277344 27.05900001525879,-245.06700134277344 C27.05900001525879,-245.06700134277344 27.05900001525879,-197.63999938964844 27.05900001525879,-197.63999938964844 C42.95199966430664,-196.69200134277344 57.03799819946289,-194.3990020751953 68.90599822998047,-191.23199462890625 C80.69100189208984,-187.8699951171875 91.9990005493164,-184.15199279785156 102.125,-179.802001953125 C102.125,-179.802001953125 82.58699798583984,-119.84300231933594 82.58699798583984,-119.84300231933594 C76.34200286865234,-122.5739974975586 68.58899688720703,-125.53800201416016 59.25,-128.38099670410156 C49.60200119018555,-131.54800415039062 38.917999267578125,-133.5659942626953 27.05900001525879,-134.91099548339844 C27.05900001525879,-134.91099548339844 27.05900001525879,-32.62799835205078 27.05900001525879,-32.62799835205078 C38.2130012512207,-27.645999908447266 49.60200119018555,-21.91200065612793 61.15299987792969,-15.505000114440918 C72.30799865722656,-9.251999855041504 82.58699798583984,-1.4579999446868896 91.447998046875,7.079999923706055 C100.30999755859375,15.902000427246094 107.74600219726562,26.148000717163086 113.35900115966797,37.933998107910156 C118.89199829101562,49.638999938964844 121.74299621582031,63.757999420166016 121.74299621582031,80.05599975585938 C121.74299621582031,113.31600189208984 113.35900115966797,139.5850067138672 96.42900085449219,158.13400268554688 C79.58100128173828,176.91900634765625 56.40599822998047,188.9080047607422 27.05900001525879,194.4810028076172 C27.05900001525879,194.4810028076172 27.05900001525879,245.06700134277344 27.05900001525879,245.06700134277344 C27.05900001525879,245.06700134277344 -29.586000442504883,245.06700134277344 -29.586000442504883,245.06700134277344 C-29.586000442504883,245.06700134277344 -29.586000442504883,197.56700134277344 -29.586000442504883,197.56700134277344z M-50.78499984741211,-95.55899810791016 C-50.78499984741211,-84.5989990234375 -46.5890007019043,-75.46199798583984 -38.20500183105469,-68.18800354003906 C-29.424999237060547,-60.75199890136719 -19.06399917602539,-54.10100173950195 -6.086999893188477,-47.89699935913086 C-6.086999893188477,-47.89699935913086 -6.086999893188477,-136.49000549316406 -6.086999893188477,-136.49000549316406 C-23.179000854492188,-135.85800170898438 -35.03799819946289,-131.54800415039062 -41.29100036621094,-124.11299896240234 C-47.779998779296875,-116.44100189208984 -50.78499984741211,-106.86699676513672 -50.78499984741211,-95.55899810791016z M50.86600112915039,87.76599884033203 C50.86600112915039,76.25499725341797 46.28099822998047,66.69000244140625 37.02199935913086,59.36800003051758 C27.926000595092773,52.053001403808594 16.618000030517578,45.24800109863281 3.4790000915527344,39.198001861572266 C3.4790000915527344,39.198001861572266 3.4790000915527344,135.0330047607422 3.4790000915527344,135.0330047607422 C19.461000442504883,133.29100036621094 31.48200035095215,128.156005859375 39.242000579833984,120.0469970703125 C47.066001892089844,111.81700134277344 50.86600112915039,100.85700225830078 50.86600112915039,87.76599884033203z"></path></g></g><g opacity="1" transform="matrix(1,0,0,1,2056.048095703125,1670.876953125)"><path fill="rgb(244,194,150)" fill-opacity="1" d=" M937.4290161132812,-313.61199951171875 C937.4290161132812,-313.61199951171875 918.9990234375,-313.61199951171875 918.9990234375,-313.61199951171875 C926.8250122070312,-377.45001220703125 934.8200073242188,-440.13800048828125 942.572021484375,-499.5060119628906 C958.8619995117188,-624.8900146484375 983.3079833984375,-848.5960083007812 934.260986328125,-1069.531982421875 C687.218017578125,-957.7230224609375 359.6499938964844,-889.6160278320312 0.035999998450279236,-889.6160278320312 C-359.6499938964844,-889.6160278320312 -687.3790283203125,-957.7230224609375 -934.260009765625,-1069.531982421875 C-983.6240234375,-848.5960083007812 -958.8699951171875,-624.8900146484375 -942.6519775390625,-499.5060119628906 C-934.739013671875,-440.13800048828125 -926.8250122070312,-377.45001220703125 -919.072998046875,-313.61199951171875 C-919.072998046875,-313.61199951171875 -937.6630249023438,-313.61199951171875 -937.6630249023438,-313.61199951171875 C-1100.8599853515625,-434.4440002441406 -1114.541015625,-118.97699737548828 -1046.4339599609375,-11.194999694824219 C-989.7960205078125,77.91600036621094 -988.7680053710938,87.76699829101562 -954.7550048828125,185.97500610351562 C-929.52197265625,258.51300048828125 -887.9920043945312,268.0790100097656 -853.10400390625,260.13299560546875 C-848.6740112304688,303.2030029296875 -844.9550170898438,340.6990051269531 -842.2659912109375,370.3219909667969 C-827.31201171875,536.0859985351562 -428.7860107421875,868.2059936523438 -338.3699951171875,972.1500244140625 C-253.96499633789062,1069.531982421875 -112.75900268554688,1031.678955078125 -67.51200103759766,1029.5400390625 C-21.71299934387207,1027.4110107421875 0.035999998450279236,1026.3809814453125 0.035999998450279236,1026.3809814453125 C0.035999998450279236,1026.3809814453125 21.71299934387207,1027.4110107421875 67.43900299072266,1029.5400390625 C112.68699645996094,1031.678955078125 253.88400268554688,1069.531982421875 338.3689880371094,972.1500244140625 C428.7850036621094,868.2059936523438 827.1580200195312,536.0859985351562 842.10400390625,370.3219909667969 C844.9539794921875,340.6990051269531 848.9080200195312,303.2030029296875 853.0239868164062,260.13299560546875 C887.9840087890625,268.0790100097656 929.5139770507812,258.51300048828125 954.5919799804688,185.97500610351562 C988.8489990234375,87.76699829101562 989.9500122070312,77.91600036621094 1046.280029296875,-11.194999694824219 C1114.541015625,-118.97699737548828 1100.5439453125,-434.4440002441406 937.4290161132812,-313.61199951171875z"></path></g></g></g></svg>
