<svg width="42" height="40" viewBox="0 0 42 40" fill="none" xmlns="http://www.w3.org/2000/svg">
<path fill-rule="evenodd" clip-rule="evenodd" d="M21.6211 0.433901C21.4261 0.345207 21.2143 0.299316 21.0001 0.299316C20.7859 0.299316 20.5741 0.345207 20.3791 0.433901L12.5101 4.0159L20.9941 7.8799L29.4841 4.0129L21.6211 0.433901ZM11.1001 15.8299V6.6679L19.5001 10.4929V20.6179L11.9731 17.1949C11.7111 17.0757 11.4888 16.8836 11.333 16.6416C11.1771 16.3996 11.0942 16.1178 11.0941 15.8299H11.1001ZM22.5001 35.9659V25.9459L30.4561 29.5699V39.6949L22.9381 36.2719C22.7739 36.1972 22.6275 36.0936 22.5001 35.9659ZM33.4561 39.7009V29.5699L41.8651 25.7419V34.9069C41.865 35.1948 41.7821 35.4766 41.6263 35.7186C41.4704 35.9606 41.2482 36.1527 40.9861 36.2719L33.4561 39.7009ZM19.4941 25.9459V35.9779C19.3693 36.1001 19.2241 36.1996 19.0651 36.2719L11.5351 39.7009V29.5699L19.4941 25.9459ZM8.53511 29.5699V39.6949L1.02011 36.2719C0.75806 36.1527 0.535839 35.9606 0.379976 35.7186C0.224113 35.4766 0.141193 35.1948 0.141113 34.9069V25.7449L8.54111 29.5699H8.53511ZM22.4941 20.6239V10.4899L30.9031 6.6619V15.8299C30.903 16.1178 30.8201 16.3996 30.6643 16.6416C30.5084 16.8836 30.2862 17.0757 30.0241 17.1949L22.4941 20.6239ZM31.3381 19.5139C31.5331 19.4252 31.7449 19.3793 31.9591 19.3793C32.1733 19.3793 32.3851 19.4252 32.5801 19.5139L40.4401 23.0899L31.9501 26.9569L23.4751 23.0899L31.3411 19.5079L31.3381 19.5139ZM9.42011 19.5139C9.61513 19.4252 9.82688 19.3793 10.0411 19.3793C10.2553 19.3793 10.4671 19.4252 10.6621 19.5139L18.5221 23.0899L10.0351 26.9599L1.55411 23.0899L9.42011 19.5139Z" fill="#0758A4"/>
</svg>
