<svg width="16" height="16" viewBox="0 0 16 16" fill="none" xmlns="http://www.w3.org/2000/svg">
<path d="M0.332882 11.1499L0.410885 4.68421C0.4406 2.2211 2.46602 0.243973 4.92913 0.273689L11.3948 0.351692C12.5788 0.365976 13.7087 0.850028 14.5358 1.69736C15.3629 2.5447 15.8196 3.68591 15.8053 4.86994L15.7273 11.3356C15.6976 13.7987 13.6722 15.7758 11.2091 15.7461L4.74341 15.6681C3.55938 15.6538 2.42952 15.1698 1.60239 14.3224C0.775251 13.4751 0.318597 12.3339 0.332882 11.1499ZM1.87047 11.3224C1.8616 12.0573 2.14504 12.7656 2.65843 13.2916C3.17183 13.8175 3.87312 14.118 4.60803 14.1268L11.3816 14.2085C12.9133 14.227 14.1675 13.0027 14.186 11.471L14.2677 4.69742C14.2766 3.9625 13.9932 3.25417 13.4798 2.72824C12.9664 2.2023 12.2651 1.90186 11.5302 1.89299L4.75661 1.81127C3.22487 1.79279 1.97066 3.0171 1.95218 4.54884L1.87047 11.3224ZM3.11466 3.90851C3.11774 3.65333 3.22206 3.40982 3.40468 3.23156C3.58729 3.0533 3.83324 2.95488 4.08842 2.95796C4.3436 2.96104 4.5871 3.06536 4.76536 3.24798C4.94363 3.43059 5.04204 3.67654 5.03896 3.93172C5.03589 4.1869 4.93156 4.43041 4.74895 4.60867C4.56633 4.78693 4.32038 4.88534 4.0652 4.88227C3.81003 4.87919 3.56652 4.77487 3.38826 4.59225C3.21 4.40964 3.11158 4.16369 3.11466 3.90851ZM4.22049 7.96347C4.2328 6.94276 4.65009 5.96874 5.38055 5.2557C6.11101 4.54265 7.09481 4.14898 8.11553 4.1613C9.13624 4.17361 10.1103 4.5909 10.8233 5.32136C11.5364 6.05182 11.93 7.03562 11.9177 8.05634C11.9054 9.07705 11.4881 10.0511 10.7576 10.7641C10.0272 11.4772 9.04338 11.8708 8.02267 11.8585C7.00195 11.8462 6.02794 11.4289 5.31489 10.6984C4.60184 9.96799 4.20818 8.98419 4.22049 7.96347ZM5.75993 7.98205C5.75254 8.59447 5.98874 9.18475 6.41657 9.62303C6.8444 10.0613 7.42881 10.3117 8.04124 10.3191C8.65367 10.3265 9.24395 10.0903 9.68222 9.66243C10.1205 9.2346 10.3709 8.65019 10.3783 8.03776C10.3857 7.42533 10.1495 6.83505 9.72162 6.39678C9.29379 5.9585 8.70938 5.70813 8.09696 5.70074C7.48453 5.69335 6.89425 5.92955 6.45597 6.35738C6.01769 6.78521 5.76732 7.36962 5.75993 7.98205Z" fill="white"/>
</svg>
