<svg width="77" height="65" viewBox="0 0 77 65" fill="none" xmlns="http://www.w3.org/2000/svg">
<path d="M60.5468 0.804321C56.9642 0.804321 53.722 4.66252 53.722 9.82084C53.722 14.9921 56.9642 18.8503 60.5468 18.8503C64.1294 18.8503 67.3716 14.9921 67.3716 9.82084C67.3716 4.66252 64.1294 0.804321 60.5468 0.804321ZM16.4693 0.820533C12.8802 0.820533 9.62988 4.67874 9.62988 9.82084C9.62988 14.9921 12.8802 18.8503 16.4693 18.8503C20.0681 18.8503 23.3103 14.9921 23.3103 9.82084C23.3103 4.67874 20.0681 0.820533 16.4693 0.820533ZM10.4566 19.6123C6.4039 20.9091 1.92968 25.0429 0.827338 29.6468L0.243744 42.5669C0.227533 44.4474 2.36738 47.2357 6.20937 46.3117C14.6374 44.3015 19.0306 42.0968 25.4015 39.5841L24.6072 35.7746C18.9982 37.7523 12.5722 40.3136 6.07968 40.9458L6.258 27.9933L9.17597 28.0257L9.06249 37.4443C13.4054 36.6499 19.3548 34.5263 24.0074 32.9052L22.9861 27.9447L25.8392 27.3611C27.0064 33.0025 27.9304 37.4443 29.0976 43.2316C27.59 43.1019 26.4066 43.0046 24.9314 42.9074C22.1107 44.0583 19.5656 45.1607 16.7124 46.2306C20.2951 46.9277 23.7804 47.5275 26.6011 47.5923C29.0165 47.641 30.8322 47.2195 31.7238 46.49C32.6154 45.7605 33.0693 44.6581 32.5505 42.0806C31.4644 36.7148 30.6538 31.4949 29.1624 27.4746C27.671 23.4218 25.6771 20.747 22.0296 19.6609C20.4896 20.9902 18.5767 21.7683 16.4693 21.7683C14.1349 21.7359 12.7667 21.0388 10.4566 19.6123ZM66.5449 19.6123C64.2429 21.0388 62.8812 21.7359 60.5468 21.7683C58.4556 21.7683 56.5427 20.9902 55.0027 19.6609C51.3552 20.747 49.3613 23.4218 47.8699 27.4746C46.3784 31.4949 45.5679 36.7148 44.4818 42.0806C43.963 44.6581 44.4169 45.7605 45.3085 46.49C46.2001 47.2195 48.0158 47.641 50.4312 47.5923C53.2519 47.5275 56.7372 46.9277 60.3199 46.2306C57.4667 45.1607 54.9216 44.0583 52.1009 42.9074C50.6257 43.0046 49.4423 43.1019 47.9347 43.2316C49.1019 37.4443 50.0259 33.0025 51.1931 27.3611L54.0462 27.9447L53.0249 32.9052C57.6775 34.5425 63.6107 36.6662 67.939 37.4605L67.8255 28.0419L70.7435 28.0095L70.9218 40.9621C64.4374 40.3298 58.0341 37.7685 52.4251 35.7908L51.6308 39.6003C58.0017 42.113 62.3787 44.3177 70.7921 46.3279C74.6341 47.2519 76.774 44.4636 76.7578 42.5831L76.1742 29.663C75.0718 25.0429 70.5976 20.9091 66.5449 19.6123ZM11.097 48.0462C9.38671 48.5488 7.37656 49.1486 5.47988 49.3917L5.88515 64.1923H24.4775L24.8827 50.413C20.6031 50.0888 15.6425 48.9703 11.097 48.0462ZM65.9126 48.0462C61.3736 48.9703 56.4292 50.0888 52.1495 50.413L52.5548 64.1923H71.1163L71.5216 49.3917C69.6249 49.1486 67.6148 48.5488 65.9126 48.0462Z" fill="white"/>
</svg>
