
<svg width="499" height="284" viewBox="0 0 499 284" fill="none" xmlns="http://www.w3.org/2000/svg">
<path d="M316.284 147.262L318.527 150.673L321.51 150.437L323.97 149.368L324.3 150.033L326.307 150.567L328.997 148.032L331.215 147.237L335.534 147.547L339.194 149.362L341.517 152.605L343.114 152.667L347.694 156.458L348.439 156.495L350.08 155.607L357.71 162.143L358.679 164.163L358.754 166.095L361.923 171.259L362.066 172.445L361.289 173.589L361.426 174.272L366.03 176.173L368.161 176.347L367.26 179.989L365.166 181.666L366.894 187.582L366.745 189.408L361.96 189.887L360.587 191.608L359.742 194.243L357.859 196.896L356.989 199.12L355.001 199.947L353.51 201.351L353.914 208.77L349.937 211.56L348.371 211.231L347.047 211.815L347.029 213.859L345.506 216.164L341.872 215.574L340.616 215.779L338.709 215.263L336.901 214.12L333.291 213.225L330.55 211.815L322.541 209.161L318.974 206.564L318.403 201.972L318.844 200.81L317.943 199.58L316.862 194.789L315.899 193.248L312.158 192.758L305.976 190.154L301.694 191.304L299.961 192.372L297.637 191.229L296.09 193.366L294.518 193.174L293.735 192.639L291.815 192.919L290.715 192.161L290.466 190.651L288.77 189.924L288.236 189.141L285.564 189.707L280.432 188.663L280.245 187.749L281.817 185.736L281.314 184.723L281.594 183.841L283.364 181.865L285.657 184.003L286.981 183.816L288.932 182.617L289.155 181.418L287.994 175.366L289.379 173.222L291.908 170.948L292.442 168.487L293.586 167.512L294.375 164.256L295.767 163.628L296.773 164.007L297.941 163.634L298.575 163.852L299.34 162.342L301.359 160.764L301.657 156.464L302.384 154.6L304.478 153.245L305.46 151.636L305.851 149.325L307.088 148.032L310.021 147.013L312.369 147.715L315.246 146.522L316.284 147.262Z" fill="#FF6464" stroke="#707070"/>
<path d="M93.0356 92.3024L94.4088 92.7498L93.1412 95.3657L93.4333 96.9191L94.5269 97.2422L95.8007 98.4228L99.4977 97.3106L101.325 97.7766L102.555 99.9452L108.085 100.641L109.234 102.207L111.142 103.313L113.714 101.66L115.572 102.257L117.66 101.604L118.903 100.361L120.593 100.455L123.569 102.555L125.452 102.772L127.186 101.84L127.931 99.4978L129.944 96.7452L137.662 92.3459L141.502 92.9424L144.72 92.8803L145.429 93.4395L144.907 94.5331L144.795 100.405L146.056 101.399L150.238 100.082L154.817 101.455L151.661 103.307L151.419 107.389L149.828 109.172L144.223 112.205L141.278 116.107L138.886 115.74L137.276 117.84L137.649 120.537L136.177 121.55L132.809 122.855L131.293 127.875L124.023 126.154L122.525 126.061L121.208 126.726L120.444 129.534L121.711 132.399L121.929 135.027L120.406 137.755L118.542 139.383L119.518 142.055L119.419 143.391L116.156 147.299L114.541 147.237L110.166 144.205L107.196 143.161L105.214 145.019L105.326 145.677L104.543 147.311L104.661 148.293L106.83 150.238L107.749 151.642L110.241 151.394L111.9 152.146L111.981 152.773L113.137 153.699L114.41 153.861L115.467 154.687L115.852 156.197L120.873 158.775L121.736 160.745L123.849 163.454L128.801 164.927L129.323 167.226L130.591 167.45L131.529 168.537L131.485 170.842L132.163 171.681L131.989 173.893L129.137 173.321L127.763 173.887L125.526 173.999L123.874 175.111L117.89 174.881L114.988 179.622L112.59 179.529L109.21 176.801L107.47 176.466L100.964 170.501L99.0255 170.389L96.8445 169.537L87.6235 164.132L87.7602 161.87L86.3622 160.745L85.6849 158.943L84.3987 157.943L81.4783 157.794L80.9936 158.334L81.3664 159.714L77.7129 160.391L78.2659 158.906L77.7004 159.036L76.961 158.415L78.1851 157.943L77.7626 155.812L72.8725 150.356L72.6674 147.287L71.3563 145.074L64.4965 143.67L62.2596 142.266L63.8193 140.11L64.1734 138.097L66.0686 136.935L69.1257 134.083L71.3874 131.255L71.9342 129.273L76.4577 124.222L76.2092 122.289L73.7734 118.095L72.9408 115.603L72.2449 111.36L70.8841 111.72L69.3431 114.342L67.2989 112.969L67.274 111.055L63.2973 110.061L59.9109 108.377L57.761 104.81L62.4274 103.269L64.4965 103.238L71.462 107.37L76.5323 107.799L79.8192 107.072L80.8445 108.346L82.6029 107.569L84.1688 107.718L85.4923 107.265L87.6732 111.509L91.4325 115.454L91.7928 116.939L93.0418 117.511L94.6511 116.989L93.9925 114.845L92.5944 113.77L91.8736 111.558L88.4624 107.631L87.8969 105.581L85.7967 103.307L85.7781 99.1001L88.0274 96.043L93.1412 92.9424L93.0356 92.3024Z" fill="#E3E3E3" stroke="#707070"/>
<path d="M241.851 79.608L242.15 79.7261L241.92 81.1117L243.106 81.8325L244.585 81.0807L246.188 82.0313L247.903 81.7642L250.376 84.4049L252.7 84.9144L253.98 85.6974L254.067 86.2752L252.321 88.071L251.656 94.4772L249.221 97.5094L249.6 98.9634L252.253 101.871L252.34 102.667L251.439 104.568L251.016 108.725L248.991 109.359L243.958 114.479L242.783 114.671L240.522 113.193L238.676 113.36L238.347 116.069L237.527 117.474L234.842 119.586L231.363 121.357L231.406 123.327L232.146 124.626L233.519 125.57L234.612 128.136L234.24 128.994L232.842 128.59L230.723 129.783L230.574 130.671L231.667 132.946L231.673 134.344L229.057 136.388L226.261 139.52L225.18 142.57L224.167 142.862L223.701 144.105L226.404 145.255L227.809 146.889L228.939 149.983L228.722 151.002L231.294 152.661L231.176 153.326L229.958 155.296L228.685 154.451L227.423 154.712L226.74 156.582L227.218 157.278L226.833 159.931L225.044 161.652L224.801 162.889L225.311 163.423L224.957 166.648L223.086 169.003L220.856 170.184L217.954 169.165L217.407 169.078L216.27 165.238L215.506 164.455L213.474 163.777L212.362 162.808L209.907 163.498L207.465 162.286L205.378 159.241L204.402 159.409L201.823 157.731L199.195 157.253L198.3 156.284L199.76 154.177L199.997 152.686L199.642 152.058L196.803 152.189L195.871 151.375L194.274 152.214L192.72 152.046L188.433 153.146L186.525 153.053L186.488 151.841L183.568 148.523L178.945 145.926L176.621 142.887L175.503 142.111L174.651 140.215L173.266 138.718L173.222 137.798L174.8 137.488L174.403 136.388L173.377 135.735L173.017 134.884L173.738 134.145L175.378 133.641L176.397 132.007L179.386 132.604L180.032 131.293L179.349 129.652L178.417 128.994L179.703 127.807L183.667 128.099L186.482 127.142L187.737 126.142L188.831 125.011L190.272 121.121L189.713 119.537L189.968 119.276L190.527 118.698L192.963 120.357L195.287 120.643L196.374 121.239L197.896 121.121L202.451 119.673L204.943 118.058L208.298 117.07L210.734 115.771L210.833 112.751L211.852 110.036L218.867 101.337L218.861 97.0061L219.545 94.6076L220.234 93.6134L221.986 93.309L222.987 91.0037L222.626 89.9847L220.464 87.7292L221.334 86.6045L222.341 86.2006L224.888 83.9389L228.939 84.4608L229.996 84.0259L231.816 81.3105L234.507 79.7634L237.036 79.1855L238.931 79.7012L240.379 79.0302L241.851 79.608Z" fill="#E3E3E3" stroke="#707070"/>
<path d="M257.932 106.985L258.678 107.314L259.585 109.11L261.126 109.489L263.083 110.775L266.432 111.223L268.079 112.857L268.613 114.156L268.495 115.461L267.694 117.02L267.607 119.195L269.427 118.673L271.44 120.009L273.404 120.549L276.051 120.164L279.058 119.008L283.103 120.462L283.401 122.016L284.949 124.818L283.93 127.248L284.191 127.807L287.186 128.913L292.169 129.323L294.424 130.895L295.767 129.683L299.314 127.72L301.775 128.596L302.999 128.397L305.441 125.377L307.417 123.836L311.095 123.308L312.301 124.209L314.867 127.447L314.202 128.608L314.463 131.423L313.817 131.883L312.512 136.885L311.624 138.581L310.021 147.013L307.088 148.032L305.851 149.325L305.46 151.636L304.478 153.245L302.384 154.6L301.657 156.464L301.359 160.764L299.339 162.342L298.575 163.852L297.941 163.635L296.773 164.007L295.767 163.628L294.375 164.256L293.586 167.512L292.442 168.487L291.908 170.948L289.379 173.222L287.993 175.366L289.155 181.418L288.932 182.617L286.981 183.816L285.657 184.003L283.364 181.865L280.711 178.392L278.226 178.609L276.306 180.25L274.292 181.231L273.913 181.958L268.88 183.605L270.21 187.383L270.005 187.868L264.922 186.886L263.574 188.215L261.803 186.047L261.262 183.493L259.299 181.039L253.377 180.871L248.115 180.045L244.591 180.473L236.992 179.094L230.412 179.169L228.573 177.64L225.286 176.683L222.987 176.484L220.918 177.416L217.525 175.583L215.947 175.248L209.304 175.813L207.975 175.291L207.875 174.664L209.311 173.322L215.791 172.06L216.767 171.451L217.954 169.165L220.855 170.184L223.086 169.003L224.956 166.648L225.311 163.423L224.801 162.889L225.043 161.652L226.833 159.931L227.218 157.278L226.74 156.582L227.423 154.712L228.685 154.451L229.958 155.296L231.176 153.326L231.294 152.661L228.722 151.002L228.939 149.983L227.808 146.889L226.404 145.255L223.701 144.105L224.167 142.863L225.18 142.57L226.261 139.52L229.057 136.388L231.673 134.344L231.667 132.946L230.573 130.671L230.723 129.783L232.841 128.59L234.24 128.994L234.612 128.136L233.519 125.57L232.146 124.626L231.406 123.327L231.363 121.357L234.842 119.586L237.526 117.474L238.347 116.069L238.676 113.36L240.521 113.193L242.783 114.671L243.958 114.479L248.991 109.359L251.016 108.725L251.967 108.974L254.148 107.905L257.932 106.985Z" fill="#E3E3E3" stroke="#707070"/>
<path d="M378.034 171.433L383.67 171.737L385.764 173.918L388.809 172.514L390.188 172.421L390.468 172.719L388.834 175.142L389.747 176.261L390.424 176.267L393.053 174.552L395.743 175.714L396.508 174.173L395.93 173.191L398.129 175.931L398.968 178.727L398.285 180.163L398.055 182.779L399.652 187.153L399.422 190.011L397.39 191.273L394.382 192.329L393.115 195.299L390.424 198.53L389.871 199.878L387.746 201.103L385.031 204.396L384.124 206.365L381.172 208.838L378.836 212.672L378.911 216.22L379.731 218.426L378.153 221.576L378.842 222.247L381.303 222.496L388.051 227.355L386.622 231.785L387.001 233.606L386.765 234.948L387.523 236.526L386.193 242.075L385.373 242.877L382.552 243.715L381.309 245.387L379.607 246.679L377.109 246.866L373.971 245.387L373.188 245.722L373.834 251.731L373.169 255.161L374.039 257.702L375.493 258.56L376.556 260.884L374.673 264.748L374.381 264.469L372.237 265.37L372.281 263.847L369.025 262.673L367.993 261.666L365.669 261.144L364.501 261.865L362.134 261.629L360.966 262.288L360.22 264.605L358.263 265.071L356.653 266.811L356.181 266.681L354.957 267.731L354.354 267.712L354.876 266.246L354.578 265.096L353.267 264.779L353.242 265.488L352.509 265.444L351.527 263.953L349.489 263.506L347.557 262.238L347.482 261.269L346.749 260.15L346.942 257.224L347.439 256.254L347.103 255.571L347.47 252.408L346.88 250.923L343.928 249.009L341.803 248.438L341.43 247.133L340.647 247.021L339.734 248.171L338.448 248.767L338.236 248.096L337.715 247.99L337.168 249.27L336.658 249.134L336.41 249.743L335.807 249.5L334.434 251.172L333.116 251.178L332.837 252.265L331.843 251.892L331.65 252.7L330.538 253.266L327.524 252.663L325.555 254.72L324.616 254.552L323.082 256.018L324.622 250.401L327.804 245.766L328.879 243.05L328.929 240.739L328.065 238.26L328.991 235.476L333.179 231.344L332.967 229.99L334.347 225.46L334.26 224.143L333.303 221.906L332.153 220.551L331.029 220.01L330.295 217.556L330.587 216.239L333.29 213.225L336.9 214.12L338.709 215.263L340.616 215.779L341.871 215.574L345.506 216.164L347.029 213.859L347.047 211.815L348.371 211.231L349.937 211.56L353.913 208.77L353.509 201.351L355.001 199.947L356.989 199.12L357.859 196.896L359.742 194.243L360.587 191.608L361.96 189.887L366.744 189.409L366.894 187.582L365.166 181.666L367.26 179.989L368.161 176.348L370.336 175.608L371.877 174.31L371.026 172.706L370.671 170.849L368.963 169.214L368.565 167.294L368.988 163.181L370.417 162.355L374.319 158.372L374.89 158.8L374.903 159.944L377.047 163.2L375.841 164.797L376.574 169.351L377.301 170.923L378.034 171.433Z" fill="#E3E3E3" stroke="#707070"/>
<path d="M98.0251 0.89447L98.951 1.65874L101.231 2.08127L103.164 3.44204L105.587 4.13797L117.169 6.29408L120.338 7.61758L123.178 7.20748L127.906 7.74185L129.311 8.28243L129.652 8.86651L128.608 10.3391L129.652 15.0242L132.076 17.2487L132.691 18.8393L132.709 20.1753L131.336 23.7232L132.014 24.705L137.003 26.743L139.004 26.9481L140.017 27.8801L143.478 29.1166L144.745 29.0669L146.267 30.3345L147.529 30.1419L149.325 30.8502L150.331 30.6762L151.518 32.3788L155.383 34.4603L156.663 35.9205L156.918 37.2751L160.304 40.7671L162.709 42.4386L164.281 44.7065L164.504 46.0549L165.716 47.919L169.773 49.665L171.37 51.5166L172.073 51.9019L176.055 52.0634L179.125 53.9337L180.635 53.9399L182.331 54.7663L185.649 57.1089L189.669 57.6246L190.676 59.091L192.596 59.0537L195.535 60.3834L196.486 61.8312L196.535 64.6708L200.798 66.1248L201.227 66.7337L200.984 69.2751L205.036 73.1462L205.645 75.2153L207.198 77.0669L208 80.9069L210.653 82.5287L212.685 85.679L214.48 87.1765L218.911 89.2456L220.017 88.792L220.464 87.7295L222.626 89.985L222.987 91.004L221.986 93.3093L220.234 93.6138L219.544 94.6079L218.861 97.0064L218.867 101.337L211.852 110.036L210.833 112.752L210.734 115.771L208.298 117.07L204.942 118.058L202.451 119.674L197.896 121.121L196.374 121.239L195.286 120.643L192.963 120.357L190.527 118.698L189.968 119.276L185.264 116.828L182.872 116.318L178.044 113.777L174.695 113.348L171.625 114.001L170.121 113.354L168.699 113.696L162.895 111.049L163.106 108.278L161.23 106.302L159.173 103.114L156.582 102.524L154.817 101.455L150.238 100.082L146.056 101.399L144.795 100.405L144.907 94.5334L145.429 93.4398L144.72 92.8805L141.502 92.9427L137.662 92.3462L129.944 96.7454L127.931 99.498L127.186 101.841L125.452 102.773L123.569 102.555L120.593 100.455L118.903 100.362L117.66 101.604L115.572 102.257L113.714 101.66L111.142 103.313L109.234 102.207L108.085 100.641L102.555 99.9454L101.325 97.7769L99.4977 97.3108L95.8006 98.4231L94.5268 97.2425L93.4333 96.9194L93.1412 95.366L94.4088 92.75L93.0356 92.3027L91.6189 91.992L89.5249 90.0968L88.7171 88.4565L89.1334 83.6844L88.1206 82.8207L87.6732 81.6774L89.2515 79.7201L94.4709 75.1718L96.801 75.1097L98.5719 77.0483L98.8391 78.7695L99.8394 79.192L103.984 77.3341L106.109 75.557L108.029 72.8852L108.613 70.4992L107.271 65.2176L106.314 64.0557L106.072 58.1279L104.767 56.9722L102.741 56.7982L102.101 52.9271L102.257 51.3862L104.493 49.8514L105.065 48.3291L104.904 46.757L105.742 43.0413L106.618 41.9912L107.352 41.9104L107.669 39.0708L107.302 37.0203L102.008 36.2188L100.952 34.858L99.1684 34.3236L94.8002 35.7527L92.6131 35.585L90.0344 37.1632L89.1521 37.157L87.5676 37.971L87.1451 34.218L87.3315 31.6021L86.2379 30.378L83.7338 29.185L81.9381 30.6203L80.4593 30.6576L78.9742 29.3465L76.9734 29.1166L74.5315 27.0786L75.1715 23.5555L75.0348 21.0576L76.7 20.4425L79.5521 20.5294L82.7024 16.0494L82.7769 13.5019L84.0072 9.7675L82.6837 6.40594L82.5035 4.4238L83.1808 2.55973L85.3369 1.73332L88.3567 1.47856L89.121 1.87623L90.575 4.07584L94.0857 5.10109L94.6387 1.20516L98.0251 0.89447Z" fill="#E3E3E3" stroke="#707070"/>
<path d="M433.236 181.958L439.456 182.642L441.687 180.902L446.173 181.822L450.765 180.287L451.504 180.678L450.87 181.505L451.125 181.859L453.474 182.3L456.705 181.219L459.371 179.467L460.595 179.175L461.266 179.709L461.384 182.567L462.602 183.12L464.919 181.61L467.417 180.915L466.411 187.992L464.975 190.223L463.571 191.068L463.217 192.478L462.44 193.435L461.371 192.273L460.495 192.037L459.52 193.367L458.992 196.939L458.395 198.182L455.493 199.91L453.897 210.435L454.145 214.648L456.165 216.929L457.078 219.24L459.831 220.843L464.143 221.166L466.79 221.831L471.214 223.95L471.854 224.783L469.306 227.51L468.71 228.871L466.721 230.704L461.968 233.214L458.812 237.148L458.283 239.453L456.351 241.976L457.805 245.263L457.488 246.754L460.669 248.115L461.465 248.73L461.968 249.929L463.577 250.438L467.082 252.588L467.393 253.875L466.796 257.578L464.752 263.4L465.566 266.942L464.578 267.855L465.578 273.963L466.889 276.89L466.2 276.896L466.168 278.207L464.516 278.928L464.596 279.792L462.235 279.928L461.937 280.593L460.775 280.494L460.551 279.723L458.638 278.959L458.29 278.039L454.878 276.797L452.983 276.61L450.902 277.878L448.46 278.033L447.323 278.797L446.447 280.282L446.602 281.979L445.558 282.805L443.868 281.208L443.234 281.569L442.457 281.028L441.01 281.078L440.705 278.586L438.798 278.362L438.033 279.002L437.71 278.412L436.176 278.344L436.368 278.978L434.33 278.903L430.353 275.753L429.117 266.631L427.489 266.581L427.508 267.545L425.675 270.21L423.885 270.602L423.344 271.186L421.362 271.347L421.114 268.682L421.94 266.041L424.575 261.915L426.283 260.355L429.782 255.397L435.032 250.252L436.064 248.804L436.586 246.095L435.448 244.691L433.715 244.38L428.98 245.598L425.755 247.723L424.189 246.251L423.587 245.082L424.233 242.373L422.816 239.527L422.729 234.271L420.325 232.531L420.008 231.207L421.369 227.038L421.244 225.118L420.418 224.292L419.958 222.055L421.132 221.291L422.443 221.346L424.811 218.755L422.916 218.159L422.984 215.99L420.958 213.753L420.337 210.193L422.468 207.092L423.413 198.779L425.078 195.411L425.314 191.484L426.203 189.39L424.165 187.209L424.413 185.923L426.221 183.499L424.009 177.59L424.413 173.353L426.582 173.34L429.148 175.347L430.975 177.584L433.528 178.783L434.38 180.001L432.988 181.43L433.236 181.958Z" fill="#E3E3E3" stroke="#707070"/>
<path d="M186.525 153.053L188.433 153.146L192.72 152.046L194.274 152.214L195.871 151.375L196.803 152.189L199.642 152.059L199.996 152.686L199.76 154.177L198.3 156.284L199.195 157.253L201.823 157.732L204.402 159.409L205.377 159.241L207.465 162.286L209.907 163.498L212.361 162.808L213.474 163.777L215.506 164.455L216.27 165.238L217.407 169.078L217.954 169.165L216.767 171.451L215.791 172.06L209.311 173.321L207.875 174.664L207.975 175.291L209.304 175.813L215.947 175.248L217.525 175.583L220.918 177.416L222.987 176.484L225.286 176.683L228.573 177.64L230.412 179.168L236.992 179.094L244.591 180.473L248.114 180.045L253.377 180.871L259.299 181.039L261.262 183.493L261.803 186.047L263.574 188.215L264.922 186.886L270.005 187.867L269.645 188.955L267.7 190.974L265.469 191.801L264.556 191.111L258.56 193.895L257.746 194.814L256.018 195.324L255.701 196.076L253.539 196.933L252.135 199.897L250.979 201.034L248.282 201.581L238.235 202.171L237.645 202.581L237.682 203.271L240.323 204.01L239.105 205.651L238.241 208.049L237.495 207.67L236.24 208.279L233.736 208.621L232.301 207.863L231.723 208.472L231.456 209.503L234.469 212.647L233.264 214.779L230.623 212.716L217.811 206.278L204.899 205.645L204.402 205.819L204.483 206.44L205.185 207.279L204.215 209.031L205.098 209.957L205.129 211.081L204.464 211.746L204.234 212.852L203.209 213.356L203.165 214.064L202.19 215.089L199.394 215.822L197.368 214.629L196.834 213.61L196.983 212.306L193.534 209.795L192.894 208.528L191.589 207.353L183.58 207.683L181.753 207.36L177.298 206.011L176.633 204.545L175.807 204.079L173.216 204.377L170.625 204.023L169.245 204.421L164.573 204.048L164.343 203.147L165.045 202.494L164.535 200.767L165.38 198.4L164.33 196.411L164.716 195.088L164.038 194.435L164.032 193.659L163.255 193.491L163.001 192.987L163.218 191.186L162.553 189.713L162.852 188.445L162.081 189.048L162.013 187.942L163.1 187.041L167.953 187.756L169.568 186.376L171.265 186.066L172.128 184.854L171.172 184.27L169.376 184.108L167.12 182.567L168.779 178.224L171.184 176.733L173.899 176.944L177.882 175.658L182.605 175.434L182.617 173.98L181.492 172.389L178.727 170.687L179.386 166.163L182.312 163.374L183.537 162.883L185.034 161.155L182.735 159.639L182.89 156.793L182.151 156.01L183.742 154.563L186.01 153.805L186.525 153.053Z" fill="#E3E3E3" stroke="#707070"/>
<path d="M54.1198 18.392L56.2386 17.9508L56.8227 17.404L57.618 17.6899L59.7244 16.9256L62.2906 16.8386L63.9373 18.5287L65.1551 20.6289L64.3722 22.493L64.4281 24.8914L65.2607 26.0223L66.2239 26.2398L64.0553 27.3272L63.1606 28.514L61.4083 29.1477L60.3147 30.1481L58.7489 34.7648L59.5877 36.834L61.4207 39.0336L61.5202 41.345L62.8872 42.9109L63.5147 45.7194L62.1167 48.3664L56.7357 49.7147L53.051 49.8639L45.1225 53.4864L45.8619 56.5435L45.5947 59.2153L44.787 61.0421L43.6126 61.3652L43.8984 63.2169L46.1291 64.7454L46.3901 66.8891L49.1054 66.8332L50.578 67.7777L51.3112 68.778L51.6219 70.4681L50.1679 73.1711L48.4903 74.538L45.8743 74.8798L43.625 76.2965L44.1532 79.7947L42.227 83.5043L40.773 84.865L40.3753 86.3439L32.9625 89.7862L32.0988 92.5015L30.3404 93.4522L31.1357 95.1796L29.166 100.834L28.9858 102.207L29.4207 103.661L28.5508 111.689L30.9182 117.561L31.2103 119.587L30.7007 122.06L28.178 123.743L28.9237 129.696L29.6755 130.467L29.0479 131.231L27.0161 129.416L25.9411 129.118L26.0654 128.192L25.5621 126.894L23.8906 125.707L20.5042 126.204L19.6716 125.856L19.2242 124.719L17.4223 123.675L16.8382 121.606L14.1974 120.699L13.1349 119.655L13.6506 118.356L13.1287 117.667L9.98461 117.213L5.26228 112.901L2.13684 112.801L1.41607 112.41L0.999756 111.298L1.17995 106.203L3.37335 101.853L4.50422 101.586L4.76519 100.393L5.70345 100.126L5.06966 99.5726L5.05102 98.1621L5.865 96.6709L5.41141 95.5276L6.38694 93.2907L8.44364 91.3831L10.4941 92.2779L11.7617 92.3089L12.5198 91.2713L13.7935 90.5319L13.166 89.1152L13.2033 87.5431L12.3706 86.493L12.5943 85.3311L13.0541 85.3746L13.2405 85.9276L14.3901 86.1451L14.8934 86.959L15.5334 86.7726L15.2475 84.2251L15.6514 83.8025L15.8751 80.8884L16.571 79.7326L16.4033 78.1357L15.1916 77.8375L15.0611 76.893L14.4957 76.6569L14.3838 75.6192L13.8805 75.1781L14.2285 74.5629L14.011 73.1462L12.2588 72.1707L12.0972 69.8965L12.1407 69.5423L14.185 68.7346L14.6386 69.4118L15.552 69.2192L14.8871 67.8957L15.5334 66.7462L16.3473 67.1128L16.4716 66.2553L18.6339 64.6087L18.8949 63.5773L18.3233 63.1485L18.5035 62.2351L20.5974 60.8433L21.3182 60.8309L22.3062 58.9357L22.2689 57.7054L22.9089 55.9346L21.138 53.9773L20.2433 50.8394L19.6468 50.0441L19.8642 48.3726L20.6658 48.4037L21.5792 47.6083L22.0576 45.5144L23.7726 44.427L24.7419 44.9551L25.7361 44.719L27.333 45.067L28.0351 43.3707L31.2537 40.4378L32.0739 38.1637L31.9621 36.1815L33.6584 34.0503L35.4044 33.3295L38.6106 33.5532L41.0215 30.8316L42.4382 30.6514L43.9543 26.9109L45.1722 26.1404L46.5081 24.1644L48.3598 23.6922L48.9625 22.5862L50.3854 21.6417L50.5656 20.7035L49.9629 18.7275L52.0879 15.6332L53.0075 15.6829L53.1629 17.7396L54.1198 18.392Z" fill="#E3E3E3" stroke="#707070"/>
<path d="M491.6 178.994L493.172 179.206L493.999 178.839L496.609 179.262L498 180.293L497.976 181.182L496.491 182.48L497.839 184.612L496.745 187.271L495.341 188.582L494.931 192.807L493.378 194.305L492.501 197.026L490.811 198.418V200.139L489.817 200.997L489.581 201.773L489.997 202.221L488.612 204.818L488.811 206.285L490.047 208.26V209.447L488.835 210.46L488.432 212.386L488.506 213.436L489.475 214.4L489.699 215.45L487.885 219.377L487.767 221.62L486.785 223.54L486.81 227.398L485.219 230.903L487.288 232.736L487.481 234.737L488.556 235.917L489.979 236.396L490.917 236.097L491.439 238.048L492.837 239.353L493.999 239.496L493.303 242.1L494.577 243.448L494.583 246.064L496.553 247.99L496.087 249.531L497.068 252.34L497.187 257.708L495.962 260.237L495.546 263.319L494.372 264.22L493.856 265.575L493.893 267.507L492.825 267.824L492.787 268.52L492.303 268.781L492.651 269.893L491.886 271.944L492.446 274.876L491.712 275.678L492.122 276.188L491.122 277.797L487.847 280.854L487.711 282.333L486.431 282.364L485.766 281.842L485.343 281.171L485.393 279.785L483.815 279.456L481.491 278.058L480.776 277.07L481.329 276.2L479.733 276.001L480.385 275.349L479.161 273.466L478.906 274.156L477.26 275.044L477.545 275.784L476.843 276.219L476.669 276.896L475.389 276.573L475.476 275.933L474.563 275.231L472.922 274.709L473.096 275.044L472.177 275.821L472.363 276.97L471.543 278.698L470.779 278.772L470.53 278.101L469.94 278.039L469.648 278.791L468.977 278.493L468.411 277.455L466.889 276.89L465.578 273.963L464.578 267.855L465.566 266.942L464.752 263.4L466.796 257.578L467.392 253.875L467.082 252.588L463.577 250.438L461.968 249.929L461.465 248.73L460.669 248.115L457.488 246.754L457.805 245.262L456.351 241.975L458.283 239.453L458.811 237.148L461.968 233.214L466.721 230.704L468.71 228.871L469.306 227.51L471.854 224.782L471.214 223.95L466.79 221.831L464.143 221.166L459.83 220.843L457.078 219.24L456.164 216.928L454.145 214.648L453.896 210.435L455.493 199.909L458.395 198.182L458.992 196.939L459.52 193.367L460.495 192.037L461.371 192.273L462.44 193.435L463.217 192.478L463.571 191.068L464.975 190.222L466.411 187.992L467.417 180.914L468.877 181.436L469.48 182.834L470.449 181.579L471.033 181.53L473.718 182.971L474.942 181.306L476.88 181.691L478.546 183.375L478.999 183.015L480.385 183.077L481.224 182.704L482.591 181.076L483.554 178.311L486.636 175.763L489.221 176.515L491.6 178.994Z" fill="#E3E3E3" stroke="#707070"/>
<path d="M283.364 181.865L281.593 183.841L281.314 184.723L281.817 185.736L280.245 187.749L280.432 188.663L285.564 189.707L288.236 189.141L288.77 189.924L290.466 190.651L290.715 192.161L291.815 192.919L293.735 192.64L294.518 193.174L296.09 193.367L297.637 191.229L299.961 192.372L301.694 191.304L305.976 190.154L312.158 192.758L315.899 193.248L316.862 194.789L317.943 199.58L318.844 200.81L318.403 201.972L318.974 206.564L322.541 209.161L330.55 211.815L333.291 213.225L330.588 216.239L330.296 217.556L331.029 220.01L332.154 220.551L333.303 221.906L334.26 224.142L334.347 225.46L332.967 229.989L333.179 231.344L328.991 235.476L328.065 238.26L328.929 240.739L328.879 243.05L327.804 245.766L324.623 250.401L323.082 256.018L321.317 255.291L318.676 255.123L317.141 254.552L315.296 254.72L313.469 251.035L314.352 249.662L314.463 247.332L309.256 247.151L307.846 247.593L308.175 247.984L307.84 248.344L307.361 248.052L306.498 248.655L304.596 248.407L304.18 248.22L304.522 246.953L306.106 246.263L303.173 245.592L302.571 245.194L302.925 244.796L302.614 244.138L300.769 243.833L301.365 242.423L300.166 240.925L296.456 240.211L293.834 238.918L293.822 237.812L292.063 236.967L291.281 237.067L290.125 238.614L288.919 237.154L288.043 238.372L280.891 235.19L281.159 233.395L282.855 231.381L282.631 230.71L282.998 230.555L283.501 227.473L283.004 227.355L282.811 226.69L283.315 226L283.644 223.136L280.655 216.953L279.381 215.22L271.18 213.797L270.254 214.151L267.327 213.014L262.207 212.722L259.958 211.628L259.374 212.088L258.348 211.255L258.168 209.311L257.298 208.664L256.988 207.627L255.422 207.633L255.173 208.298L254.751 208.316L254.291 206.409L252.806 206.154L250.88 205.098L250.495 204.408L250.818 202.904L249.283 203.439L248.556 202.743L247.897 202.867L247.468 204.532L246.766 205.123L245.946 205.148L244.672 208.062L244.063 207.925L242.976 208.602L241.466 207.95L240.416 208.447L239.614 207.906L238.241 208.049L239.105 205.651L240.323 204.01L237.682 203.271L237.645 202.581L238.235 202.171L248.282 201.581L250.979 201.034L252.135 199.897L253.539 196.933L255.701 196.076L256.018 195.324L257.746 194.814L258.56 193.895L264.556 191.111L265.469 191.801L267.7 190.974L269.645 188.955L270.005 187.868L270.21 187.383L268.88 183.605L273.914 181.958L274.293 181.231L276.306 180.25L278.226 178.609L280.711 178.392L283.364 181.865Z" fill="#5C58FF" stroke="#707070"/>
<path d="M154.817 101.455L156.582 102.524L159.173 103.114L161.23 106.302L163.106 108.278L162.895 111.049L168.699 113.696L170.121 113.354L171.625 114L174.695 113.348L178.044 113.777L182.872 116.318L185.264 116.827L189.968 119.276L189.713 119.537L190.272 121.121L188.831 125.011L187.737 126.142L186.482 127.142L183.667 128.099L179.703 127.807L178.417 128.994L179.349 129.652L180.032 131.293L179.386 132.604L176.397 132.007L175.378 133.641L173.738 134.145L173.017 134.884L173.377 135.735L174.403 136.388L174.8 137.488L173.222 137.798L173.266 138.718L174.651 140.215L175.502 142.111L176.621 142.887L178.945 145.926L183.568 148.523L186.488 151.841L186.525 153.053L186.01 153.805L183.742 154.563L182.151 156.01L182.89 156.793L182.735 159.639L185.034 161.155L183.537 162.883L182.313 163.374L179.386 166.163L178.727 170.687L181.492 172.389L182.617 173.98L182.605 175.434L177.882 175.658L173.899 176.944L171.184 176.733L168.779 178.224L167.12 182.567L169.376 184.108L171.172 184.27L172.128 184.854L171.265 186.066L169.568 186.376L167.953 187.756L163.1 187.041L162.013 187.942L162.081 189.048L160.503 189.284L159.639 188.974L159.384 189.483L157.993 189.576L155.818 190.67L152.45 191.397L150.828 191.136L148.268 192.068L147.274 192.012L142.949 189.415L141.949 187.694L137.283 185.04L131.92 180.362L129.037 179.001L128.534 179.516L126.962 178.982L125.471 177.628L123.874 175.111L125.526 173.999L127.763 173.887L129.137 173.322L131.989 173.893L132.163 171.681L131.485 170.842L131.529 168.537L130.591 167.45L129.323 167.226L128.801 164.927L123.849 163.454L121.736 160.745L120.873 158.776L115.852 156.197L115.467 154.687L114.41 153.861L113.137 153.699L111.981 152.773L111.9 152.146L110.241 151.394L107.749 151.642L106.83 150.238L104.661 148.293L104.543 147.311L105.326 145.677L105.214 145.019L107.196 143.161L110.167 144.205L114.541 147.237L116.156 147.299L119.419 143.391L119.518 142.055L118.542 139.383L120.407 137.755L121.929 135.027L121.711 132.399L120.444 129.534L121.208 126.726L122.525 126.061L124.023 126.154L131.293 127.875L132.809 122.855L136.177 121.55L137.649 120.537L137.276 117.84L138.886 115.74L141.278 116.107L144.223 112.205L149.828 109.172L151.419 107.389L151.661 103.307L154.817 101.455Z" fill="#E3E3E3" stroke="#707070"/>
<path d="M409.27 163.647L409.612 166.468L410.314 167.282L411.358 167.145L413.334 169.047L415.906 168.164L416.578 168.332L417.068 169.693L420.2 171.308L421.263 172.905L422.804 173.452L424.413 173.353L424.009 177.59L426.221 183.499L424.413 185.923L424.164 187.209L426.202 189.39L425.314 191.484L425.078 195.411L423.412 198.779L422.468 207.092L420.337 210.193L420.958 213.753L422.984 215.99L422.915 218.159L424.811 218.755L422.443 221.346L421.132 221.29L419.958 222.055L420.417 224.292L421.244 225.118L421.368 227.038L420.007 231.207L420.324 232.531L422.729 234.271L422.816 239.527L424.233 242.373L423.587 245.082L424.189 246.25L425.755 247.723L428.98 245.598L433.715 244.38L435.448 244.691L436.585 246.095L436.063 248.804L435.032 250.252L429.781 255.397L426.283 260.355L424.574 261.915L421.94 266.041L421.114 268.682L421.362 271.347L420.685 271.434L420.542 273.28L418.373 273.398L418.398 275.106L416.267 275.529L415.105 276.579L410.563 275.361L408.525 277.623L406.555 276.654L406.213 275.933L402.218 274.622L401.131 273.304L398.62 272.633L396.495 269.676L394.215 269.62L391.729 267.93L387.939 266.675L387.827 266.053L384.571 265.283L384.721 264.562L382.602 264.338L381.719 264.804L379.277 264.779L377.705 266.364L375.897 266.053L375.643 264.761L374.673 264.748L376.556 260.884L375.493 258.56L374.039 257.702L373.169 255.161L373.834 251.731L373.188 245.722L373.971 245.387L377.109 246.866L379.607 246.679L381.309 245.387L382.552 243.715L385.373 242.877L386.193 242.075L387.523 236.526L386.765 234.948L387.001 233.606L386.622 231.785L388.051 227.355L381.303 222.496L378.843 222.247L378.153 221.576L379.731 218.426L378.911 216.22L378.836 212.672L381.173 208.838L384.124 206.365L385.031 204.396L387.747 201.103L389.872 199.878L390.425 198.53L393.115 195.299L394.383 192.329L397.39 191.273L399.422 190.011L399.652 187.153L398.055 182.779L398.285 180.163L398.968 178.727L398.13 175.931L395.93 173.191L394.718 171.855L395.054 169.401L395.545 168.376L397.769 167.046L399.739 164.504L401.013 164.2L402.933 164.865L405.617 162.789L408.127 162.827L409.27 163.647Z" fill="#E3E3E3" stroke="#707070"/>
<path d="M69.8093 28.3896L71.0085 29.098L71.8784 28.9613L72.9534 28.6444L74.5316 27.0786L76.9736 29.1166L78.9743 29.3465L80.4594 30.6576L81.9382 30.6203L83.734 29.185L86.238 30.378L87.3316 31.6021L87.1452 34.218L87.5677 37.971L89.1522 37.157L90.0345 37.1632L92.6132 35.585L94.8004 35.7527L99.1685 34.3236L100.952 34.858L102.008 36.2188L107.302 37.0203L107.669 39.0708L107.352 41.9104L106.619 41.9912L105.742 43.0413L104.904 46.757L105.065 48.3291L104.494 49.8514L102.257 51.3861L102.101 52.9271L102.741 56.7982L104.767 56.9722L106.072 58.1279L106.314 64.0557L107.271 65.2176L108.613 70.4992L108.029 72.8852L106.109 75.557L103.984 77.3341L99.8396 79.192L98.8392 78.7695L98.572 77.0483L96.8011 75.1096L94.471 75.1718L89.2516 79.7201L87.6734 81.6774L88.1207 82.8207L89.1336 83.6844L88.7172 88.4564L89.525 90.0968L91.619 91.992L93.0357 92.3027L93.1413 92.9427L88.0275 96.0433L85.7782 99.1003L85.7969 103.307L87.8971 105.581L88.4625 107.632L91.8738 111.559L92.5945 113.771L93.9926 114.846L94.6512 116.989L93.0419 117.511L91.793 116.94L91.4326 115.455L87.6734 111.509L85.4924 107.265L84.1689 107.719L82.6031 107.569L80.8446 108.346L79.8194 107.072L76.5324 107.799L71.4621 107.371L64.4967 103.239L62.4275 103.27L57.7611 104.811L59.911 108.377L63.2974 110.061L67.2741 111.055L67.299 112.969L69.3433 114.342L70.8842 111.72L72.245 111.36L72.941 115.604L73.7736 118.095L76.2093 122.289L76.4578 124.222L71.9343 129.274L71.3875 131.256L69.1258 134.083L66.0687 136.935L64.1736 138.097L63.8194 140.11L62.2598 142.266L60.8555 141.291L60.4516 142.117L59.5506 141.409L60.6132 140.073L60.0229 139.588L59.1965 139.83L59.0287 138.818L58.3142 138.687L56.4873 139.737L56.1145 139.284L56.8602 138.619L55.6485 138.973L54.4804 138.606L54.6606 137.556L53.8404 138.37L53.3743 138.314L53.2873 137.817L52.8275 138.221L52.2248 137.917L52.0322 136.736L52.666 135.643L51.6035 134.903L49.9196 134.884L50.0004 135.761L48.534 135.375L47.4466 134.12L45.1848 133.517L45.247 132.411L44.2838 131.66L44.2217 130.703L42.7553 130.168L42.0283 130.597L40.0275 130.007L39.5491 129.255L39.779 128.174L38.7475 128.012L38.7103 126.981L38.064 126.434L37.9584 125.539L35.6842 125.757L34.2178 124.905L33.3914 125.11L33.5033 124.452L32.8011 124.06L33.205 122.805L30.7009 122.06L31.2104 119.587L30.9184 117.561L28.551 111.689L29.4209 103.661L28.986 102.207L29.1662 100.834L31.1359 95.1796L30.3405 93.4522L32.099 92.5015L32.9627 89.7862L40.3755 86.3438L40.7732 84.865L42.2271 83.5042L44.1534 79.7947L43.6252 76.2965L45.8745 74.8798L48.4905 74.538L50.1681 73.171L51.6221 70.4681L51.3114 68.778L50.5782 67.7776L49.1056 66.8332L46.3902 66.8891L46.1293 64.7454L43.8986 63.2169L43.6128 61.3652L44.7871 61.0421L45.5949 59.2153L45.8621 56.5434L45.1227 53.4864L53.0512 49.8638L56.7359 49.7147L62.1169 48.3664L63.5149 45.7194L62.8873 42.9108L61.5204 41.345L61.4209 39.0335L59.5879 36.8339L58.7491 34.7648L60.3149 30.1481L61.4085 29.1477L63.1607 28.5139L64.0555 27.3271L66.224 26.2397L69.8093 28.3896Z" fill="#E3E3E3" stroke="#707070"/>
</svg>
