<svg width="25" height="23" viewBox="0 0 25 23" fill="none" xmlns="http://www.w3.org/2000/svg">
<path d="M4.73633 11.5549H15.7308L4.73633 4.66992V19.3292H15.7308L4.73633 8.33474V11.5549Z" fill="#DC143C" stroke="#003893" stroke-width="5.165"/>
<path d="M4.73633 11.5549H15.7308L4.73633 4.66992V19.3292H15.7308L4.73633 8.33474V11.5549Z" fill="#DC143C"/>
<path d="M5.29492 8.97266C5.64873 9.87289 6.51744 10.4649 7.48471 10.4649C8.45197 10.4649 9.32069 9.87289 9.67449 8.97266C9.67449 10.182 8.69409 11.1624 7.48471 11.1624C6.27532 11.1624 5.29492 10.182 5.29492 8.97266Z" fill="white"/>
<circle cx="7.48484" cy="9.99265" r="1.01901" fill="white"/>
<path d="M7.88209 9.54393L7.76822 9.09738L7.49213 9.46636" fill="white"/>
<path d="M8.27149 9.90838L8.33717 9.45224L7.9409 9.68748" fill="white"/>
<path d="M8.60275 10.3487L8.83799 9.95241L8.38185 10.0181" fill="white"/>
<path d="M8.36511 11.557L8.7341 11.2809L8.28755 11.167" fill="white"/>
<path d="M8.17678 12.0559L8.62332 11.942L8.25435 11.666" fill="white"/>
<path d="M7.89729 12.5303L8.35342 12.596L8.11818 12.1997" fill="white"/>
<path d="M10.2555 11.1713L10.3694 10.7248L10.6455 11.0938" fill="white"/>
<path d="M9.8657 11.5353L9.80001 11.0792L10.1963 11.3145" fill="white"/>
<path d="M9.53497 11.9751L9.29973 11.5788L9.75586 11.6445" fill="white"/>
<path d="M8.34821 12.5443L7.97923 12.2682L8.42578 12.1543" fill="white"/>
<path d="M8.53558 13.0433L8.08903 12.9294L8.45801 12.6533" fill="white"/>
<path d="M8.81562 13.5171L8.35949 13.5828L8.59473 13.1865" fill="white"/>
<circle cx="7.48439" cy="15.4424" r="1.49221" fill="white"/>
<path d="M7.87106 16.8838L7.48484 17.7953L7.09863 16.8838" fill="white"/>
<path d="M7.09867 14.001L7.48488 13.0895L7.87109 14.001" fill="white"/>
<path d="M4.07715 18.5673L3.16567 18.1811L4.07715 17.7949" fill="white"/>
<path d="M6.95996 17.795L7.87144 18.1812L6.95996 18.5674" fill="white"/>
<path d="M5.78027 19.4106L4.99006 20.0069L5.11133 19.0244" fill="white"/>
<path d="M6.55274 16.5279L7.34295 15.9316L7.22168 16.9141" fill="white"/>
<path d="M1.65285 18.9707L1.05659 18.1805L2.03906 18.3018" fill="white"/>
<path d="M4.53563 19.7432L5.13188 20.5334L4.14941 20.4121" fill="white"/>
<path d="M4.25047 21.6084L3.268 21.7297L3.86426 20.9395" fill="white"/>
<path d="M6.36086 19.4981L7.34333 19.3768L6.74707 20.167" fill="white"/>
<path d="M0.895512 19.1636L0.774245 18.1811L1.56445 18.7773" fill="white"/>
<path d="M3.00586 21.2739L3.12712 22.2564L2.33691 21.6602" fill="white"/>
</svg>
