
<svg width="80" height="26" viewBox="0 0 80 26" fill="none" xmlns="http://www.w3.org/2000/svg">
<path fill-rule="evenodd" clip-rule="evenodd" d="M33.3315 8.36282H29.2067C28.9245 8.36282 28.6844 8.57158 28.6404 8.85505L26.9721 19.6188C26.9389 19.8313 27.1006 20.0227 27.3123 20.0227H29.2815C29.5638 20.0227 29.8038 19.8139 29.8479 19.5299L30.2978 16.6268C30.3412 16.3425 30.5819 16.134 30.8635 16.134H32.1693C34.8865 16.134 36.4545 14.7959 36.8643 12.1445C37.0488 10.9845 36.8721 10.073 36.3381 9.43448C35.752 8.73377 34.712 8.36282 33.3315 8.36282ZM33.8074 12.2941C33.5819 13.8004 32.451 13.8004 31.3575 13.8004H30.7351L31.1717 10.9873C31.1977 10.8174 31.3424 10.6922 31.5113 10.6922H31.7966C32.5415 10.6922 33.2442 10.6922 33.6073 11.1242C33.8236 11.3821 33.89 11.765 33.8074 12.2941ZM45.6616 12.2459H43.6863C43.518 12.2459 43.3726 12.3711 43.3467 12.5412L43.2593 13.1034L43.1211 12.8997C42.6935 12.268 41.7401 12.057 40.7883 12.057C38.6054 12.057 36.7412 13.7393 36.3781 16.0993C36.1894 17.2764 36.4576 18.402 37.1138 19.1871C37.7158 19.9088 38.5772 20.2096 39.6018 20.2096C41.3605 20.2096 42.336 19.0587 42.336 19.0587L42.2478 19.6174C42.2146 19.831 42.3762 20.0224 42.5866 20.0224H44.366C44.649 20.0224 44.8876 19.8137 44.9323 19.5296L45.9999 12.6498C46.0337 12.4381 45.8726 12.2459 45.6616 12.2459ZM42.9082 16.1581C42.7175 17.3065 41.8219 18.0774 40.6797 18.0774C40.1062 18.0774 39.6476 17.8902 39.3534 17.5354C39.0614 17.1832 38.9504 16.6816 39.0433 16.1232C39.2214 14.9845 40.1321 14.1886 41.2569 14.1886C41.8177 14.1886 42.2738 14.3781 42.5741 14.736C42.875 15.0976 42.9944 15.602 42.9082 16.1581ZM54.1966 12.2456H56.1816C56.4596 12.2456 56.6218 12.5628 56.4638 12.7949L49.862 22.4924C49.7551 22.6495 49.579 22.7429 49.3908 22.7429H47.4083C47.1292 22.7429 46.9662 22.4231 47.1278 22.1905L49.1835 19.2376L46.9972 12.7083C46.9215 12.4813 47.0862 12.2456 47.3235 12.2456H49.2739C49.5273 12.2456 49.7509 12.4149 49.824 12.6617L50.9843 16.6052L53.7221 12.5015C53.8293 12.3413 54.0074 12.2456 54.1966 12.2456Z" fill="#253B80"/>
<path fill-rule="evenodd" clip-rule="evenodd" d="M75.7189 19.6179L77.4118 8.65729C77.4377 8.48716 77.5826 8.3619 77.7509 8.36133H79.6567C79.8671 8.36133 80.0287 8.55333 79.9955 8.76579L78.3261 19.529C78.2826 19.813 78.0426 20.0218 77.7598 20.0218H76.0578C75.8473 20.0218 75.6857 19.8304 75.7189 19.6179ZM62.7545 8.3619H58.6289C58.3473 8.3619 58.1072 8.57066 58.0631 8.85413L56.3949 19.6179C56.3617 19.8304 56.5233 20.0218 56.734 20.0218H58.8508C59.0476 20.0218 59.2159 19.8758 59.2466 19.677L59.7199 16.6259C59.7635 16.3416 60.0041 16.1331 60.2857 16.1331H61.5908C64.3086 16.1331 65.8763 14.795 66.2863 12.1435C66.4714 10.9835 66.2936 10.0721 65.7599 9.43356C65.1741 8.73284 64.1349 8.3619 62.7545 8.3619ZM63.2303 12.2932C63.0054 13.7995 61.8744 13.7995 60.7803 13.7995H60.1584L60.5958 10.9864C60.6218 10.8165 60.7652 10.6913 60.9346 10.6913H61.2199C61.9643 10.6913 62.6676 10.6913 63.0305 11.1233C63.2471 11.3812 63.313 11.7641 63.2303 12.2932ZM75.0834 12.2449H73.1095C72.9398 12.2449 72.7958 12.3702 72.7704 12.5403L72.683 13.1024L72.5443 12.8988C72.1167 12.2671 71.1638 12.056 70.2121 12.056C68.0291 12.056 66.1655 13.7384 65.8024 16.0984C65.6142 17.2755 65.8814 18.4011 66.5375 19.1862C67.1407 19.9079 68.0009 20.2087 69.0256 20.2087C70.7842 20.2087 71.7595 19.0578 71.7595 19.0578L71.6715 19.6165C71.6383 19.8301 71.7999 20.0215 72.0118 20.0215H73.7903C74.0719 20.0215 74.3119 19.8127 74.356 19.5287L75.4242 12.6488C75.4569 12.4372 75.2953 12.2449 75.0834 12.2449ZM72.3302 16.1572C72.1407 17.3056 71.2439 18.0764 70.1015 18.0764C69.5291 18.0764 69.0697 17.8893 68.7752 17.5345C68.4832 17.1823 68.3735 16.6807 68.4654 16.1223C68.6443 14.9836 69.5539 14.1877 70.6787 14.1877C71.2398 14.1877 71.6955 14.3772 71.9961 14.7351C72.2981 15.0966 72.4176 15.6011 72.3302 16.1572Z" fill="#179BD7"/>
<path fill-rule="evenodd" clip-rule="evenodd" d="M17.8198 6.6658C17.7983 6.81507 17.7734 6.96762 17.7457 7.12438C16.7893 12.4213 13.5173 14.2511 9.33845 14.2511H7.2107C6.69961 14.2511 6.26886 14.6513 6.18938 15.1952L4.79146 24.7604C4.7397 25.1176 4.99481 25.4393 5.32876 25.4393H9.10261C9.54938 25.4393 9.92902 25.0891 9.9994 24.6137L10.0364 24.4069L10.747 19.5429L10.7927 19.2761C10.8622 18.7991 11.2427 18.4487 11.6895 18.4487H12.2538C15.9101 18.4487 18.7724 16.8475 19.609 12.2136C19.9583 10.2779 19.7775 8.66154 18.8528 7.52478C18.573 7.18208 18.2258 6.89754 17.8198 6.6658Z" fill="#298FC2"/>
<path fill-rule="evenodd" clip-rule="evenodd" d="M16.8189 6.23556C16.6727 6.18953 16.522 6.14795 16.3674 6.11034C16.2119 6.07366 16.0527 6.04119 15.8888 6.01269C15.3151 5.9127 14.6864 5.86528 14.0131 5.86528H8.32893C8.18882 5.86528 8.05585 5.89939 7.93695 5.96106C7.67469 6.09702 7.48 6.36474 7.43279 6.6925L6.2235 14.9544L6.18938 15.1952C6.26886 14.6513 6.69961 14.2511 7.2107 14.2511H9.33845C13.5173 14.2511 16.7893 12.4203 17.7457 7.12438C17.7743 6.96762 17.7983 6.81507 17.8198 6.6658C17.5779 6.52727 17.3153 6.40889 17.0331 6.30797C16.9634 6.28298 16.8915 6.25892 16.8189 6.23556Z" fill="#22284F"/>
<path fill-rule="evenodd" clip-rule="evenodd" d="M7.43279 6.6925C7.48 6.36474 7.67498 6.09705 7.93724 5.96202C8.057 5.90011 8.1891 5.866 8.32922 5.866H14.0134C14.6867 5.866 15.3154 5.91366 15.889 6.01365C16.053 6.04191 16.2122 6.07462 16.3677 6.1113C16.5223 6.14867 16.673 6.19049 16.8192 6.23628C16.8917 6.25964 16.9636 6.28393 17.034 6.308C17.3162 6.40892 17.5779 6.5282 17.8198 6.6658C18.1043 4.70837 17.818 3.37571 16.837 2.16887C15.7552 0.840094 13.8031 0.271484 11.305 0.271484H4.05272C3.54249 0.271484 3.1072 0.67166 3.02837 1.21644L0.00773052 21.8707C-0.0518247 22.2793 0.240321 22.6479 0.62234 22.6479H5.09959L7.43279 6.6925Z" fill="#28356A"/>
</svg>

