<svg width="198" height="198" viewBox="0 0 198 198" fill="none" xmlns="http://www.w3.org/2000/svg">
<path d="M57.7493 115.5C54.148 115.505 50.5913 116.297 47.3274 117.818C44.0635 119.34 41.171 121.556 38.8518 124.311C36.5326 127.066 34.8425 130.294 33.8996 133.77C32.9567 137.245 32.7836 140.885 33.3924 144.434C34.0012 147.984 35.3773 151.357 37.4245 154.32C39.4718 157.283 42.141 159.763 45.2457 161.588C48.3505 163.412 51.816 164.538 55.4005 164.885C58.985 165.232 62.6021 164.793 65.9993 163.597" stroke="white" stroke-width="1.5" stroke-linecap="round" stroke-linejoin="round"/>
<path d="M35.1775 128.741C30.2404 126.364 25.9729 122.796 22.7601 118.357C19.5472 113.918 17.4902 108.749 16.7747 103.317C16.0592 97.8841 16.7078 92.3589 18.6617 87.2397C20.6157 82.1205 23.8137 77.5684 27.967 73.9942M28.2145 73.326C25.5089 69.2773 24.323 64.4019 24.8669 59.5628C25.4107 54.7237 27.6492 50.2331 31.186 46.886C34.7228 43.5388 39.3299 41.551 44.1915 41.2745C49.0532 40.9979 53.856 42.4505 57.7495 45.375M59.713 45.9112C58.3969 43.1149 57.7261 40.0585 57.7502 36.9679C57.7742 33.8774 58.4925 30.8318 59.8519 28.0562C61.2113 25.2807 63.1772 22.8461 65.6041 20.9325C68.031 19.0189 70.857 17.6751 73.873 17.0006C76.8891 16.326 80.0183 16.338 83.0292 17.0354C86.04 17.7329 88.8557 19.0982 91.2679 21.0302C93.6802 22.9622 95.6274 25.4117 96.9657 28.1976C98.3039 30.9834 98.999 34.0344 98.9995 37.125M98.9995 37.125V165M98.9995 37.125C99 34.0344 99.6951 30.9834 101.033 28.1976C102.372 25.4117 104.319 22.9622 106.731 21.0302C109.143 19.0982 111.959 17.7329 114.97 17.0354C117.981 16.338 121.11 16.326 124.126 17.0006C127.142 17.6751 129.968 19.0189 132.395 20.9325C134.822 22.8461 136.788 25.2807 138.147 28.0562C139.507 30.8318 140.225 33.8774 140.249 36.9679C140.273 40.0585 139.602 43.1149 138.286 45.9112M98.9995 165C98.9995 169.376 97.2611 173.573 94.1668 176.667C91.0724 179.762 86.8756 181.5 82.4995 181.5C78.1235 181.5 73.9266 179.762 70.8323 176.667C67.7379 173.573 65.9995 169.376 65.9995 165M98.9995 165C98.9995 169.376 100.738 173.573 103.832 176.667C106.927 179.762 111.123 181.5 115.5 181.5M98.9995 57.75C98.9995 64.3141 101.607 70.6094 106.249 75.2509C110.89 79.8924 117.185 82.5 123.75 82.5M170.032 73.9942C173.634 77.0885 176.524 80.9254 178.503 85.2417C180.483 89.558 181.505 94.2515 181.5 99C181.5 104.8 180.006 110.253 177.375 114.988M169.785 73.326C172.49 69.2773 173.676 64.4019 173.132 59.5628C172.588 54.7237 170.35 50.2331 166.813 46.886C163.276 43.5388 158.669 41.551 153.808 41.2745C148.946 40.9979 144.143 42.4505 140.25 45.375M169.125 169.125L181.5 181.5M132 152.625C132 158.095 134.173 163.341 138.04 167.209C141.908 171.077 147.154 173.25 152.625 173.25C158.095 173.25 163.341 171.077 167.209 167.209C171.077 163.341 173.25 158.095 173.25 152.625C173.25 147.155 171.077 141.909 167.209 138.041C163.341 134.173 158.095 132 152.625 132C147.154 132 141.908 134.173 138.04 138.041C134.173 141.909 132 147.155 132 152.625Z" stroke="white" stroke-width="1.5" stroke-linecap="round" stroke-linejoin="round"/>
</svg>
