<svg width="151" height="143" viewBox="0 0 151 143" fill="none" xmlns="http://www.w3.org/2000/svg">
<path d="M25.9558 0L18.3627 7.56056L29.6607 18.8207L37.2431 11.2602L25.9558 0ZM125.05 0L113.752 11.2602L121.339 18.8207L132.632 7.56594L125.05 0ZM75.5 3.35547C73.7204 3.37698 71.9191 3.47915 70.1071 3.69962C70.0532 3.69962 69.9993 3.68887 69.9454 3.69962C48.0719 6.20009 30.6638 23.8217 27.6384 45.5354C25.2224 63.0118 32.4488 78.8589 44.4911 89.0651C49.417 93.257 52.7488 99.0093 53.9286 105.359V137.623H66.2243C68.101 140.833 71.5255 143 75.5 143C79.4745 143 82.899 140.833 84.7757 137.623H97.0714V116.113H97.5784V109.725C97.5784 101.842 101.688 93.894 108.364 87.7154C117.295 78.7998 124.036 66.1361 124.036 51.5903C124.036 25.0262 102.108 3.10811 75.5 3.35547ZM75.5 14.1102C96.3434 13.8198 113.25 30.8338 113.25 51.5903C113.25 62.8505 108.019 72.7664 100.776 79.9828L100.949 80.1548C93.7514 86.7728 89.0974 95.689 87.7903 105.364H64.202C63.0155 96.1471 59.0518 87.2261 51.5611 80.827C42.0319 72.761 36.3533 60.6082 38.2515 46.8852C40.6082 29.9465 54.3924 16.3256 71.2828 14.4597C72.6773 14.2658 74.0817 14.1509 75.4892 14.1156L75.5 14.1102ZM0 51.5903V62.345H16.1786V51.5903H0ZM134.821 51.5903V62.345H151V51.5903H134.821ZM29.6607 95.1146L18.3681 106.369L25.9558 113.935L37.2377 102.675L29.6607 95.1146ZM121.339 95.1146L113.757 102.675L125.044 113.935L132.632 106.369L121.339 95.1146ZM64.7143 116.119H86.2857V126.873H64.7143V116.119Z" fill="white"/>
</svg>
