<svg width="52" height="52" viewBox="0 0 52 52" fill="none" xmlns="http://www.w3.org/2000/svg">
<path d="M42.25 27.625C43.3672 27.625 44.4167 27.8366 45.3984 28.2598C46.3802 28.6829 47.2435 29.2585 47.9883 29.9863C48.7331 30.7142 49.3171 31.5775 49.7402 32.5762C50.1634 33.5749 50.375 34.6328 50.375 35.75C50.375 36.6302 50.2396 37.485 49.9688 38.3145C49.6979 39.1439 49.2917 39.9141 48.75 40.625V51.3906L42.25 48.1406L35.75 51.3906V40.625C35.2253 39.9141 34.8275 39.1439 34.5566 38.3145C34.2858 37.485 34.1419 36.6302 34.125 35.75C34.125 34.6328 34.3366 33.5833 34.7598 32.6016C35.1829 31.6198 35.7585 30.7565 36.4863 30.0117C37.2142 29.2669 38.0775 28.6829 39.0762 28.2598C40.0749 27.8366 41.1328 27.625 42.25 27.625ZM42.25 30.875C41.5729 30.875 40.9382 31.002 40.3457 31.2559C39.7533 31.5098 39.237 31.8568 38.7969 32.2969C38.3568 32.737 38.0098 33.2533 37.7559 33.8457C37.502 34.4382 37.375 35.0729 37.375 35.75C37.375 36.4271 37.502 37.0618 37.7559 37.6543C38.0098 38.2467 38.3568 38.763 38.7969 39.2031C39.237 39.6432 39.7533 39.9902 40.3457 40.2441C40.9382 40.498 41.5729 40.625 42.25 40.625C42.9271 40.625 43.5618 40.498 44.1543 40.2441C44.7467 39.9902 45.263 39.6432 45.7031 39.2031C46.1432 38.763 46.4902 38.2467 46.7441 37.6543C46.998 37.0618 47.125 36.4271 47.125 35.75C47.125 35.0729 46.998 34.4382 46.7441 33.8457C46.4902 33.2533 46.1432 32.737 45.7031 32.2969C45.263 31.8568 44.7467 31.5098 44.1543 31.2559C43.5618 31.002 42.9271 30.875 42.25 30.875ZM45.5 46.1094V43.1895C44.4844 43.6465 43.401 43.875 42.25 43.875C41.099 43.875 40.0156 43.6465 39 43.1895V46.1094L42.25 44.4844L45.5 46.1094ZM42.25 13C41.3529 13 40.515 13.1693 39.7363 13.5078C38.9577 13.8464 38.2637 14.3118 37.6543 14.9043C37.0449 15.4967 36.5794 16.1823 36.2578 16.9609C35.9362 17.7396 35.7669 18.5859 35.75 19.5C35.75 21.0573 35.403 22.5215 34.709 23.8926C34.015 25.2637 33.0332 26.4232 31.7637 27.3711C32.0853 27.5234 32.39 27.6927 32.6777 27.8789C32.9655 28.0651 33.2617 28.2598 33.5664 28.4629L31.6621 31.1035C30.8327 30.5111 29.9355 30.054 28.9707 29.7324C28.0059 29.4108 27.0156 29.25 26 29.25C24.6458 29.25 23.3848 29.5039 22.2168 30.0117C21.0488 30.5195 20.0163 31.2135 19.1191 32.0938C18.222 32.974 17.5195 34.015 17.0117 35.2168C16.5039 36.4186 16.25 37.6797 16.25 39H13C13 37.7643 13.1693 36.571 13.5078 35.4199C13.8464 34.2689 14.3288 33.1855 14.9551 32.1699C15.5814 31.1543 16.3346 30.2402 17.2148 29.4277C18.0951 28.6152 19.0938 27.9212 20.2109 27.3457C18.9583 26.4147 17.985 25.2637 17.291 23.8926C16.597 22.5215 16.25 21.0573 16.25 19.5C16.25 18.6029 16.0807 17.765 15.7422 16.9863C15.4036 16.2077 14.9382 15.5137 14.3457 14.9043C13.7533 14.2949 13.0677 13.8294 12.2891 13.5078C11.5104 13.1862 10.6641 13.0169 9.75 13C8.85286 13 8.01497 13.1693 7.23633 13.5078C6.45768 13.8464 5.76367 14.3118 5.1543 14.9043C4.54492 15.4967 4.07943 16.1823 3.75781 16.9609C3.4362 17.7396 3.26693 18.5859 3.25 19.5H0C0 18.6198 0.11849 17.765 0.355469 16.9355C0.592448 16.1061 0.922526 15.319 1.3457 14.5742C1.76888 13.8294 2.29362 13.1523 2.91992 12.543C3.54622 11.9336 4.2487 11.4089 5.02734 10.9688C4.46875 10.3763 4.03711 9.69075 3.73242 8.91211C3.42773 8.13346 3.26693 7.32943 3.25 6.5C3.25 5.60286 3.41927 4.76497 3.75781 3.98633C4.09635 3.20768 4.56185 2.51367 5.1543 1.9043C5.74674 1.29492 6.43229 0.829427 7.21094 0.507812C7.98958 0.186198 8.83594 0.0169271 9.75 0C10.6471 0 11.485 0.169271 12.2637 0.507812C13.0423 0.846354 13.7363 1.31185 14.3457 1.9043C14.9551 2.49674 15.4206 3.18229 15.7422 3.96094C16.0638 4.73958 16.2331 5.58594 16.25 6.5C16.25 7.32943 16.0977 8.13346 15.793 8.91211C15.4883 9.69075 15.0482 10.3763 14.4727 10.9688C15.8607 11.7305 16.9948 12.7799 17.875 14.1172C18.332 13.4401 18.8568 12.8307 19.4492 12.2891C20.0417 11.7474 20.6849 11.2904 21.3789 10.918C22.0729 10.5456 22.8092 10.2578 23.5879 10.0547C24.3665 9.85156 25.1706 9.75 26 9.75C26.8125 9.75 27.6081 9.85156 28.3867 10.0547C29.1654 10.2578 29.9017 10.5456 30.5957 10.918C31.2897 11.2904 31.9414 11.7474 32.5508 12.2891C33.1602 12.8307 33.6849 13.4401 34.125 14.1172C35.0052 12.7799 36.1393 11.7305 37.5273 10.9688C36.9688 10.3763 36.5371 9.69075 36.2324 8.91211C35.9277 8.13346 35.7669 7.32943 35.75 6.5C35.75 5.60286 35.9193 4.76497 36.2578 3.98633C36.5964 3.20768 37.0618 2.51367 37.6543 1.9043C38.2467 1.29492 38.9323 0.829427 39.7109 0.507812C40.4896 0.186198 41.3359 0.0169271 42.25 0C43.1471 0 43.985 0.169271 44.7637 0.507812C45.5423 0.846354 46.2363 1.31185 46.8457 1.9043C47.4551 2.49674 47.9206 3.18229 48.2422 3.96094C48.5638 4.73958 48.7331 5.58594 48.75 6.5C48.75 7.32943 48.5977 8.13346 48.293 8.91211C47.9883 9.69075 47.5482 10.3763 46.9727 10.9688C47.7513 11.4089 48.4453 11.9336 49.0547 12.543C49.6641 13.1523 50.1888 13.821 50.6289 14.5488C51.069 15.2767 51.4076 16.0638 51.6445 16.9102C51.8815 17.7565 52 18.6198 52 19.5H48.75C48.75 18.6029 48.5807 17.765 48.2422 16.9863C47.9036 16.2077 47.4382 15.5137 46.8457 14.9043C46.2533 14.2949 45.5677 13.8294 44.7891 13.5078C44.0104 13.1862 43.1641 13.0169 42.25 13ZM39 6.5C39 6.95703 39.0846 7.38021 39.2539 7.76953C39.4232 8.15885 39.6517 8.4974 39.9395 8.78516C40.2272 9.07292 40.5742 9.3099 40.9805 9.49609C41.3867 9.68229 41.8099 9.76693 42.25 9.75C42.707 9.75 43.1302 9.66536 43.5195 9.49609C43.9089 9.32682 44.2474 9.09831 44.5352 8.81055C44.8229 8.52279 45.0599 8.17578 45.2461 7.76953C45.4323 7.36328 45.5169 6.9401 45.5 6.5C45.5 6.04297 45.4154 5.61979 45.2461 5.23047C45.0768 4.84115 44.8483 4.5026 44.5605 4.21484C44.2728 3.92708 43.9258 3.6901 43.5195 3.50391C43.1133 3.31771 42.6901 3.23307 42.25 3.25C41.793 3.25 41.3698 3.33464 40.9805 3.50391C40.5911 3.67318 40.2526 3.90169 39.9648 4.18945C39.6771 4.47721 39.4401 4.82422 39.2539 5.23047C39.0677 5.63672 38.9831 6.0599 39 6.5ZM6.5 6.5C6.5 6.95703 6.58464 7.38021 6.75391 7.76953C6.92318 8.15885 7.15169 8.4974 7.43945 8.78516C7.72721 9.07292 8.07422 9.3099 8.48047 9.49609C8.88672 9.68229 9.3099 9.76693 9.75 9.75C10.207 9.75 10.6302 9.66536 11.0195 9.49609C11.4089 9.32682 11.7474 9.09831 12.0352 8.81055C12.3229 8.52279 12.5599 8.17578 12.7461 7.76953C12.9323 7.36328 13.0169 6.9401 13 6.5C13 6.04297 12.9154 5.61979 12.7461 5.23047C12.5768 4.84115 12.3483 4.5026 12.0605 4.21484C11.7728 3.92708 11.4258 3.6901 11.0195 3.50391C10.6133 3.31771 10.1901 3.23307 9.75 3.25C9.29297 3.25 8.86979 3.33464 8.48047 3.50391C8.09115 3.67318 7.7526 3.90169 7.46484 4.18945C7.17708 4.47721 6.9401 4.82422 6.75391 5.23047C6.56771 5.63672 6.48307 6.0599 6.5 6.5ZM19.5 19.5C19.5 20.3971 19.6693 21.235 20.0078 22.0137C20.3464 22.7923 20.8118 23.4863 21.4043 24.0957C21.9967 24.7051 22.6823 25.1706 23.4609 25.4922C24.2396 25.8138 25.0859 25.9831 26 26C26.8971 26 27.735 25.8307 28.5137 25.4922C29.2923 25.1536 29.9863 24.6882 30.5957 24.0957C31.2051 23.5033 31.6706 22.8177 31.9922 22.0391C32.3138 21.2604 32.4831 20.4141 32.5 19.5C32.5 18.6029 32.3307 17.765 31.9922 16.9863C31.6536 16.2077 31.1882 15.5137 30.5957 14.9043C30.0033 14.2949 29.3177 13.8294 28.5391 13.5078C27.7604 13.1862 26.9141 13.0169 26 13C25.1029 13 24.265 13.1693 23.4863 13.5078C22.7077 13.8464 22.0137 14.3118 21.4043 14.9043C20.7949 15.4967 20.3294 16.1823 20.0078 16.9609C19.6862 17.7396 19.5169 18.5859 19.5 19.5Z" fill="white"/>
</svg>
