<svg width="31" height="20" viewBox="0 0 31 20" fill="none" xmlns="http://www.w3.org/2000/svg">
<path d="M23.4181 0.386681C22.5081 0.386681 21.6333 0.56613 20.7937 0.925028C19.9541 1.28393 19.2139 1.78702 18.573 2.43432C17.9321 3.08162 17.4386 3.82825 17.0926 4.67423C16.7465 5.5202 16.5798 6.39822 16.5927 7.30828C16.6055 8.56442 16.9259 9.73084 17.554 10.8075C18.1692 11.8458 19.0024 12.6725 20.0535 13.2878C21.1302 13.9158 22.2966 14.2299 23.5527 14.2299H23.6873C22.9054 14.8579 22.0434 15.3354 21.1013 15.6623C20.1592 15.9891 19.1883 16.1525 18.1885 16.1525C17.7142 16.1525 17.3105 16.3224 16.9772 16.662C16.6439 17.0017 16.4773 17.4087 16.4773 17.8829C16.4645 18.1008 16.4933 18.3155 16.5638 18.527C16.6343 18.7385 16.7433 18.9244 16.8907 19.0846C17.0381 19.2448 17.2111 19.373 17.4098 19.4691C17.6085 19.5653 17.8168 19.6133 18.0347 19.6133C19.6625 19.6133 21.2231 19.2993 22.7164 18.6712C24.2096 18.0432 25.5266 17.1491 26.6674 15.9891C27.8082 14.8291 28.683 13.4993 29.2919 11.9996C29.9007 10.4999 30.1987 8.93614 30.1859 7.30828C30.1987 6.39822 30.0385 5.5202 29.7052 4.67423C29.372 3.82825 28.8881 3.07841 28.2536 2.42471C27.6192 1.771 26.8821 1.2679 26.0426 0.915415C25.203 0.562925 24.3282 0.386681 23.4181 0.386681ZM7.21005 0.386681C6.29999 0.386681 5.42197 0.562925 4.576 0.915415C3.73003 1.2679 2.98659 1.771 2.34571 2.42471C1.70482 3.07841 1.21133 3.82825 0.865253 4.67423C0.519173 5.5202 0.352542 6.39822 0.36536 7.30828C0.378177 8.56442 0.698622 9.73084 1.32669 10.8075C1.94195 11.8458 2.7751 12.6725 3.82616 13.2878C4.90285 13.9158 6.06927 14.2299 7.32541 14.2299H7.46C6.67811 14.8579 5.81612 15.3354 4.87401 15.6623C3.93191 15.9891 2.96096 16.1525 1.96117 16.1525C1.48691 16.1525 1.08315 16.3224 0.749893 16.662C0.416631 17.0017 0.25 17.4087 0.25 17.8829C0.237182 18.1008 0.266022 18.3155 0.33652 18.527C0.407017 18.7385 0.515968 18.9244 0.663373 19.0846C0.810777 19.2448 0.987022 19.373 1.19211 19.4691C1.39719 19.5653 1.60868 19.6133 1.82659 19.6133C3.45444 19.6133 5.01501 19.2993 6.50828 18.6712C8.00155 18.0432 9.31857 17.1491 10.4594 15.9891C11.6001 14.8291 12.475 13.4993 13.0838 11.9996C13.6926 10.4999 13.9907 8.93614 13.9778 7.30828C13.9907 6.39822 13.8304 5.5202 13.4972 4.67423C13.1639 3.82825 12.68 3.07841 12.0456 2.42471C11.4111 1.771 10.6741 1.2679 9.83449 0.915415C8.99493 0.562925 8.12011 0.386681 7.21005 0.386681Z" fill="white"/>
</svg>
