<svg width="41" height="41" viewBox="0 0 41 41" fill="none" xmlns="http://www.w3.org/2000/svg">
<path d="M32.7499 16.4166V12.3333H36.8333V16.4166H32.7499ZM32.7499 20.4999V16.4166H28.6666V20.4999H32.7499ZM32.7499 12.3333V8.24992H28.6666V12.3333H32.7499ZM28.6666 1.79825V4.16659H32.7499C31.4637 3.22742 30.1162 2.43117 28.6666 1.79825ZM32.7499 4.16659V8.24992H36.8333C35.6491 6.71867 34.2812 5.35075 32.7499 4.16659ZM36.8333 8.24992V12.3333H39.2016C38.5687 10.8837 37.7724 9.53617 36.8333 8.24992ZM40.9166 20.4999C40.9166 19.1116 40.7737 17.7437 40.5083 16.4166H36.8333V20.4999H40.9166ZM28.6666 8.24992V4.16659H24.5833V8.24992H28.6666ZM28.6666 28.6666H32.7499V24.5833H28.6666V28.6666ZM32.7499 32.7499H36.8333V28.6666H32.7499V32.7499ZM28.6666 36.8333H32.7499V32.7499H28.6666V36.8333ZM24.5833 40.5083C26.0124 40.2224 27.3599 39.7733 28.6666 39.2016V36.8333H24.5833V40.5083ZM32.7499 24.5833H36.8333V20.4999H32.7499V24.5833ZM28.6666 12.3333H24.5833V16.4166H28.6666V12.3333ZM36.8333 28.6666H39.2016C39.7733 27.3599 40.2224 26.0124 40.5083 24.5833H36.8333V28.6666ZM28.6666 20.4999H24.5833V24.5833H28.6666V20.4999ZM20.4999 32.7499V28.6666H24.5833V24.5833H20.4999V20.4999H24.5833V16.4166H20.4999V12.3333H24.5833V8.24992H20.4999V4.16659H24.5833V0.491585C23.2562 0.226169 21.9087 0.083252 20.4999 0.083252C9.27075 0.083252 0.083252 9.27075 0.083252 20.4999C0.083252 31.7291 9.27075 40.9166 20.4999 40.9166V36.8333H24.5833V32.7499H20.4999ZM24.5833 32.7499H28.6666V28.6666H24.5833V32.7499Z" fill="#0758A4"/>
</svg>
