<svg width="18" height="18" viewBox="0 0 18 18" fill="none" xmlns="http://www.w3.org/2000/svg">
<path d="M11.1156 5.00399C10.5449 4.92782 9.97401 4.86897 9.38517 4.86186C8.79633 4.85476 8.22419 4.89982 7.65183 4.9622L7.68715 2.03534C8.24302 1.90347 8.82424 1.82388 9.42173 1.83109C10.0192 1.8383 10.5984 1.93189 11.1509 2.07712M15.9117 6.59478C14.9568 6.06362 13.9225 5.65276 12.8434 5.3626L12.8742 2.80809C14.3087 3.66446 15.3869 5.00865 15.9117 6.59478ZM11.0945 6.75318L11.0456 10.8058C10.473 10.8855 9.90088 10.9305 9.31204 10.9234C8.72321 10.9163 8.14365 10.8574 7.58184 10.764L7.63073 6.71139C8.19453 6.64025 8.77544 6.58663 9.36428 6.59374C9.95311 6.60084 10.5239 6.66835 11.0945 6.75318ZM16.231 8.84174C15.1832 9.54793 14.0245 10.1142 12.782 10.4543L12.8219 7.14643C14.0559 7.5164 15.2006 8.11047 16.231 8.84174ZM5.83263 12.1805L5.80212 14.7091C4.36361 13.8613 3.28362 12.518 2.76452 10.931C3.71944 11.4622 4.75386 11.8644 5.83263 12.1805ZM12.7296 14.7926L12.7601 12.2641C13.8462 11.9741 14.89 11.597 15.8575 11.089C15.2944 12.6596 14.1838 13.9746 12.7296 14.7926ZM10.9892 15.4818C10.4333 15.6137 9.85208 15.6933 9.25458 15.6861C8.65709 15.6789 8.07796 15.5853 7.52543 15.44L7.56074 12.5132C8.13142 12.5893 8.70231 12.6482 9.29115 12.6553C9.87999 12.6624 10.4521 12.6173 11.0245 12.555M2.43665 8.67532C3.48444 7.96913 4.65179 7.40295 5.89437 7.06285L5.85446 10.3707C4.62045 10.0008 3.4671 9.40658 2.43665 8.67532ZM5.94671 2.72451L5.91589 5.27902C4.84012 5.5371 3.8 5.92593 2.81874 6.43683C3.3835 4.85008 4.49922 3.53847 5.94671 2.72451ZM0.678794 8.65411C0.621023 13.4427 4.47104 17.3605 9.23369 17.4179C11.5303 17.4457 13.7438 16.5599 15.3874 14.9555C16.2012 14.1612 16.8505 13.2142 17.2984 12.1689C17.7462 11.1235 17.9838 10.0002 17.9975 8.86305C18.0252 6.56644 17.1395 4.35289 15.5351 2.70935C13.9308 1.06582 11.7392 0.126921 9.44263 0.0992145C8.30546 0.0854954 7.17673 0.295892 6.12088 0.718391C5.06503 1.14089 4.10273 1.76722 3.28893 2.56161C2.47514 3.35601 1.82578 4.30291 1.37793 5.34827C0.930079 6.39362 0.692513 7.51695 0.678794 8.65411Z" fill="currentColor"/>
</svg>
