<svg width="975" height="984" viewBox="0 0 975 984" fill="none" xmlns="http://www.w3.org/2000/svg">
<g opacity="0.16">
<path d="M120.35 615.109C54.2963 473.457 115.581 305.077 257.234 239.023C398.887 172.97 567.267 234.255 633.32 375.908C699.374 517.56 638.089 685.94 496.436 751.994C354.783 818.047 186.404 756.762 120.35 615.109Z" stroke="#707070"/>
<path d="M172.543 727.039C106.606 585.637 167.985 417.46 309.638 351.406C451.292 285.352 619.577 346.435 685.513 487.837C751.45 629.239 690.071 797.416 548.418 863.47C406.764 929.524 238.48 868.441 172.543 727.039Z" stroke="#707070"/>
<path d="M427.217 608.281C361.28 466.88 422.659 298.703 564.312 232.648C705.966 166.594 874.25 227.678 940.187 369.079C1006.12 510.481 944.745 678.658 803.092 744.712C661.438 810.766 493.154 749.683 427.217 608.281Z" stroke="#707070"/>
</g>
</svg>
