<svg width="381" height="151" viewBox="0 0 381 151" fill="none" xmlns="http://www.w3.org/2000/svg">
<rect x="0.429199" y="0.220215" width="380" height="150" rx="8" fill="white"/>
<rect x="50.4292" y="51.2202" width="280" height="48" rx="5" fill="#E0D8FF"/>
<rect x="50.9292" y="51.7202" width="279" height="47" rx="4.5" stroke="#091747" stroke-opacity="0.15"/>
<g clip-path="url(#clip0_2003_405)">
<path d="M69.8104 73.2378V80.73H68.6757V73.2378H69.8104ZM69.2567 70.4351C69.4436 70.4351 69.6031 70.4966 69.7352 70.6196C69.8719 70.7381 69.9403 70.925 69.9403 71.1802C69.9403 71.4308 69.8719 71.6177 69.7352 71.7407C69.6031 71.8638 69.4436 71.9253 69.2567 71.9253C69.0608 71.9253 68.8967 71.8638 68.7645 71.7407C68.6369 71.6177 68.5731 71.4308 68.5731 71.1802C68.5731 70.925 68.6369 70.7381 68.7645 70.6196C68.8967 70.4966 69.0608 70.4351 69.2567 70.4351ZM75.7645 73.1011C76.6532 73.1011 77.3254 73.3198 77.7811 73.7573C78.2369 74.1903 78.4647 74.8875 78.4647 75.8491V80.73H77.3436V75.9243C77.3436 75.3 77.2001 74.8328 76.913 74.5229C76.6304 74.2131 76.1952 74.0581 75.6073 74.0581C74.7779 74.0581 74.1945 74.2928 73.8573 74.7622C73.5201 75.2316 73.3514 75.9129 73.3514 76.8062V80.73H72.2167V73.2378H73.1327L73.3036 74.3179H73.3651C73.5246 74.0535 73.7274 73.8325 73.9735 73.6548C74.2196 73.4725 74.4953 73.3358 74.8007 73.2446C75.106 73.1489 75.4273 73.1011 75.7645 73.1011ZM84.1385 74.1265H82.2723V80.73H81.1376V74.1265H79.8114V73.5796L81.1376 73.2036V72.7046C81.1376 72.0757 81.231 71.5653 81.4178 71.1733C81.6047 70.7769 81.8759 70.4852 82.2313 70.2983C82.5868 70.1115 83.0197 70.0181 83.5302 70.0181C83.8173 70.0181 84.0793 70.0431 84.3163 70.0933C84.5578 70.1434 84.7697 70.2004 84.952 70.2642L84.6581 71.1597C84.5031 71.1095 84.3277 71.064 84.1317 71.0229C83.9403 70.9774 83.7443 70.9546 83.5438 70.9546C83.1109 70.9546 82.7896 71.0959 82.58 71.3784C82.3749 71.6564 82.2723 72.0939 82.2723 72.6909V73.2378H84.1385V74.1265ZM91.9794 76.9702C91.9794 77.5854 91.8996 78.1346 91.7401 78.6177C91.5806 79.1007 91.3505 79.5086 91.0497 79.8413C90.7489 80.174 90.3843 80.4292 89.9559 80.6069C89.5321 80.7801 89.0513 80.8667 88.5135 80.8667C88.0122 80.8667 87.552 80.7801 87.1327 80.6069C86.718 80.4292 86.358 80.174 86.0526 79.8413C85.7518 79.5086 85.5171 79.1007 85.3485 78.6177C85.1844 78.1346 85.1024 77.5854 85.1024 76.9702C85.1024 76.1499 85.2414 75.4526 85.5194 74.8784C85.7974 74.2996 86.1939 73.8599 86.7089 73.5591C87.2284 73.2537 87.8459 73.1011 88.5614 73.1011C89.245 73.1011 89.842 73.2537 90.3524 73.5591C90.8674 73.8644 91.2662 74.3065 91.5487 74.8853C91.8358 75.4595 91.9794 76.1545 91.9794 76.9702ZM86.2782 76.9702C86.2782 77.5718 86.358 78.0936 86.5175 78.5356C86.677 78.9777 86.9231 79.3195 87.2557 79.561C87.5884 79.8026 88.0168 79.9233 88.5409 79.9233C89.0604 79.9233 89.4865 79.8026 89.8192 79.561C90.1565 79.3195 90.4048 78.9777 90.5643 78.5356C90.7238 78.0936 90.8036 77.5718 90.8036 76.9702C90.8036 76.3732 90.7238 75.8582 90.5643 75.4253C90.4048 74.9878 90.1587 74.6506 89.826 74.4136C89.4934 74.1766 89.0627 74.0581 88.5341 74.0581C87.7548 74.0581 87.1828 74.3156 86.8182 74.8306C86.4582 75.3455 86.2782 76.0588 86.2782 76.9702ZM93.7704 80.019C93.7704 79.7 93.8479 79.4744 94.0028 79.3423C94.1578 79.2056 94.3469 79.1372 94.5702 79.1372C94.8026 79.1372 94.9986 79.2056 95.1581 79.3423C95.3176 79.4744 95.3973 79.7 95.3973 80.019C95.3973 80.3335 95.3176 80.5636 95.1581 80.7095C94.9986 80.8507 94.8026 80.9214 94.5702 80.9214C94.3469 80.9214 94.1578 80.8507 94.0028 80.7095C93.8479 80.5636 93.7704 80.3335 93.7704 80.019ZM100.422 73.1147C101.315 73.1147 101.978 73.3153 102.411 73.7163C102.844 74.1174 103.06 74.7576 103.06 75.6372V80.73H102.233L102.015 79.6226H101.96C101.75 79.896 101.531 80.1261 101.304 80.313C101.076 80.4953 100.811 80.6343 100.511 80.73C100.214 80.8211 99.8498 80.8667 99.4169 80.8667C98.9611 80.8667 98.5555 80.7869 98.2001 80.6274C97.8492 80.4679 97.5712 80.2264 97.3661 79.9028C97.1656 79.5793 97.0653 79.1691 97.0653 78.6724C97.0653 77.925 97.3615 77.3507 97.954 76.9497C98.5464 76.5487 99.4488 76.3299 100.661 76.2935L101.953 76.2388V75.7808C101.953 75.1336 101.814 74.6802 101.536 74.4204C101.258 74.1606 100.866 74.0308 100.36 74.0308C99.9683 74.0308 99.5946 74.0877 99.2391 74.2017C98.8837 74.3156 98.5464 74.45 98.2274 74.605L97.8788 73.7437C98.216 73.5705 98.6034 73.4224 99.0409 73.2993C99.4784 73.1763 99.9387 73.1147 100.422 73.1147ZM101.939 77.0386L100.798 77.0864C99.8635 77.1229 99.205 77.2756 98.8221 77.5444C98.4393 77.8133 98.2479 78.1938 98.2479 78.686C98.2479 79.1144 98.3778 79.4312 98.6376 79.6362C98.8973 79.8413 99.2414 79.9438 99.6698 79.9438C100.335 79.9438 100.88 79.7593 101.304 79.3901C101.727 79.021 101.939 78.4673 101.939 77.729V77.0386ZM110.245 78.6792C110.245 79.1577 110.124 79.561 109.883 79.8892C109.646 80.2127 109.304 80.4565 108.857 80.6206C108.415 80.7847 107.887 80.8667 107.271 80.8667C106.747 80.8667 106.294 80.8257 105.911 80.7437C105.528 80.6616 105.193 80.5454 104.906 80.395V79.3491C105.211 79.4995 105.576 79.6362 106 79.7593C106.424 79.8823 106.857 79.9438 107.299 79.9438C107.946 79.9438 108.415 79.839 108.707 79.6294C108.999 79.4198 109.144 79.1349 109.144 78.7749C109.144 78.5698 109.085 78.3898 108.967 78.2349C108.853 78.0754 108.659 77.9227 108.386 77.7769C108.112 77.6265 107.734 77.4624 107.251 77.2847C106.772 77.1024 106.358 76.9224 106.007 76.7446C105.66 76.5623 105.391 76.3413 105.2 76.0815C105.013 75.8218 104.92 75.4845 104.92 75.0698C104.92 74.4364 105.175 73.951 105.685 73.6138C106.2 73.272 106.875 73.1011 107.709 73.1011C108.16 73.1011 108.582 73.1466 108.974 73.2378C109.37 73.3244 109.739 73.4429 110.081 73.5933L109.698 74.5024C109.388 74.3703 109.058 74.2586 108.707 74.1675C108.356 74.0763 107.998 74.0308 107.634 74.0308C107.11 74.0308 106.706 74.1174 106.424 74.2905C106.146 74.4637 106.007 74.7007 106.007 75.0015C106.007 75.2339 106.071 75.4253 106.198 75.5757C106.33 75.7261 106.54 75.8674 106.827 75.9995C107.114 76.1317 107.492 76.2866 107.962 76.4644C108.431 76.6375 108.837 76.8175 109.179 77.0044C109.52 77.1867 109.782 77.41 109.965 77.6743C110.152 77.9341 110.245 78.269 110.245 78.6792ZM114.49 79.937C114.677 79.937 114.868 79.9211 115.064 79.8892C115.26 79.8573 115.42 79.8185 115.543 79.7729V80.6548C115.411 80.714 115.226 80.7642 114.989 80.8052C114.757 80.8462 114.529 80.8667 114.306 80.8667C113.909 80.8667 113.549 80.7983 113.225 80.6616C112.902 80.5203 112.642 80.2834 112.446 79.9507C112.255 79.618 112.159 79.1577 112.159 78.5698V74.1265H111.093V73.5728L112.166 73.1284L112.617 71.5015H113.301V73.2378H115.495V74.1265H113.301V78.5356C113.301 79.005 113.408 79.356 113.622 79.5884C113.841 79.8208 114.13 79.937 114.49 79.937ZM120.465 73.1011C120.615 73.1011 120.772 73.1102 120.936 73.1284C121.1 73.1421 121.246 73.1626 121.374 73.1899L121.23 74.2427C121.107 74.2108 120.971 74.1857 120.82 74.1675C120.67 74.1493 120.529 74.1401 120.396 74.1401C120.096 74.1401 119.811 74.2017 119.542 74.3247C119.278 74.4432 119.045 74.6164 118.845 74.8442C118.644 75.0675 118.487 75.3387 118.373 75.6577C118.259 75.9722 118.202 76.3231 118.202 76.7104V80.73H117.06V73.2378H118.004L118.127 74.6187H118.175C118.33 74.3407 118.516 74.0877 118.735 73.8599C118.954 73.6274 119.207 73.4429 119.494 73.3062C119.786 73.1694 120.109 73.1011 120.465 73.1011ZM129.249 76.9702C129.249 77.5854 129.169 78.1346 129.01 78.6177C128.85 79.1007 128.62 79.5086 128.319 79.8413C128.018 80.174 127.654 80.4292 127.225 80.6069C126.802 80.7801 126.321 80.8667 125.783 80.8667C125.282 80.8667 124.821 80.7801 124.402 80.6069C123.988 80.4292 123.627 80.174 123.322 79.8413C123.021 79.5086 122.787 79.1007 122.618 78.6177C122.454 78.1346 122.372 77.5854 122.372 76.9702C122.372 76.1499 122.511 75.4526 122.789 74.8784C123.067 74.2996 123.463 73.8599 123.978 73.5591C124.498 73.2537 125.115 73.1011 125.831 73.1011C126.515 73.1011 127.112 73.2537 127.622 73.5591C128.137 73.8644 128.536 74.3065 128.818 74.8853C129.105 75.4595 129.249 76.1545 129.249 76.9702ZM123.548 76.9702C123.548 77.5718 123.627 78.0936 123.787 78.5356C123.946 78.9777 124.193 79.3195 124.525 79.561C124.858 79.8026 125.286 79.9233 125.81 79.9233C126.33 79.9233 126.756 79.8026 127.089 79.561C127.426 79.3195 127.674 78.9777 127.834 78.5356C127.993 78.0936 128.073 77.5718 128.073 76.9702C128.073 76.3732 127.993 75.8582 127.834 75.4253C127.674 74.9878 127.428 74.6506 127.096 74.4136C126.763 74.1766 126.332 74.0581 125.804 74.0581C125.024 74.0581 124.452 74.3156 124.088 74.8306C123.728 75.3455 123.548 76.0588 123.548 76.9702ZM134.759 73.1011C135.647 73.1011 136.32 73.3198 136.775 73.7573C137.231 74.1903 137.459 74.8875 137.459 75.8491V80.73H136.338V75.9243C136.338 75.3 136.194 74.8328 135.907 74.5229C135.625 74.2131 135.189 74.0581 134.601 74.0581C133.772 74.0581 133.189 74.2928 132.851 74.7622C132.514 75.2316 132.346 75.9129 132.346 76.8062V80.73H131.211V73.2378H132.127L132.298 74.3179H132.359C132.519 74.0535 132.722 73.8325 132.968 73.6548C133.214 73.4725 133.489 73.3358 133.795 73.2446C134.1 73.1489 134.421 73.1011 134.759 73.1011ZM146.257 76.9702C146.257 77.5854 146.177 78.1346 146.017 78.6177C145.858 79.1007 145.628 79.5086 145.327 79.8413C145.026 80.174 144.662 80.4292 144.233 80.6069C143.809 80.7801 143.329 80.8667 142.791 80.8667C142.29 80.8667 141.829 80.7801 141.41 80.6069C140.995 80.4292 140.635 80.174 140.33 79.8413C140.029 79.5086 139.794 79.1007 139.626 78.6177C139.462 78.1346 139.38 77.5854 139.38 76.9702C139.38 76.1499 139.519 75.4526 139.797 74.8784C140.075 74.2996 140.471 73.8599 140.986 73.5591C141.506 73.2537 142.123 73.1011 142.839 73.1011C143.522 73.1011 144.119 73.2537 144.63 73.5591C145.145 73.8644 145.543 74.3065 145.826 74.8853C146.113 75.4595 146.257 76.1545 146.257 76.9702ZM140.556 76.9702C140.556 77.5718 140.635 78.0936 140.795 78.5356C140.954 78.9777 141.2 79.3195 141.533 79.561C141.866 79.8026 142.294 79.9233 142.818 79.9233C143.338 79.9233 143.764 79.8026 144.097 79.561C144.434 79.3195 144.682 78.9777 144.842 78.5356C145.001 78.0936 145.081 77.5718 145.081 76.9702C145.081 76.3732 145.001 75.8582 144.842 75.4253C144.682 74.9878 144.436 74.6506 144.103 74.4136C143.771 74.1766 143.34 74.0581 142.811 74.0581C142.032 74.0581 141.46 74.3156 141.096 74.8306C140.736 75.3455 140.556 76.0588 140.556 76.9702ZM149.866 80.73L147.022 73.2378H148.239L149.887 77.77C150.001 78.0799 150.117 78.4217 150.235 78.7954C150.354 79.1691 150.436 79.4699 150.481 79.6978H150.529C150.584 79.4699 150.675 79.1691 150.803 78.7954C150.93 78.4172 151.046 78.0754 151.151 77.77L152.799 73.2378H154.016L151.165 80.73H149.866ZM158.021 73.1147C158.915 73.1147 159.578 73.3153 160.011 73.7163C160.444 74.1174 160.66 74.7576 160.66 75.6372V80.73H159.833L159.614 79.6226H159.559C159.35 79.896 159.131 80.1261 158.903 80.313C158.675 80.4953 158.411 80.6343 158.11 80.73C157.814 80.8211 157.449 80.8667 157.016 80.8667C156.561 80.8667 156.155 80.7869 155.8 80.6274C155.449 80.4679 155.171 80.2264 154.966 79.9028C154.765 79.5793 154.665 79.1691 154.665 78.6724C154.665 77.925 154.961 77.3507 155.554 76.9497C156.146 76.5487 157.048 76.3299 158.261 76.2935L159.553 76.2388V75.7808C159.553 75.1336 159.414 74.6802 159.136 74.4204C158.858 74.1606 158.466 74.0308 157.96 74.0308C157.568 74.0308 157.194 74.0877 156.839 74.2017C156.483 74.3156 156.146 74.45 155.827 74.605L155.478 73.7437C155.816 73.5705 156.203 73.4224 156.641 73.2993C157.078 73.1763 157.538 73.1147 158.021 73.1147ZM159.539 77.0386L158.397 77.0864C157.463 77.1229 156.805 77.2756 156.422 77.5444C156.039 77.8133 155.848 78.1938 155.848 78.686C155.848 79.1144 155.977 79.4312 156.237 79.6362C156.497 79.8413 156.841 79.9438 157.269 79.9438C157.935 79.9438 158.479 79.7593 158.903 79.3901C159.327 79.021 159.539 78.4673 159.539 77.729V77.0386ZM166.334 74.1265H164.468V80.73H163.333V74.1265H162.007V73.5796L163.333 73.2036V72.7046C163.333 72.0757 163.426 71.5653 163.613 71.1733C163.8 70.7769 164.071 70.4852 164.427 70.2983C164.782 70.1115 165.215 70.0181 165.725 70.0181C166.013 70.0181 166.275 70.0431 166.512 70.0933C166.753 70.1434 166.965 70.2004 167.147 70.2642L166.853 71.1597C166.698 71.1095 166.523 71.064 166.327 71.0229C166.136 70.9774 165.94 70.9546 165.739 70.9546C165.306 70.9546 164.985 71.0959 164.775 71.3784C164.57 71.6564 164.468 72.0939 164.468 72.6909V73.2378H166.334V74.1265ZM174.175 76.9702C174.175 77.5854 174.095 78.1346 173.935 78.6177C173.776 79.1007 173.546 79.5086 173.245 79.8413C172.944 80.174 172.58 80.4292 172.151 80.6069C171.727 80.7801 171.247 80.8667 170.709 80.8667C170.208 80.8667 169.747 80.7801 169.328 80.6069C168.913 80.4292 168.553 80.174 168.248 79.8413C167.947 79.5086 167.712 79.1007 167.544 78.6177C167.38 78.1346 167.298 77.5854 167.298 76.9702C167.298 76.1499 167.437 75.4526 167.715 74.8784C167.993 74.2996 168.389 73.8599 168.904 73.5591C169.424 73.2537 170.041 73.1011 170.757 73.1011C171.44 73.1011 172.037 73.2537 172.548 73.5591C173.063 73.8644 173.461 74.3065 173.744 74.8853C174.031 75.4595 174.175 76.1545 174.175 76.9702ZM168.474 76.9702C168.474 77.5718 168.553 78.0936 168.713 78.5356C168.872 78.9777 169.118 79.3195 169.451 79.561C169.784 79.8026 170.212 79.9233 170.736 79.9233C171.256 79.9233 171.682 79.8026 172.015 79.561C172.352 79.3195 172.6 78.9777 172.76 78.5356C172.919 78.0936 172.999 77.5718 172.999 76.9702C172.999 76.3732 172.919 75.8582 172.76 75.4253C172.6 74.9878 172.354 74.6506 172.021 74.4136C171.689 74.1766 171.258 74.0581 170.729 74.0581C169.95 74.0581 169.378 74.3156 169.014 74.8306C168.654 75.3455 168.474 76.0588 168.474 76.9702ZM182.323 73.2378V80.73H181.393L181.229 79.6772H181.168C181.013 79.937 180.812 80.1558 180.566 80.3335C180.32 80.5112 180.042 80.6434 179.732 80.73C179.427 80.8211 179.101 80.8667 178.755 80.8667C178.162 80.8667 177.666 80.771 177.265 80.5796C176.863 80.3882 176.56 80.092 176.355 79.6909C176.155 79.2899 176.055 78.7749 176.055 78.146V73.2378H177.203V78.064C177.203 78.6883 177.344 79.1554 177.627 79.4653C177.909 79.7707 178.34 79.9233 178.919 79.9233C179.475 79.9233 179.917 79.8185 180.245 79.6089C180.578 79.3993 180.817 79.0916 180.963 78.686C181.109 78.2759 181.182 77.7746 181.182 77.1821V73.2378H182.323ZM188.27 73.1011C189.159 73.1011 189.831 73.3198 190.287 73.7573C190.743 74.1903 190.971 74.8875 190.971 75.8491V80.73H189.849V75.9243C189.849 75.3 189.706 74.8328 189.419 74.5229C189.136 74.2131 188.701 74.0581 188.113 74.0581C187.284 74.0581 186.7 74.2928 186.363 74.7622C186.026 75.2316 185.857 75.9129 185.857 76.8062V80.73H184.723V73.2378H185.639L185.809 74.3179H185.871C186.03 74.0535 186.233 73.8325 186.479 73.6548C186.725 73.4725 187.001 73.3358 187.307 73.2446C187.612 73.1489 187.933 73.1011 188.27 73.1011ZM195.974 80.8667C195.027 80.8667 194.275 80.5431 193.719 79.896C193.167 79.2489 192.891 78.2873 192.891 77.0112C192.891 75.7215 193.174 74.7485 193.739 74.0923C194.304 73.4315 195.056 73.1011 195.995 73.1011C196.391 73.1011 196.738 73.1535 197.034 73.2583C197.33 73.3631 197.585 73.5044 197.8 73.6821C198.014 73.8553 198.194 74.0535 198.34 74.2769H198.422C198.404 74.1356 198.385 73.9419 198.367 73.6958C198.349 73.4497 198.34 73.2492 198.34 73.0942V70.0933H199.474V80.73H198.558L198.388 79.6636H198.34C198.198 79.8869 198.018 80.0897 197.8 80.272C197.585 80.4543 197.328 80.6001 197.027 80.7095C196.731 80.8143 196.38 80.8667 195.974 80.8667ZM196.152 79.9233C196.954 79.9233 197.522 79.6955 197.854 79.2397C198.187 78.784 198.353 78.1073 198.353 77.2095V77.0044C198.353 76.0519 198.194 75.3205 197.875 74.8101C197.56 74.2996 196.986 74.0444 196.152 74.0444C195.455 74.0444 194.933 74.3133 194.587 74.8511C194.24 75.3843 194.067 76.1134 194.067 77.0386C194.067 77.9591 194.238 78.6701 194.58 79.1714C194.926 79.6727 195.45 79.9233 196.152 79.9233ZM204.683 73.1147C205.577 73.1147 206.24 73.3153 206.673 73.7163C207.106 74.1174 207.322 74.7576 207.322 75.6372V80.73H206.495L206.276 79.6226H206.222C206.012 79.896 205.793 80.1261 205.565 80.313C205.337 80.4953 205.073 80.6343 204.772 80.73C204.476 80.8211 204.112 80.8667 203.679 80.8667C203.223 80.8667 202.817 80.7869 202.462 80.6274C202.111 80.4679 201.833 80.2264 201.628 79.9028C201.427 79.5793 201.327 79.1691 201.327 78.6724C201.327 77.925 201.623 77.3507 202.216 76.9497C202.808 76.5487 203.71 76.3299 204.923 76.2935L206.215 76.2388V75.7808C206.215 75.1336 206.076 74.6802 205.798 74.4204C205.52 74.1606 205.128 74.0308 204.622 74.0308C204.23 74.0308 203.856 74.0877 203.501 74.2017C203.145 74.3156 202.808 74.45 202.489 74.605L202.141 73.7437C202.478 73.5705 202.865 73.4224 203.303 73.2993C203.74 73.1763 204.2 73.1147 204.683 73.1147ZM206.201 77.0386L205.059 77.0864C204.125 77.1229 203.467 77.2756 203.084 77.5444C202.701 77.8133 202.51 78.1938 202.51 78.686C202.51 79.1144 202.64 79.4312 202.899 79.6362C203.159 79.8413 203.503 79.9438 203.932 79.9438C204.597 79.9438 205.141 79.7593 205.565 79.3901C205.989 79.021 206.201 78.4673 206.201 77.729V77.0386ZM212.08 79.937C212.267 79.937 212.458 79.9211 212.654 79.8892C212.85 79.8573 213.01 79.8185 213.133 79.7729V80.6548C213.001 80.714 212.816 80.7642 212.579 80.8052C212.347 80.8462 212.119 80.8667 211.895 80.8667C211.499 80.8667 211.139 80.7983 210.815 80.6616C210.492 80.5203 210.232 80.2834 210.036 79.9507C209.845 79.618 209.749 79.1577 209.749 78.5698V74.1265H208.682V73.5728L209.756 73.1284L210.207 71.5015H210.891V73.2378H213.085V74.1265H210.891V78.5356C210.891 79.005 210.998 79.356 211.212 79.5884C211.431 79.8208 211.72 79.937 212.08 79.937ZM215.785 73.2378V80.73H214.65V73.2378H215.785ZM215.231 70.4351C215.418 70.4351 215.578 70.4966 215.71 70.6196C215.847 70.7381 215.915 70.925 215.915 71.1802C215.915 71.4308 215.847 71.6177 215.71 71.7407C215.578 71.8638 215.418 71.9253 215.231 71.9253C215.035 71.9253 214.871 71.8638 214.739 71.7407C214.612 71.6177 214.548 71.4308 214.548 71.1802C214.548 70.925 214.612 70.7381 214.739 70.6196C214.871 70.4966 215.035 70.4351 215.231 70.4351ZM224.651 76.9702C224.651 77.5854 224.571 78.1346 224.412 78.6177C224.252 79.1007 224.022 79.5086 223.722 79.8413C223.421 80.174 223.056 80.4292 222.628 80.6069C222.204 80.7801 221.723 80.8667 221.185 80.8667C220.684 80.8667 220.224 80.7801 219.805 80.6069C219.39 80.4292 219.03 80.174 218.724 79.8413C218.424 79.5086 218.189 79.1007 218.02 78.6177C217.856 78.1346 217.774 77.5854 217.774 76.9702C217.774 76.1499 217.913 75.4526 218.191 74.8784C218.469 74.2996 218.866 73.8599 219.381 73.5591C219.9 73.2537 220.518 73.1011 221.233 73.1011C221.917 73.1011 222.514 73.2537 223.024 73.5591C223.539 73.8644 223.938 74.3065 224.221 74.8853C224.508 75.4595 224.651 76.1545 224.651 76.9702ZM218.95 76.9702C218.95 77.5718 219.03 78.0936 219.189 78.5356C219.349 78.9777 219.595 79.3195 219.928 79.561C220.26 79.8026 220.689 79.9233 221.213 79.9233C221.732 79.9233 222.158 79.8026 222.491 79.561C222.828 79.3195 223.077 78.9777 223.236 78.5356C223.396 78.0936 223.475 77.5718 223.475 76.9702C223.475 76.3732 223.396 75.8582 223.236 75.4253C223.077 74.9878 222.831 74.6506 222.498 74.4136C222.165 74.1766 221.735 74.0581 221.206 74.0581C220.427 74.0581 219.855 74.3156 219.49 74.8306C219.13 75.3455 218.95 76.0588 218.95 76.9702ZM230.161 73.1011C231.05 73.1011 231.722 73.3198 232.178 73.7573C232.633 74.1903 232.861 74.8875 232.861 75.8491V80.73H231.74V75.9243C231.74 75.3 231.597 74.8328 231.309 74.5229C231.027 74.2131 230.592 74.0581 230.004 74.0581C229.174 74.0581 228.591 74.2928 228.254 74.7622C227.917 75.2316 227.748 75.9129 227.748 76.8062V80.73H226.613V73.2378H227.529L227.7 74.3179H227.762C227.921 74.0535 228.124 73.8325 228.37 73.6548C228.616 73.4725 228.892 73.3358 229.197 73.2446C229.502 73.1489 229.824 73.1011 230.161 73.1011ZM245.754 75.7397C245.754 76.1727 245.704 76.5965 245.603 77.0112C245.508 77.4214 245.36 77.7928 245.159 78.1255C244.959 78.4536 244.708 78.7157 244.407 78.9116C244.111 79.1076 243.76 79.2056 243.354 79.2056C242.931 79.2056 242.593 79.0825 242.343 78.8364C242.092 78.5903 241.942 78.2987 241.891 77.9614H241.83C241.657 78.3215 241.402 78.62 241.064 78.8569C240.732 79.0894 240.321 79.2056 239.834 79.2056C239.123 79.2056 238.574 78.9709 238.186 78.5015C237.804 78.0275 237.612 77.3986 237.612 76.6147C237.612 76.0041 237.733 75.464 237.974 74.9946C238.221 74.5207 238.565 74.1493 239.007 73.8804C239.453 73.6069 239.98 73.4702 240.586 73.4702C240.991 73.4702 241.386 73.5044 241.768 73.5728C242.151 73.6411 242.457 73.7163 242.684 73.7983L242.548 76.5532C242.543 76.7218 242.539 76.8517 242.534 76.9429C242.53 77.0295 242.527 77.0978 242.527 77.1479C242.527 77.6401 242.614 77.9728 242.787 78.146C242.965 78.3146 243.179 78.3989 243.43 78.3989C243.735 78.3989 243.99 78.2804 244.195 78.0435C244.405 77.8019 244.564 77.4806 244.674 77.0796C244.783 76.674 244.838 76.2251 244.838 75.7329C244.838 74.8625 244.662 74.1196 244.311 73.5044C243.96 72.8892 243.475 72.4198 242.855 72.0962C242.24 71.7726 241.531 71.6108 240.729 71.6108C239.932 71.6108 239.223 71.7362 238.603 71.9868C237.988 72.2375 237.466 72.5929 237.038 73.0532C236.614 73.509 236.293 74.0513 236.074 74.6802C235.855 75.3091 235.746 76.0041 235.746 76.7651C235.746 77.6948 235.91 78.4855 236.238 79.1372C236.571 79.7889 237.056 80.2856 237.694 80.6274C238.337 80.9647 239.118 81.1333 240.039 81.1333C240.595 81.1333 241.13 81.0718 241.645 80.9487C242.16 80.8257 242.621 80.6867 243.026 80.5317V81.4204C242.625 81.589 242.176 81.7257 241.68 81.8306C241.183 81.9399 240.636 81.9946 240.039 81.9946C238.941 81.9946 238.002 81.7873 237.223 81.3726C236.443 80.9624 235.846 80.37 235.432 79.5952C235.017 78.8205 234.809 77.8908 234.809 76.8062C234.809 75.9266 234.944 75.1177 235.213 74.3794C235.486 73.6411 235.878 73.0008 236.389 72.4585C236.904 71.9162 237.526 71.4969 238.255 71.2007C238.988 70.8999 239.813 70.7495 240.729 70.7495C241.709 70.7495 242.575 70.9523 243.327 71.3579C244.084 71.759 244.676 72.3332 245.104 73.0806C245.537 73.8234 245.754 74.7098 245.754 75.7397ZM238.631 76.6421C238.631 77.2482 238.752 77.6925 238.993 77.9751C239.235 78.2576 239.57 78.3989 239.998 78.3989C240.527 78.3989 240.914 78.2007 241.16 77.8042C241.411 77.4077 241.554 76.8836 241.591 76.2319L241.673 74.4478C241.541 74.4067 241.379 74.3726 241.187 74.3452C241.001 74.3133 240.805 74.2974 240.599 74.2974C240.13 74.2974 239.75 74.409 239.458 74.6323C239.171 74.8556 238.961 75.145 238.829 75.5005C238.697 75.856 238.631 76.2365 238.631 76.6421ZM249.842 84.0933C248.857 84.0933 248.099 83.9087 247.565 83.5396C247.032 83.175 246.766 82.6623 246.766 82.0015C246.766 81.5321 246.914 81.131 247.21 80.7983C247.511 80.4657 247.925 80.2446 248.454 80.1353C248.258 80.0441 248.089 79.9074 247.948 79.7251C247.811 79.5428 247.743 79.3332 247.743 79.0962C247.743 78.8228 247.818 78.5835 247.969 78.3784C248.124 78.1688 248.358 77.9683 248.673 77.7769C248.281 77.6174 247.962 77.3485 247.716 76.9702C247.474 76.5874 247.353 76.1431 247.353 75.6372C247.353 75.0994 247.465 74.6414 247.688 74.2632C247.912 73.8804 248.235 73.5887 248.659 73.3882C249.083 73.1877 249.596 73.0874 250.197 73.0874C250.329 73.0874 250.461 73.0942 250.594 73.1079C250.73 73.117 250.86 73.133 250.983 73.1558C251.106 73.174 251.213 73.1968 251.305 73.2241H253.875V73.9556L252.494 74.1265C252.631 74.3042 252.745 74.5184 252.836 74.769C252.927 75.0197 252.973 75.2977 252.973 75.603C252.973 76.3504 252.72 76.9451 252.214 77.3872C251.708 77.8247 251.013 78.0435 250.129 78.0435C249.919 78.0435 249.705 78.0252 249.486 77.9888C249.263 78.1118 249.092 78.2485 248.974 78.3989C248.86 78.5493 248.803 78.7225 248.803 78.9185C248.803 79.0643 248.846 79.1805 248.932 79.2671C249.024 79.3537 249.154 79.4175 249.322 79.4585C249.491 79.495 249.694 79.5132 249.931 79.5132H251.25C252.066 79.5132 252.69 79.6841 253.123 80.0259C253.56 80.3677 253.779 80.8667 253.779 81.5229C253.779 82.3524 253.442 82.9881 252.767 83.4302C252.093 83.8722 251.118 84.0933 249.842 84.0933ZM249.876 83.2046C250.496 83.2046 251.008 83.1408 251.414 83.0132C251.824 82.8901 252.129 82.7101 252.33 82.4731C252.535 82.2407 252.638 81.9627 252.638 81.6392C252.638 81.3384 252.569 81.1105 252.432 80.9556C252.296 80.8052 252.095 80.7049 251.831 80.6548C251.567 80.6001 251.243 80.5728 250.86 80.5728H249.561C249.224 80.5728 248.93 80.6252 248.68 80.73C248.429 80.8348 248.235 80.9897 248.099 81.1948C247.966 81.3999 247.9 81.6551 247.9 81.9604C247.9 82.366 248.071 82.6737 248.413 82.8833C248.755 83.0975 249.242 83.2046 249.876 83.2046ZM250.17 77.2163C250.712 77.2163 251.12 77.0796 251.393 76.8062C251.667 76.5327 251.804 76.134 251.804 75.6099C251.804 75.0493 251.665 74.63 251.387 74.3521C251.109 74.0695 250.698 73.9282 250.156 73.9282C249.637 73.9282 249.236 74.0741 248.953 74.3657C248.675 74.6528 248.536 75.0744 248.536 75.6304C248.536 76.1408 248.677 76.5327 248.96 76.8062C249.242 77.0796 249.646 77.2163 250.17 77.2163ZM263.486 73.1011C264.311 73.1011 264.933 73.3175 265.352 73.7505C265.772 74.1789 265.981 74.8693 265.981 75.8218V80.73H264.86V75.8765C264.86 75.2703 264.728 74.8169 264.464 74.5161C264.204 74.2108 263.817 74.0581 263.302 74.0581C262.577 74.0581 262.051 74.2677 261.723 74.687C261.394 75.1063 261.23 75.7238 261.23 76.5396V80.73H260.102V75.8765C260.102 75.4709 260.043 75.1336 259.925 74.8647C259.811 74.5959 259.638 74.3953 259.405 74.2632C259.177 74.1265 258.888 74.0581 258.537 74.0581C258.04 74.0581 257.641 74.1606 257.341 74.3657C257.04 74.5708 256.821 74.8761 256.684 75.2817C256.552 75.6828 256.486 76.1772 256.486 76.7651V80.73H255.351V73.2378H256.267L256.438 74.2974H256.5C256.65 74.0376 256.839 73.8188 257.067 73.6411C257.295 73.4634 257.55 73.3289 257.833 73.2378C258.115 73.1466 258.416 73.1011 258.735 73.1011C259.305 73.1011 259.781 73.2082 260.164 73.4224C260.551 73.632 260.832 73.9533 261.005 74.3862H261.066C261.312 73.9533 261.65 73.632 262.078 73.4224C262.506 73.2082 262.976 73.1011 263.486 73.1011ZM271.115 73.1147C272.008 73.1147 272.671 73.3153 273.104 73.7163C273.537 74.1174 273.754 74.7576 273.754 75.6372V80.73H272.927L272.708 79.6226H272.653C272.444 79.896 272.225 80.1261 271.997 80.313C271.769 80.4953 271.505 80.6343 271.204 80.73C270.908 80.8211 270.543 80.8667 270.11 80.8667C269.655 80.8667 269.249 80.7869 268.893 80.6274C268.543 80.4679 268.265 80.2264 268.059 79.9028C267.859 79.5793 267.759 79.1691 267.759 78.6724C267.759 77.925 268.055 77.3507 268.647 76.9497C269.24 76.5487 270.142 76.3299 271.354 76.2935L272.646 76.2388V75.7808C272.646 75.1336 272.507 74.6802 272.229 74.4204C271.951 74.1606 271.559 74.0308 271.054 74.0308C270.662 74.0308 270.288 74.0877 269.932 74.2017C269.577 74.3156 269.24 74.45 268.921 74.605L268.572 73.7437C268.909 73.5705 269.297 73.4224 269.734 73.2993C270.172 73.1763 270.632 73.1147 271.115 73.1147ZM272.633 77.0386L271.491 77.0864C270.557 77.1229 269.898 77.2756 269.516 77.5444C269.133 77.8133 268.941 78.1938 268.941 78.686C268.941 79.1144 269.071 79.4312 269.331 79.6362C269.591 79.8413 269.935 79.9438 270.363 79.9438C271.029 79.9438 271.573 79.7593 271.997 79.3901C272.421 79.021 272.633 78.4673 272.633 77.729V77.0386ZM277.226 73.2378V80.73H276.092V73.2378H277.226ZM276.673 70.4351C276.86 70.4351 277.019 70.4966 277.151 70.6196C277.288 70.7381 277.356 70.925 277.356 71.1802C277.356 71.4308 277.288 71.6177 277.151 71.7407C277.019 71.8638 276.86 71.9253 276.673 71.9253C276.477 71.9253 276.313 71.8638 276.181 71.7407C276.053 71.6177 275.989 71.4308 275.989 71.1802C275.989 70.925 276.053 70.7381 276.181 70.6196C276.313 70.4966 276.477 70.4351 276.673 70.4351ZM280.774 80.73H279.633V70.0933H280.774V80.73ZM283.003 80.019C283.003 79.7 283.08 79.4744 283.235 79.3423C283.39 79.2056 283.579 79.1372 283.803 79.1372C284.035 79.1372 284.231 79.2056 284.391 79.3423C284.55 79.4744 284.63 79.7 284.63 80.019C284.63 80.3335 284.55 80.5636 284.391 80.7095C284.231 80.8507 284.035 80.9214 283.803 80.9214C283.579 80.9214 283.39 80.8507 283.235 80.7095C283.08 80.5636 283.003 80.3335 283.003 80.019ZM289.852 80.8667C289.178 80.8667 288.583 80.7277 288.068 80.4497C287.553 80.1717 287.152 79.7479 286.865 79.1782C286.578 78.6086 286.434 77.8908 286.434 77.0249C286.434 76.118 286.585 75.3774 286.886 74.8032C287.191 74.2244 287.61 73.7961 288.143 73.5181C288.677 73.2401 289.283 73.1011 289.962 73.1011C290.335 73.1011 290.696 73.1398 291.042 73.2173C291.393 73.2902 291.68 73.3836 291.903 73.4976L291.561 74.4478C291.334 74.3566 291.069 74.2746 290.768 74.2017C290.472 74.1287 290.194 74.0923 289.934 74.0923C289.415 74.0923 288.982 74.2039 288.636 74.4272C288.294 74.6506 288.036 74.9787 287.863 75.4116C287.695 75.8446 287.61 76.3778 287.61 77.0112C287.61 77.6174 287.692 78.1346 287.856 78.563C288.025 78.9914 288.273 79.3195 288.601 79.5474C288.934 79.7707 289.349 79.8823 289.846 79.8823C290.242 79.8823 290.6 79.8413 290.919 79.7593C291.238 79.6727 291.527 79.5724 291.787 79.4585V80.4702C291.536 80.5978 291.256 80.6958 290.946 80.7642C290.641 80.8325 290.276 80.8667 289.852 80.8667ZM300.024 76.9702C300.024 77.5854 299.945 78.1346 299.785 78.6177C299.626 79.1007 299.395 79.5086 299.095 79.8413C298.794 80.174 298.429 80.4292 298.001 80.6069C297.577 80.7801 297.096 80.8667 296.558 80.8667C296.057 80.8667 295.597 80.7801 295.178 80.6069C294.763 80.4292 294.403 80.174 294.098 79.8413C293.797 79.5086 293.562 79.1007 293.393 78.6177C293.229 78.1346 293.147 77.5854 293.147 76.9702C293.147 76.1499 293.286 75.4526 293.564 74.8784C293.842 74.2996 294.239 73.8599 294.754 73.5591C295.273 73.2537 295.891 73.1011 296.606 73.1011C297.29 73.1011 297.887 73.2537 298.397 73.5591C298.912 73.8644 299.311 74.3065 299.594 74.8853C299.881 75.4595 300.024 76.1545 300.024 76.9702ZM294.323 76.9702C294.323 77.5718 294.403 78.0936 294.562 78.5356C294.722 78.9777 294.968 79.3195 295.301 79.561C295.633 79.8026 296.062 79.9233 296.586 79.9233C297.105 79.9233 297.531 79.8026 297.864 79.561C298.201 79.3195 298.45 78.9777 298.609 78.5356C298.769 78.0936 298.849 77.5718 298.849 76.9702C298.849 76.3732 298.769 75.8582 298.609 75.4253C298.45 74.9878 298.204 74.6506 297.871 74.4136C297.538 74.1766 297.108 74.0581 296.579 74.0581C295.8 74.0581 295.228 74.3156 294.863 74.8306C294.503 75.3455 294.323 76.0588 294.323 76.9702ZM310.121 73.1011C310.946 73.1011 311.568 73.3175 311.987 73.7505C312.406 74.1789 312.616 74.8693 312.616 75.8218V80.73H311.495V75.8765C311.495 75.2703 311.363 74.8169 311.099 74.5161C310.839 74.2108 310.451 74.0581 309.936 74.0581C309.212 74.0581 308.685 74.2677 308.357 74.687C308.029 75.1063 307.865 75.7238 307.865 76.5396V80.73H306.737V75.8765C306.737 75.4709 306.678 75.1336 306.559 74.8647C306.446 74.5959 306.272 74.3953 306.04 74.2632C305.812 74.1265 305.523 74.0581 305.172 74.0581C304.675 74.0581 304.276 74.1606 303.975 74.3657C303.675 74.5708 303.456 74.8761 303.319 75.2817C303.187 75.6828 303.121 76.1772 303.121 76.7651V80.73H301.986V73.2378H302.902L303.073 74.2974H303.135C303.285 74.0376 303.474 73.8188 303.702 73.6411C303.93 73.4634 304.185 73.3289 304.468 73.2378C304.75 73.1466 305.051 73.1011 305.37 73.1011C305.94 73.1011 306.416 73.2082 306.799 73.4224C307.186 73.632 307.466 73.9533 307.64 74.3862H307.701C307.947 73.9533 308.284 73.632 308.713 73.4224C309.141 73.2082 309.611 73.1011 310.121 73.1011Z" fill="black"/>
</g>
<defs>
<clipPath id="clip0_2003_405">
<rect width="266" height="19" fill="white" transform="translate(57.4292 65.73)"/>
</clipPath>
</defs>
</svg>
