
<svg width="1919" height="636" viewBox="0 0 1919 636" fill="none" xmlns="http://www.w3.org/2000/svg">
<rect x="-1.74219" y="0.0507812" width="1920" height="635" fill="#0B77A5"/>
<mask id="mask0_1286_978" style="mask-type:luminance" maskUnits="userSpaceOnUse" x="-2" y="0" width="1921" height="636">
<rect x="-1.74219" y="0.0507812" width="1920" height="635" fill="white"/>
</mask>
<g mask="url(#mask0_1286_978)">
<g opacity="0.0636858">
<mask id="mask1_1286_978" style="mask-type:luminance" maskUnits="userSpaceOnUse" x="221" y="-136" width="1513" height="1258">
<path fill-rule="evenodd" clip-rule="evenodd" d="M221.719 -135.449H1733.75V1121.29H221.719V-135.449Z" fill="white"/>
</mask>
<g mask="url(#mask1_1286_978)">
<path fill-rule="evenodd" clip-rule="evenodd" d="M1730.99 387.16C1731.47 378.197 1726.46 369.783 1717.62 364.658L866.82 -128.498C859.965 -132.475 851.651 -133.993 843.417 -132.776C835.187 -131.555 828.017 -127.746 823.24 -122.044L230.071 584.96C226.669 589.015 224.733 593.762 224.475 598.68C224.005 607.645 229.007 616.055 237.849 621.186L1088.64 1114.34C1095.51 1118.32 1103.81 1119.84 1112.05 1118.62C1120.28 1117.39 1127.45 1113.59 1132.23 1107.89L1725.4 400.885C1728.8 396.828 1730.74 392.079 1730.99 387.16ZM221.752 598.582C222.035 593.232 224.141 588.076 227.841 583.666L821.002 -123.339C826.2 -129.535 833.992 -133.677 842.941 -135.004C851.891 -136.328 860.923 -134.677 868.38 -130.356L1719.18 362.802C1728.79 368.376 1734.23 377.518 1733.72 387.262C1733.43 392.61 1731.33 397.767 1727.63 402.18L1134.46 1109.18C1129.27 1115.38 1121.48 1119.52 1112.53 1120.84C1103.58 1122.17 1094.55 1120.52 1087.09 1116.2L236.295 623.038C226.68 617.468 221.241 608.324 221.752 598.582Z" fill="#DADADA"/>
</g>
<path fill-rule="evenodd" clip-rule="evenodd" d="M1691.47 380.03C1691.92 371.431 1687.17 363.309 1678.77 358.304L856.839 -131.136C850.223 -135.08 842.153 -136.644 834.119 -135.543C826.084 -134.44 819.051 -130.803 814.307 -125.303L225.609 557.705C222.155 561.716 220.192 566.426 219.935 571.329C219.484 579.93 224.234 588.053 232.643 593.053L1054.57 1082.5C1068.24 1090.63 1087.31 1088.02 1097.1 1076.67L1685.79 393.655C1689.25 389.646 1691.21 384.932 1691.47 380.03ZM217.216 571.227C217.493 565.888 219.633 560.755 223.397 556.387L812.097 -126.619C817.26 -132.612 824.925 -136.572 833.674 -137.774C842.424 -138.974 851.214 -137.27 858.425 -132.977L1680.35 356.466C1689.51 361.918 1694.68 370.762 1694.19 380.128C1693.91 385.471 1691.78 390.607 1688.01 394.973L1099.31 1077.98C1088.65 1090.35 1067.86 1093.2 1052.98 1084.34L231.056 594.895C221.9 589.444 216.723 580.597 217.216 571.227Z" fill="#DADADA"/>
<path fill-rule="evenodd" clip-rule="evenodd" d="M1651.95 372.894C1652.38 364.661 1647.88 356.828 1639.91 351.945L846.86 -133.779C833.691 -141.844 815.085 -139.503 805.381 -128.561L221.151 530.451C217.64 534.407 215.648 539.088 215.391 543.98C214.959 552.213 219.461 560.043 227.434 564.924L1020.48 1050.65C1026.87 1054.56 1034.69 1056.17 1042.53 1055.18C1050.36 1054.2 1057.27 1050.73 1061.97 1045.43L1646.2 386.419C1649.71 382.464 1651.7 377.786 1651.95 372.894ZM212.672 543.876C212.953 538.535 215.123 533.429 218.956 529.111L803.189 -129.903C813.783 -141.851 834.096 -144.406 848.472 -135.601L1641.52 350.123C1650.23 355.457 1655.14 364.008 1654.67 372.995C1654.39 378.336 1652.22 383.442 1648.39 387.764L1064.16 1046.78C1059.02 1052.56 1051.49 1056.34 1042.93 1057.42C1034.38 1058.5 1025.84 1056.74 1018.87 1052.48L225.82 566.748C217.118 561.416 212.2 552.868 212.672 543.876Z" fill="#DADADA"/>
<path fill-rule="evenodd" clip-rule="evenodd" d="M1612.45 365.76C1612.85 357.887 1608.6 350.349 1601.06 345.59L836.876 -136.419C830.733 -140.292 823.149 -141.946 815.512 -141.077C807.881 -140.209 801.109 -136.92 796.453 -131.817L216.68 503.203C213.115 507.112 211.093 511.753 210.837 516.632C210.424 524.503 214.679 532.04 222.223 536.799L986.409 1018.81C999.077 1026.8 1017.21 1024.74 1026.83 1014.21L1606.6 379.19C1610.17 375.283 1612.19 370.64 1612.45 365.76ZM208.12 516.529C208.397 511.189 210.61 506.105 214.514 501.833L794.282 -133.185C799.382 -138.769 806.791 -142.367 815.144 -143.32C823.498 -144.27 831.799 -142.459 838.521 -138.222L1602.7 343.789C1610.96 348.995 1615.61 357.245 1615.16 365.86C1614.88 371.201 1612.68 376.284 1608.77 380.56L1029 1015.58C1018.47 1027.1 998.629 1029.36 984.76 1020.61L220.581 538.599C212.325 533.393 207.667 525.147 208.12 516.529Z" fill="#DADADA"/>
<path fill-rule="evenodd" clip-rule="evenodd" d="M1572.93 358.632C1573.33 351.116 1569.32 343.866 1562.2 339.236L826.893 -139.058C820.992 -142.894 813.648 -144.594 806.213 -143.84C798.773 -143.087 792.139 -139.973 787.523 -135.07L212.215 475.953C208.588 479.802 206.538 484.408 206.283 489.279C205.888 496.794 209.904 504.044 217.02 508.675L952.326 986.97C958.23 990.805 965.569 992.503 973.008 991.75C980.445 990.999 987.082 987.882 991.701 982.98L1567 371.959C1570.63 368.111 1572.68 363.5 1572.93 358.632ZM203.562 489.178C203.845 483.833 206.093 478.782 210.071 474.552L785.379 -136.465C790.443 -141.843 797.727 -145.26 805.881 -146.085C814.039 -146.912 822.095 -145.049 828.571 -140.838L1563.87 337.455C1571.68 342.533 1576.09 350.487 1575.66 358.73C1575.38 364.074 1573.12 369.131 1569.15 373.357L993.844 984.375C988.779 989.759 981.495 993.175 973.338 993.995C965.181 994.827 957.121 992.962 950.653 988.752L215.341 510.458C207.534 505.378 203.131 497.423 203.562 489.178Z" fill="#DADADA"/>
<path fill-rule="evenodd" clip-rule="evenodd" d="M1533.44 351.5C1533.81 344.34 1530.04 337.382 1523.34 332.883L816.907 -141.697C805.221 -149.547 788.032 -148.035 778.592 -138.325L207.745 448.706C204.062 452.492 201.973 457.068 201.717 461.929C201.34 469.091 205.118 476.047 211.814 480.547L918.249 955.124C923.912 958.932 931.015 960.672 938.247 960.037C945.488 959.396 951.993 956.457 956.564 951.754L1527.41 364.728C1531.1 360.936 1533.19 356.36 1533.44 351.5ZM198.999 461.831C199.277 456.483 201.573 451.453 205.63 447.281L776.473 -139.747C786.856 -150.427 805.762 -152.091 818.617 -143.458L1525.06 331.124C1532.42 336.068 1536.57 343.724 1536.16 351.598C1535.88 356.944 1533.59 361.976 1529.53 366.152L958.683 953.174C953.655 958.351 946.495 961.585 938.539 962.285C930.577 962.988 922.765 961.072 916.54 956.885L210.104 482.307C202.736 477.36 198.585 469.704 198.999 461.831Z" fill="#DADADA"/>
<path fill-rule="evenodd" clip-rule="evenodd" d="M1493.95 344.363C1494.31 337.458 1490.86 330.953 1484.49 326.522L806.925 -144.343C801.499 -148.108 794.643 -149.897 787.602 -149.375C780.563 -148.854 774.193 -146.085 769.662 -141.58L203.28 421.451C199.522 425.187 197.401 429.722 197.148 434.573C196.787 441.482 200.241 447.989 206.613 452.418L884.177 923.284C895.371 931.062 912.083 929.823 921.437 920.521L1487.82 357.491C1491.57 353.757 1493.7 349.218 1493.95 344.363ZM194.431 434.472C194.709 429.125 197.047 424.118 201.19 419.997L767.571 -143.032C772.571 -148.002 779.596 -151.055 787.36 -151.628C795.123 -152.204 802.691 -150.231 808.669 -146.077L1486.23 324.784C1493.26 329.672 1497.07 336.842 1496.67 344.465C1496.39 349.82 1494.05 354.823 1489.9 358.94L923.526 921.973C913.206 932.231 894.773 933.594 882.427 925.02L204.865 454.159C197.832 449.27 194.028 442.096 194.431 434.472Z" fill="#DADADA"/>
<path fill-rule="evenodd" clip-rule="evenodd" d="M1454.47 337.234C1454.81 330.675 1451.59 324.457 1445.63 320.161L796.939 -146.981C791.758 -150.717 785.137 -152.55 778.294 -152.142C771.454 -151.736 765.217 -149.142 760.724 -144.835L198.815 394.2C194.982 397.876 192.824 402.377 192.57 407.225C192.226 413.782 195.449 420.004 201.407 424.298L850.097 891.444C855.283 895.175 861.904 897.006 868.745 896.601C875.58 896.198 881.818 893.603 886.309 889.296L1448.22 350.258C1452.05 346.586 1454.22 342.081 1454.47 337.234ZM189.85 407.127C190.13 401.764 192.522 396.783 196.757 392.721L758.668 -146.316C763.634 -151.081 770.536 -153.951 778.1 -154.399C785.668 -154.849 792.991 -152.822 798.721 -148.693L1447.41 318.451C1454.01 323.202 1457.56 330.083 1457.19 337.333C1456.9 342.693 1454.52 347.675 1450.28 351.744L888.366 890.774C883.404 895.542 876.502 898.411 868.938 898.862C861.372 899.306 854.047 897.283 848.32 893.152L199.625 426.006C193.031 421.257 189.472 414.378 189.85 407.127Z" fill="#DADADA"/>
<path fill-rule="evenodd" clip-rule="evenodd" d="M1414.99 330.101C1415.32 323.894 1412.32 317.954 1406.77 313.801L786.949 -149.63C782.009 -153.327 775.628 -155.201 768.987 -154.909C762.348 -154.619 756.239 -152.197 751.794 -148.088L194.343 366.953C190.49 370.508 188.232 375.101 187.981 379.874C187.658 386.08 190.656 392.021 196.206 396.171L816.025 859.606C820.964 863.299 827.344 865.176 833.991 864.887C840.626 864.594 846.734 862.174 851.184 858.068L1408.63 343.023C1412.49 339.466 1414.75 334.874 1414.99 330.101ZM185.261 379.776C185.541 374.479 188.043 369.383 192.32 365.44L749.769 -149.601C754.7 -154.157 761.477 -156.847 768.846 -157.17C776.214 -157.493 783.29 -155.41 788.774 -151.31L1408.59 312.122C1414.75 316.725 1418.07 323.315 1417.71 330.2C1417.43 335.497 1414.93 340.586 1410.66 344.538L853.206 859.58C848.275 864.133 841.5 866.823 834.132 867.146C826.767 867.469 819.687 865.389 814.205 861.284L194.384 397.849C188.225 393.25 184.903 386.659 185.261 379.776Z" fill="#DADADA"/>
<path fill-rule="evenodd" clip-rule="evenodd" d="M1375.53 322.97C1375.84 317.108 1373.06 311.449 1367.91 307.441L776.964 -152.272C772.258 -155.934 766.116 -157.854 759.678 -157.676C753.236 -157.499 747.26 -155.249 742.854 -151.337L189.871 339.707C185.937 343.199 183.633 347.752 183.382 352.527C183.076 358.39 185.853 364.048 190.998 368.055L781.948 827.766C791.66 835.326 806.964 834.908 816.056 826.836L1369.04 335.79C1372.98 332.297 1375.28 327.745 1375.53 322.97ZM180.662 352.429C180.943 347.115 183.507 342.047 187.881 338.161L740.868 -152.883C745.768 -157.236 752.414 -159.741 759.583 -159.937C766.753 -160.133 773.586 -157.999 778.824 -153.923L1369.77 305.792C1375.5 310.249 1378.59 316.545 1378.25 323.069C1377.97 328.381 1375.41 333.447 1371.03 337.338L818.041 828.383C807.924 837.366 790.894 837.831 780.088 829.419L189.14 369.705C183.411 365.249 180.322 358.948 180.662 352.429Z" fill="#DADADA"/>
<path fill-rule="evenodd" clip-rule="evenodd" d="M1336.08 315.837C1336.36 310.319 1333.81 304.938 1329.05 301.081L766.977 -154.921C757.75 -162.404 742.918 -162.255 733.916 -154.589L185.395 312.46C181.375 315.878 179.02 320.399 178.772 325.171C178.48 330.696 181.044 336.073 185.799 339.931L747.872 795.935C757.101 803.415 771.928 803.262 780.928 795.6L1329.45 328.554C1333.47 325.131 1335.82 320.613 1336.08 315.837ZM176.054 325.07C176.331 319.742 178.96 314.699 183.447 310.877L731.971 -156.172C742.022 -164.729 758.576 -164.894 768.874 -156.538L1330.95 299.461C1336.26 303.767 1339.12 309.773 1338.8 315.938C1338.52 321.269 1335.89 326.314 1331.4 330.135L782.876 797.181C772.827 805.739 756.272 805.907 745.97 797.55L183.901 341.547C178.591 337.242 175.731 331.236 176.054 325.07Z" fill="#DADADA"/>
<path fill-rule="evenodd" clip-rule="evenodd" d="M1296.64 308.704C1296.91 303.518 1294.56 298.422 1290.19 294.719L756.989 -157.569C748.251 -164.978 733.895 -165.101 724.981 -157.844L180.924 285.207C176.811 288.558 174.404 293.036 174.151 297.821C173.881 303.006 176.235 308.102 180.601 311.809L713.797 764.099C722.538 771.508 736.892 771.627 745.809 764.364L1289.87 321.317C1293.98 317.967 1296.39 313.486 1296.64 308.704ZM171.432 297.721C171.714 292.365 174.413 287.347 179.019 283.592L723.074 -159.461C733.062 -167.591 749.144 -167.452 758.931 -159.153L1292.14 293.133C1297.03 297.283 1299.66 302.994 1299.36 308.802C1299.08 314.162 1296.38 319.178 1291.77 322.933L747.716 765.987C737.736 774.116 721.645 773.979 711.859 765.681L178.655 313.396C173.763 309.243 171.128 303.528 171.432 297.721Z" fill="#DADADA"/>
<path fill-rule="evenodd" clip-rule="evenodd" d="M1257.21 301.572C1257.47 296.646 1255.38 291.949 1251.33 288.346L746.995 -160.219C743.006 -163.771 737.583 -165.821 731.739 -165.986C725.89 -166.151 720.315 -164.413 716.04 -161.095L176.451 257.961C172.233 261.236 169.774 265.676 169.522 270.468C169.264 275.393 171.35 280.09 175.399 283.693L679.732 732.259C687.979 739.593 701.862 739.982 710.688 733.133L1250.28 314.077C1254.5 310.804 1256.95 306.362 1257.21 301.572ZM166.802 270.365C167.085 264.976 169.849 259.991 174.585 256.311L714.182 -162.748C718.988 -166.481 725.253 -168.433 731.831 -168.246C738.404 -168.061 744.495 -165.758 748.99 -161.764L1253.32 286.803C1257.87 290.853 1260.22 296.134 1259.93 301.671C1259.65 307.059 1256.88 312.053 1252.14 315.73L712.545 734.789C702.63 742.488 687.014 742.051 677.741 733.808L173.411 285.237C168.861 281.184 166.509 275.908 166.802 270.365Z" fill="#DADADA"/>
<path fill-rule="evenodd" clip-rule="evenodd" d="M1217.79 294.442C1218.03 289.844 1216.14 285.424 1212.46 281.984L737.005 -162.868C729.245 -170.127 715.828 -170.79 707.094 -164.345L171.965 230.72C167.641 233.91 165.122 238.311 164.872 243.116C164.632 247.71 166.523 252.138 170.2 255.576L645.659 700.429C653.418 707.69 666.83 708.353 675.571 701.903L1210.7 306.841C1215.02 303.65 1217.54 299.245 1217.79 294.442ZM162.15 243.017C162.436 237.6 165.281 232.629 170.161 229.028L705.287 -166.037C715.141 -173.31 730.283 -172.563 739.04 -164.372L1214.5 280.483C1218.65 284.362 1220.79 289.354 1220.51 294.541C1220.23 299.963 1217.38 304.93 1212.51 308.533L677.377 703.602C667.519 710.869 652.378 710.125 643.619 701.931L168.163 257.083C164.015 253.199 161.879 248.205 162.15 243.017Z" fill="#DADADA"/>
<path fill-rule="evenodd" clip-rule="evenodd" d="M1178.4 287.313C1178.62 283.043 1176.92 278.887 1173.6 275.614L727.016 -165.521C723.496 -169.001 718.551 -171.134 713.102 -171.523C707.648 -171.914 702.338 -170.519 698.152 -167.591L167.487 203.479C163.113 206.536 160.463 211.014 160.212 215.765C159.989 220.036 161.687 224.189 165.002 227.465L611.589 668.602C618.86 675.783 631.811 676.711 640.454 670.668L1171.12 299.604C1175.49 296.545 1178.15 292.064 1178.4 287.313ZM157.491 215.667C157.774 210.281 160.779 205.209 165.731 201.747L696.398 -169.323C701.145 -172.638 707.156 -174.222 713.333 -173.778C719.511 -173.335 725.109 -170.919 729.099 -166.978L1175.68 274.159C1179.44 277.868 1181.37 282.574 1181.11 287.41C1180.83 292.794 1177.83 297.869 1172.87 301.336L642.204 672.401C632.414 679.248 617.742 678.195 609.507 670.058L162.922 228.918C159.166 225.211 157.238 220.505 157.491 215.667Z" fill="#DADADA"/>
<path fill-rule="evenodd" clip-rule="evenodd" d="M1139.01 280.18C1139.22 276.226 1137.7 272.343 1134.74 269.241L717.021 -168.177C713.732 -171.62 709.028 -173.795 703.772 -174.298C698.519 -174.802 693.345 -173.574 689.207 -170.844L163.001 176.231C158.504 179.197 155.783 183.635 155.531 188.412C155.327 192.36 156.842 196.244 159.803 199.35L577.514 636.77C584.304 643.88 596.783 645.075 605.337 639.433L1131.54 292.364C1136.04 289.397 1138.76 284.954 1139.01 280.18ZM152.81 188.31C153.091 182.881 156.192 177.834 161.312 174.457L687.51 -172.616C692.222 -175.723 698.107 -177.119 704.084 -176.546C710.061 -175.973 715.414 -173.501 719.155 -169.583L1136.87 267.836C1140.24 271.363 1141.97 275.784 1141.73 280.28C1141.44 285.709 1138.35 290.76 1133.23 294.133L607.023 641.208C597.308 647.622 583.107 646.262 575.385 638.177L157.669 200.76C154.303 197.225 152.575 192.805 152.81 188.31Z" fill="#DADADA"/>
<path fill-rule="evenodd" clip-rule="evenodd" d="M1099.65 273.052C1099.84 269.411 1098.5 265.795 1095.87 262.866L707.03 -170.837C700.724 -177.868 688.713 -179.329 680.25 -174.092L158.522 148.987C153.886 151.854 151.083 156.253 150.832 161.052C150.644 164.692 151.986 168.306 154.606 171.24L543.453 604.946C549.756 611.976 561.768 613.435 570.225 608.198L1091.96 285.121C1096.6 282.253 1099.39 277.855 1099.65 273.052ZM148.112 160.954C148.399 155.468 151.603 150.447 156.894 147.167L678.625 -175.906C688.288 -181.89 702.012 -180.221 709.214 -172.188L1098.05 261.516C1101.05 264.859 1102.59 268.991 1102.37 273.151C1102.08 278.636 1098.88 283.659 1093.59 286.938L571.855 610.011C562.19 615.994 548.47 614.323 541.268 606.296L152.424 172.591C149.427 169.244 147.895 165.112 148.112 160.954Z" fill="#DADADA"/>
<path fill-rule="evenodd" clip-rule="evenodd" d="M1060.3 265.928C1060.48 262.544 1059.34 259.282 1057.01 256.494L697.037 -173.495C691.215 -180.451 679.67 -182.174 671.297 -177.338L154.027 121.745C149.252 124.507 146.367 128.862 146.114 133.698C145.939 137.082 147.079 140.342 149.411 143.128L509.379 573.122C515.201 580.082 526.745 581.803 535.119 576.963L1052.39 277.883C1057.17 275.123 1060.05 270.762 1060.3 265.928ZM143.396 133.598C143.685 128.053 146.996 123.053 152.476 119.886L669.742 -179.194C679.346 -184.743 692.591 -182.767 699.269 -174.788L1059.24 255.202C1061.92 258.4 1063.23 262.141 1063.02 266.025C1062.73 271.573 1059.42 276.572 1053.95 279.741L536.672 578.824C527.072 584.373 513.825 582.396 507.147 574.417L147.177 144.425C144.499 141.228 143.192 137.486 143.396 133.598Z" fill="#DADADA"/>
<path fill-rule="evenodd" clip-rule="evenodd" d="M1020.98 258.801C1021.15 255.718 1020.17 252.716 1018.14 250.115L687.043 -176.161C681.699 -183.036 670.619 -185.023 662.342 -180.585L149.535 94.4976C144.677 97.1076 141.623 101.534 141.374 106.342C141.213 109.423 142.197 112.423 144.219 115.024L475.315 541.305C480.657 548.178 491.735 550.163 500.014 545.723L1012.82 270.639C1017.68 268.033 1020.73 263.608 1020.98 258.801ZM138.655 106.242C138.945 100.7 142.462 95.6006 148.06 92.5996L660.866 -182.486C670.401 -187.602 683.171 -185.312 689.33 -177.386L1020.43 248.888C1022.76 251.885 1023.89 255.347 1023.7 258.899C1023.41 264.438 1019.9 269.54 1014.3 272.539L501.49 547.625C491.955 552.739 479.185 550.453 473.029 542.529L141.926 116.256C139.603 113.255 138.467 109.795 138.655 106.242Z" fill="#DADADA"/>
<path fill-rule="evenodd" clip-rule="evenodd" d="M981.683 251.671C981.831 248.888 980.995 246.141 979.277 243.733L677.052 -178.827C672.184 -185.628 661.566 -187.875 653.383 -183.834L145.043 67.2562C140.017 69.7372 136.862 74.1222 136.608 78.9812C136.462 81.7682 137.297 84.5132 139.019 86.9242L441.245 509.483C446.112 516.285 456.727 518.532 464.908 514.487L973.254 263.398C978.28 260.916 981.429 256.533 981.683 251.671ZM133.89 78.8822C134.185 73.2562 137.832 68.1822 143.648 65.3122L651.989 -185.779C661.466 -190.458 673.757 -187.856 679.386 -179.982L981.612 242.574C983.609 245.365 984.571 248.542 984.405 251.774C984.109 257.399 980.46 262.471 974.645 265.346L466.3 516.436C456.828 521.112 444.535 518.513 438.905 510.64L136.678 88.0802C134.684 85.2922 133.721 82.1082 133.89 78.8822Z" fill="#DADADA"/>
<path fill-rule="evenodd" clip-rule="evenodd" d="M942.415 244.553C942.546 242.053 941.855 239.56 940.407 237.349L667.054 -181.494C662.664 -188.22 652.512 -190.726 644.416 -187.079L140.539 40.012C135.336 42.359 132.076 46.697 131.818 51.62C131.686 54.121 132.378 56.613 133.823 58.826L407.179 477.669C411.569 484.394 421.721 486.901 429.816 483.253L933.694 256.158C938.898 253.813 942.159 249.477 942.415 244.553ZM129.099 51.523C129.394 45.884 133.279 40.714 139.243 38.027L643.121 -189.068C652.532 -193.308 664.344 -190.394 669.449 -182.571L942.803 236.27C944.483 238.847 945.284 241.74 945.137 244.652C944.838 250.289 940.95 255.461 934.995 258.15L431.112 485.244C421.701 489.485 409.891 486.571 404.784 478.745L131.434 59.905C129.753 57.328 128.945 54.431 129.099 51.523Z" fill="#DADADA"/>
<mask id="mask2_1286_978" style="mask-type:luminance" maskUnits="userSpaceOnUse" x="124" y="-194" width="782" height="650">
<path fill-rule="evenodd" clip-rule="evenodd" d="M124.258 -193.953H905.918V455.645H124.258V-193.953Z" fill="white"/>
</mask>
<g mask="url(#mask2_1286_978)">
<path fill-rule="evenodd" clip-rule="evenodd" d="M903.18 237.431C903.295 235.209 902.729 232.973 901.539 230.961L657.059 -184.166C653.148 -190.815 643.453 -193.58 635.453 -190.327L136.036 12.7732C130.716 14.9362 127.255 19.3372 126.997 24.2572C126.881 26.4812 127.444 28.7192 128.63 30.7322L373.111 445.859C377.029 452.506 386.718 455.271 394.72 452.016L894.137 248.921C899.453 246.756 902.919 242.354 903.18 237.431ZM124.276 24.1582C124.577 18.4082 128.627 13.2652 134.836 10.7412L634.253 -192.36C643.601 -196.159 654.931 -192.931 659.508 -185.161L903.992 229.966C905.375 232.317 906.036 234.932 905.9 237.531C905.598 243.282 901.552 248.426 895.333 250.951L395.917 454.048C386.567 457.853 375.241 454.624 370.666 446.853L126.18 31.7242C124.796 29.3772 124.139 26.7583 124.276 24.1582Z" fill="#DADADA"/>
</g>
</g>
</g>
</svg>

