<svg width="705" height="687" viewBox="0 0 705 687" fill="none" xmlns="http://www.w3.org/2000/svg">
<path d="M337.662 143.633L336.26 142.579C342.571 134.917 349.202 127.713 355.974 120.97L357.236 122.158C350.504 128.844 343.913 136.085 337.662 143.633Z" fill="#6DC1B2"/>
<path d="M330.185 149.911L323.724 157.701L325.105 158.748L331.566 150.959L330.185 149.911Z" fill="#6DC1B2"/>
<path d="M469.198 232.487C512.733 165.571 518.663 99.6331 486.969 78.2922C455.274 56.9513 392.346 84.499 341.119 146.242L194.728 322.812L344.825 423.884L469.198 232.487Z" fill="#6DC1B2"/>
<path opacity="0.1" d="M452.057 220.968L324.638 410.374L309.052 381.887L435.609 209.091C471.39 160.222 491.444 115.567 491.525 90.7008C491.521 90.2201 491.695 89.7536 492.017 89.3843C492.339 89.015 492.787 88.7669 493.283 88.6841C493.778 88.6014 494.288 88.6893 494.722 88.9323C495.155 89.1753 495.485 89.5576 495.652 90.0111C504.667 114.819 489.04 166.007 452.057 220.968Z" fill="white"/>
<path d="M344.726 423.842C364.989 396.323 347.812 351.39 306.358 323.48C264.905 295.571 214.873 295.253 194.61 322.772C174.347 350.29 191.525 395.223 232.978 423.133C274.431 451.043 324.463 451.36 344.726 423.842Z" fill="#6DC1B2"/>
<path opacity="0.5" d="M344.726 423.842C364.989 396.323 347.812 351.39 306.358 323.48C264.905 295.571 214.873 295.253 194.61 322.772C174.347 350.29 191.525 395.223 232.978 423.133C274.431 451.043 324.463 451.36 344.726 423.842Z" fill="white"/>
<path opacity="0.1" d="M329.148 292.296C296.212 270.113 258.848 263.772 234.987 274.136L197.823 318.925C219.861 295.4 266.962 297.009 306.349 323.522C345.737 350.036 363.227 391.97 347.44 419.69L378.633 371.798C381.318 346.645 362.446 314.71 329.148 292.296Z" fill="#FD7702"/>
<path opacity="0.2" d="M381.901 147.901C372.765 161.733 365.873 187.614 393.02 205.87C420.167 224.127 443.326 209.242 453.844 196.292L381.901 147.901Z" fill="black"/>
<path d="M460.254 180.338C457.148 205.05 427.277 223.077 395.923 201.966C364.57 180.855 372.243 147.886 395.523 136.832C409.867 129.974 428.139 133.001 440.64 141.315C453.141 149.629 462.177 165.012 460.254 180.338Z" fill="white"/>
<path d="M400.191 196.133C387.99 187.934 381.74 177.206 382.621 165.98C383.021 161.135 384.726 156.471 387.57 152.443C390.414 148.415 394.299 145.159 398.849 142.992C409.748 137.781 425.174 139.409 436.373 146.938C447.572 154.467 454.404 167.838 452.902 179.409C452.306 184.222 450.419 188.806 447.425 192.716C444.431 196.626 440.43 199.73 435.812 201.727C425.114 206.363 412.392 204.351 400.191 196.133Z" fill="#6DC1B2"/>
<path opacity="0.3" d="M400.191 196.133C387.99 187.934 381.74 177.206 382.621 165.98C383.021 161.135 384.726 156.471 387.57 152.443C390.414 148.415 394.299 145.159 398.849 142.992C409.748 137.781 425.174 139.409 436.373 146.938C447.572 154.467 454.404 167.838 452.902 179.409C452.306 184.222 450.419 188.806 447.425 192.716C444.431 196.626 440.43 199.73 435.812 201.727C425.114 206.363 412.392 204.351 400.191 196.133Z" fill="black"/>
<path d="M400.197 196.133C387.996 187.933 381.525 177.512 382.005 166.822C382.214 162.278 383.731 157.876 386.389 154.104C389.048 150.331 392.744 147.334 397.071 145.443C407.549 140.807 422.675 142.838 433.874 150.386C445.074 157.934 452.166 170.864 451.124 181.861C450.72 186.4 449.008 190.744 446.179 194.409C443.35 198.075 439.514 200.919 435.096 202.627C424.819 206.669 412.398 204.351 400.197 196.133Z" fill="#6DC1B2"/>
<path opacity="0.2" d="M400.197 196.133C387.996 187.933 381.525 177.512 382.005 166.822C382.214 162.278 383.731 157.876 386.389 154.104C389.048 150.331 392.744 147.334 397.071 145.443C407.549 140.807 422.675 142.838 433.874 150.386C445.074 157.934 452.166 170.864 451.124 181.861C450.72 186.4 449.008 190.744 446.179 194.409C443.35 198.075 439.514 200.919 435.096 202.627C424.819 206.669 412.398 204.351 400.197 196.133Z" fill="white"/>
<path opacity="0.3" d="M442.361 157.944L385.964 181.737C383.167 177.23 381.777 172.052 381.957 166.814C382.064 164.347 382.571 161.91 383.46 159.592L419.862 144.266C428.697 146.407 436.574 151.218 442.32 157.983L442.361 157.944Z" fill="white"/>
<path opacity="0.3" d="M450.46 173.294L398.711 195.094C395.599 192.912 392.762 190.392 390.257 187.585L446.553 163.83C448.313 166.794 449.628 169.98 450.46 173.294Z" fill="white"/>
<path opacity="0.1" d="M506.875 130.629C505.152 117.411 494.534 102.124 477.745 90.8212C460.956 79.5185 442.345 75.1124 428.741 78.0051C451.881 68.9822 472.616 68.6374 486.961 78.2925C501.306 87.9476 507.957 106.76 506.875 130.629Z" fill="#E94E22"/>
<path opacity="0.5" d="M306.329 369.974C312.642 361.401 307.528 347.563 294.908 339.066C282.287 330.569 266.938 330.63 260.626 339.203C254.313 347.776 259.426 361.614 272.047 370.111C284.667 378.608 300.016 378.547 306.329 369.974Z" fill="#6DC1B2"/>
<path opacity="0.5" d="M246.809 361.926C240.498 370.489 225.151 370.566 212.53 362.06C199.908 353.554 194.779 339.723 201.09 331.16C207.401 322.596 222.767 322.52 235.389 331.025C248.011 339.531 253.039 353.363 246.809 361.926Z" fill="#6DC1B2"/>
<path opacity="0.5" d="M334.382 420.95C328.072 429.532 312.725 429.589 300.104 421.084C287.482 412.578 282.373 398.747 288.684 390.183C294.995 381.62 310.341 381.544 322.963 390.049C335.584 398.555 340.693 412.386 334.382 420.95Z" fill="#6DC1B2"/>
<path opacity="0.5" d="M274.857 412.869C268.546 421.432 253.2 421.49 240.578 413.003C227.957 404.517 222.848 390.666 229.159 382.084C235.469 373.501 250.816 373.463 263.437 381.95C276.059 390.436 281.088 404.287 274.857 412.869Z" fill="#6DC1B2"/>
<path opacity="0.5" d="M306.351 369.998C305.684 370.903 304.903 371.726 304.027 372.45C307.533 363.906 302.244 352.048 290.965 344.462C279.685 336.875 266.242 336.109 259.01 342.125C259.435 341.105 259.979 340.134 260.633 339.232C266.943 330.669 282.31 330.592 294.931 339.098C307.553 347.603 312.642 361.416 306.351 369.998Z" fill="#6DC1B2"/>
<path opacity="0.5" d="M246.813 361.917C246.148 362.818 245.375 363.641 244.509 364.369C248.015 355.806 242.746 343.967 231.447 336.362C220.148 328.756 206.725 328.009 199.492 334.044C199.913 333.022 200.457 332.051 201.115 331.151C207.426 322.569 222.772 322.511 235.394 331.017C248.015 339.523 253.044 353.335 246.813 361.917Z" fill="#6DC1B2"/>
<path opacity="0.5" d="M334.38 420.956C333.714 421.851 332.941 422.668 332.076 423.389C335.582 414.826 330.293 402.987 319.013 395.401C307.734 387.815 294.291 387.029 287.059 393.083C287.475 392.053 288.02 391.076 288.681 390.171C294.992 381.589 310.339 381.531 322.96 390.037C335.582 398.543 340.711 412.374 334.38 420.956Z" fill="#6DC1B2"/>
<path opacity="0.5" d="M274.854 412.869C274.2 413.772 273.426 414.59 272.55 415.302C276.056 406.758 270.767 394.9 259.488 387.314C248.209 379.727 234.766 378.961 227.533 384.996C227.946 383.964 228.491 382.986 229.156 382.084C235.467 373.501 250.813 373.463 263.435 381.95C276.056 390.436 281.085 404.287 274.854 412.869Z" fill="#6DC1B2"/>
<path d="M294.049 211.434C294.049 211.434 267.003 244.997 243.442 273.886C240.097 277.914 235.713 281.04 230.722 282.958C225.731 284.875 220.304 285.519 214.974 284.825C194.398 282.392 160.881 296.319 160.881 296.319C160.881 296.319 224.29 196.722 294.049 211.434Z" fill="#6DC1B2"/>
<path opacity="0.3" d="M294.049 211.434C294.049 211.434 267.003 244.997 243.442 273.886C240.097 277.914 235.713 281.04 230.722 282.958C225.731 284.875 220.304 285.519 214.974 284.825C194.398 282.392 160.881 296.319 160.881 296.319C160.881 296.319 224.29 196.722 294.049 211.434Z" fill="black"/>
<path d="M420.889 296.862C420.889 296.862 397.069 332.513 376.453 363.452C373.617 367.821 372.018 372.821 371.814 377.96C371.611 383.099 372.809 388.2 375.291 392.762C384.627 410.482 382.183 445.425 382.183 445.425C382.183 445.425 458.895 354.678 420.889 296.862Z" fill="#6DC1B2"/>
<path opacity="0.3" d="M420.889 296.862C420.889 296.862 397.069 332.513 376.453 363.452C373.617 367.821 372.018 372.821 371.814 377.96C371.611 383.099 372.809 388.2 375.291 392.762C384.627 410.482 382.183 445.425 382.183 445.425C382.183 445.425 458.895 354.678 420.889 296.862Z" fill="#E7501B"/>
<path d="M508.278 553.158C533.301 494.614 425.116 478.024 382.302 492.717C339.489 507.411 295.834 518.33 294.151 479.154C292.468 439.978 325.445 415.687 309.718 406.645C301.003 401.626 298.519 410.476 294.211 423.388C281.029 462.947 206.361 472.373 240.72 529.633C275.079 586.893 256.747 574.46 198.948 597.43C141.149 620.399 170.9 686.548 226.816 686.548H563.553C717.898 686.548 571.767 404.059 508.278 553.158Z" fill="#6DC1B2"/>
<path opacity="0.6" d="M508.278 553.158C533.301 494.614 425.116 478.024 382.302 492.717C339.489 507.411 295.834 518.33 294.151 479.154C292.468 439.978 325.445 415.687 309.718 406.645C301.003 401.626 298.519 410.476 294.211 423.388C281.029 462.947 206.361 472.373 240.72 529.633C275.079 586.893 256.747 574.46 198.948 597.43C141.149 620.399 170.9 686.548 226.816 686.548H563.553C717.898 686.548 571.767 404.059 508.278 553.158Z" fill="white"/>
<path d="M223.873 349.108C219.385 334.204 195.103 352.939 171.182 375.64C147.261 398.341 135.461 450.161 112.321 477.172C89.1817 504.184 22.9281 528.59 48.8325 569.241C87.038 629.145 -0.772549 686.616 103.226 686.616H316.531C355.538 686.616 397.831 641.003 337.087 609.988C276.343 578.973 185.347 651.29 160.784 582.306C148.604 548.072 192.839 563.781 172.344 507.728C151.849 451.674 153.211 436.406 163.649 411.426C189.053 350.545 230.784 371.751 223.873 349.108Z" fill="#6DC1B2"/>
<path opacity="0.6" d="M223.873 349.108C219.385 334.204 195.103 352.939 171.182 375.64C147.261 398.341 135.461 450.161 112.321 477.172C89.1817 504.184 22.9281 528.59 48.8325 569.241C87.038 629.145 -0.772549 686.616 103.226 686.616H316.531C355.538 686.616 397.831 641.003 337.087 609.988C276.343 578.973 185.347 651.29 160.784 582.306C148.604 548.072 192.839 563.781 172.344 507.728C151.849 451.674 153.211 436.406 163.649 411.426C189.053 350.545 230.784 371.751 223.873 349.108Z" fill="white"/>
<path d="M268.086 355.973C273.375 346.739 291.526 352.276 291.125 364.364C290.725 376.452 243.724 392.295 252.459 434.038C261.194 475.781 345.098 478.769 364.792 520.589C384.486 562.409 308.195 568.271 330.954 594.42C353.713 620.569 423.953 560.512 473.999 575.953C524.045 591.393 574.05 686.546 482.253 686.546H199.388C137.883 686.546 92.9656 565.11 152.067 515.148C211.168 465.187 163.487 481.413 185.544 449.402C207.602 417.39 247.791 391.375 268.086 355.973Z" fill="#6DC1B2"/>
<path opacity="0.8" d="M268.086 355.973C273.375 346.739 291.526 352.276 291.125 364.364C290.725 376.452 243.724 392.295 252.459 434.038C261.194 475.781 345.098 478.769 364.792 520.589C384.486 562.409 308.195 568.271 330.954 594.42C353.713 620.569 423.953 560.512 473.999 575.953C524.045 591.393 574.05 686.546 482.253 686.546H199.388C137.883 686.546 92.9656 565.11 152.067 515.148C211.168 465.187 163.487 481.413 185.544 449.402C207.602 417.39 247.791 391.375 268.086 355.973Z" fill="white"/>
<path d="M563.821 171.286L562.118 174.562C562.02 174.75 561.876 174.913 561.698 175.036C561.52 175.16 561.314 175.24 561.096 175.271L557.31 175.807C557.058 175.841 556.821 175.942 556.625 176.098C556.43 176.255 556.285 176.46 556.205 176.692C556.126 176.923 556.116 177.171 556.177 177.407C556.238 177.644 556.366 177.859 556.549 178.029L559.293 180.596C559.45 180.745 559.567 180.926 559.637 181.125C559.707 181.325 559.726 181.538 559.694 181.746L559.033 185.347C558.985 185.591 559.01 185.843 559.106 186.073C559.202 186.303 559.365 186.502 559.575 186.647C559.786 186.792 560.035 186.876 560.294 186.89C560.552 186.904 560.81 186.848 561.036 186.727L564.422 185.022C564.621 184.927 564.841 184.878 565.063 184.878C565.286 184.878 565.505 184.927 565.704 185.022L569.09 186.727C569.316 186.848 569.574 186.904 569.833 186.89C570.091 186.876 570.341 186.792 570.551 186.647C570.761 186.502 570.924 186.303 571.02 186.073C571.116 185.843 571.142 185.591 571.093 185.347L570.452 181.746C570.409 181.538 570.424 181.322 570.494 181.121C570.564 180.919 570.688 180.738 570.853 180.596L573.578 178.029C573.76 177.859 573.889 177.644 573.949 177.407C574.01 177.171 574 176.923 573.921 176.692C573.842 176.46 573.696 176.255 573.501 176.098C573.306 175.942 573.069 175.841 572.816 175.807L569.03 175.271C568.812 175.24 568.606 175.16 568.428 175.036C568.25 174.913 568.106 174.75 568.008 174.562L566.305 171.286C566.198 171.057 566.023 170.863 565.803 170.727C565.582 170.591 565.325 170.519 565.063 170.519C564.801 170.519 564.544 170.591 564.324 170.727C564.103 170.863 563.929 171.057 563.821 171.286Z" fill="#F5F5F5"/>
<path d="M93.4489 344.913L91.766 348.208C91.6649 348.397 91.5174 348.561 91.336 348.684C91.1547 348.807 90.9448 348.887 90.7243 348.916L86.9378 349.453C86.6856 349.487 86.4485 349.588 86.2533 349.744C86.0581 349.9 85.9126 350.106 85.8333 350.337C85.7541 350.569 85.7442 350.817 85.8048 351.053C85.8655 351.29 85.9943 351.505 86.1765 351.675L88.9212 354.223C89.0806 354.373 89.2002 354.557 89.2699 354.761C89.3396 354.964 89.3574 355.18 89.3219 355.391L88.6607 358.993C88.6207 359.235 88.6517 359.482 88.7501 359.708C88.8486 359.934 89.0107 360.129 89.2184 360.272C89.4261 360.415 89.6712 360.5 89.9265 360.518C90.1817 360.536 90.4371 360.485 90.6642 360.372L94.05 358.667C94.2457 358.573 94.4619 358.524 94.6811 358.524C94.9003 358.524 95.1164 358.573 95.3122 358.667L98.698 360.372C98.9242 360.493 99.1818 360.55 99.4406 360.536C99.6993 360.522 99.9485 360.437 100.159 360.292C100.369 360.148 100.532 359.948 100.628 359.718C100.724 359.488 100.75 359.237 100.701 358.993L100.06 355.391C100.025 355.18 100.043 354.964 100.112 354.761C100.182 354.557 100.302 354.373 100.461 354.223L103.206 351.675C103.388 351.505 103.517 351.29 103.577 351.053C103.638 350.817 103.628 350.569 103.549 350.337C103.47 350.106 103.324 349.9 103.129 349.744C102.934 349.588 102.697 349.487 102.444 349.453L98.6579 348.916C98.4363 348.89 98.225 348.812 98.043 348.688C97.8611 348.564 97.7144 348.399 97.6161 348.208L95.9332 344.913C95.8196 344.69 95.6429 344.503 95.4233 344.372C95.2037 344.24 94.95 344.171 94.6911 344.171C94.4322 344.171 94.1784 344.24 93.9588 344.372C93.7392 344.503 93.5626 344.69 93.4489 344.913Z" fill="#F0F0F0"/>
<path d="M698.982 368.815L697.96 370.731C697.903 370.842 697.819 370.939 697.714 371.012C697.609 371.086 697.487 371.134 697.359 371.152L695.095 371.458C694.943 371.479 694.799 371.539 694.681 371.633C694.563 371.728 694.475 371.852 694.427 371.991C694.379 372.131 694.373 372.281 694.409 372.424C694.446 372.567 694.524 372.697 694.634 372.8L696.277 374.332C696.37 374.421 696.439 374.53 696.477 374.651C696.516 374.771 696.523 374.898 696.497 375.022L696.117 377.167C696.085 377.312 696.097 377.462 696.153 377.6C696.208 377.738 696.304 377.858 696.429 377.945C696.554 378.032 696.702 378.083 696.857 378.091C697.011 378.099 697.165 378.064 697.299 377.991L699.302 376.976C699.42 376.919 699.551 376.889 699.683 376.889C699.815 376.889 699.946 376.919 700.064 376.976L702.067 377.991C702.203 378.062 702.356 378.094 702.51 378.085C702.664 378.076 702.813 378.026 702.938 377.94C703.064 377.854 703.161 377.736 703.22 377.599C703.278 377.462 703.295 377.313 703.269 377.167L702.868 375.022C702.851 374.897 702.863 374.77 702.905 374.65C702.946 374.531 703.016 374.422 703.109 374.332L704.752 372.8C704.862 372.697 704.94 372.567 704.977 372.424C705.013 372.281 705.007 372.131 704.959 371.991C704.911 371.852 704.823 371.728 704.705 371.633C704.587 371.539 704.443 371.479 704.291 371.458L702.027 371.152C701.899 371.134 701.777 371.086 701.672 371.012C701.567 370.939 701.483 370.842 701.426 370.731L700.404 368.815C700.332 368.696 700.228 368.596 700.104 368.528C699.979 368.459 699.837 368.422 699.693 368.422C699.549 368.422 699.407 368.459 699.282 368.528C699.158 368.596 699.054 368.696 698.982 368.815Z" fill="#F0F0F0"/>
<path d="M369.32 9.02547L368.299 10.9412C368.243 11.0574 368.156 11.1575 368.047 11.2315C367.938 11.3055 367.811 11.3507 367.678 11.3626L365.414 11.6883C365.263 11.7113 365.122 11.774 365.006 11.8694C364.891 11.9648 364.805 12.0891 364.759 12.2284C364.714 12.3677 364.709 12.5164 364.747 12.6579C364.785 12.7993 364.863 12.9279 364.973 13.0293L366.596 14.5427C366.691 14.6306 366.762 14.7392 366.804 14.8593C366.846 14.9794 366.857 15.1074 366.836 15.2323L366.455 17.3971C366.432 17.5399 366.45 17.6863 366.508 17.82C366.565 17.9537 366.661 18.0695 366.783 18.1547C366.905 18.2399 367.05 18.2911 367.2 18.3028C367.351 18.3145 367.502 18.2861 367.637 18.2208L369.641 17.2055C369.759 17.1483 369.889 17.1185 370.022 17.1185C370.154 17.1185 370.284 17.1483 370.402 17.2055L372.406 18.2208C372.541 18.2861 372.692 18.3145 372.843 18.3028C372.993 18.2911 373.138 18.2399 373.26 18.1547C373.382 18.0695 373.478 17.9537 373.535 17.82C373.593 17.6863 373.611 17.5399 373.588 17.3971L373.207 15.2323C373.186 15.1074 373.197 14.9794 373.239 14.8593C373.281 14.7392 373.352 14.6306 373.447 14.5427L375.09 13.0293C375.201 12.9267 375.278 12.7965 375.315 12.6537C375.352 12.5108 375.346 12.361 375.298 12.2212C375.25 12.0815 375.162 11.9574 375.043 11.8632C374.925 11.769 374.782 11.7084 374.629 11.6883L372.366 11.3626C372.233 11.3489 372.106 11.3029 371.998 11.2291C371.889 11.1554 371.802 11.0562 371.745 10.9412L370.743 9.02547C370.675 8.90094 370.573 8.79655 370.448 8.72369C370.322 8.65083 370.178 8.6123 370.032 8.6123C369.885 8.6123 369.741 8.65083 369.615 8.72369C369.49 8.79655 369.388 8.90094 369.32 9.02547Z" fill="#F5F5F5"/>
<path d="M497.107 445.603L495.344 448.994C495.245 449.191 495.096 449.36 494.911 449.488C494.725 449.615 494.509 449.695 494.283 449.722L490.276 450.277C490.014 450.311 489.767 450.415 489.565 450.577C489.362 450.738 489.211 450.952 489.129 451.192C489.048 451.432 489.039 451.69 489.103 451.934C489.168 452.179 489.303 452.402 489.494 452.576L492.319 455.22C492.485 455.374 492.608 455.565 492.678 455.775C492.748 455.986 492.762 456.21 492.72 456.427L492.059 460.258C492.025 460.499 492.059 460.745 492.158 460.969C492.257 461.194 492.418 461.388 492.622 461.533C492.827 461.678 493.069 461.768 493.322 461.793C493.575 461.818 493.831 461.777 494.062 461.676L497.548 459.913C497.752 459.809 497.979 459.755 498.209 459.755C498.44 459.755 498.667 459.809 498.871 459.913L502.377 461.676C502.608 461.777 502.864 461.818 503.117 461.793C503.37 461.768 503.612 461.678 503.816 461.533C504.021 461.388 504.181 461.194 504.28 460.969C504.38 460.745 504.414 460.499 504.38 460.258L503.699 456.427C503.661 456.208 503.679 455.984 503.752 455.773C503.826 455.563 503.952 455.373 504.12 455.22L506.944 452.576C507.135 452.402 507.271 452.179 507.336 451.934C507.4 451.69 507.391 451.432 507.31 451.192C507.228 450.952 507.077 450.738 506.874 450.577C506.671 450.415 506.425 450.311 506.163 450.277L502.156 449.722C501.93 449.695 501.714 449.615 501.528 449.488C501.342 449.36 501.193 449.191 501.094 448.994L499.351 445.603C499.218 445.44 499.048 445.308 498.854 445.217C498.659 445.126 498.446 445.079 498.229 445.079C498.013 445.079 497.8 445.126 497.605 445.217C497.411 445.308 497.241 445.44 497.107 445.603Z" fill="#F0F0F0"/>
<path d="M565.139 299.788C565.139 300.292 565.296 300.786 565.589 301.205C565.883 301.625 566.3 301.951 566.788 302.143C567.276 302.336 567.813 302.385 568.331 302.285C568.848 302.185 569.323 301.941 569.695 301.582C570.066 301.224 570.319 300.768 570.419 300.273C570.52 299.777 570.464 299.265 570.259 298.799C570.055 298.334 569.71 297.938 569.269 297.66C568.828 297.382 568.311 297.236 567.783 297.24C567.434 297.24 567.089 297.306 566.767 297.434C566.444 297.562 566.152 297.75 565.906 297.987C565.66 298.224 565.466 298.505 565.334 298.814C565.203 299.123 565.136 299.454 565.139 299.788Z" fill="#F0F0F0"/>
<path d="M601.851 76.5337C587.735 72.4961 574.019 67.278 560.86 60.9399C563.022 69.1468 567.368 76.6794 573.474 82.8057C579.581 88.9319 587.241 93.4434 595.71 95.9019C604.179 98.3603 613.17 98.682 621.807 96.8356C630.445 94.9893 638.436 91.0378 645.005 85.3651C630.377 83.6387 615.936 80.6835 601.851 76.5337Z" fill="#F5F5F5"/>
<path d="M610.605 45.2869C628.796 50.5743 649.352 47.2026 661.653 53.9459C662.835 42.6448 659.881 31.3014 653.293 21.8508C646.706 12.4002 636.893 5.42773 625.529 2.12292C614.166 -1.18189 601.955 -0.614349 590.98 3.72872C580.005 8.0718 570.946 15.9214 565.348 25.9384C579.452 26.9537 592.414 39.9996 610.605 45.2869Z" fill="#F5F5F5"/>
<path d="M533.354 26.5792C531.05 33.8014 563.786 49.7017 606.459 62.0962C649.132 74.4908 685.575 78.7054 687.859 71.5023C690.143 64.2993 657.426 48.3798 614.753 36.0236C572.08 23.6673 535.638 19.3761 533.354 26.5792Z" fill="#F5F5F5"/>
<path d="M116.589 241.794C115.563 245.584 113.466 249.031 110.528 251.758C107.591 254.484 103.925 256.386 99.933 257.254C95.9408 258.123 91.7758 257.924 87.8937 256.681C84.0116 255.437 80.562 253.196 77.9224 250.204C74.8104 246.664 72.9826 242.254 72.7135 237.637C72.6274 236.184 72.7013 234.726 72.9339 233.288C73.0489 232.553 73.2026 231.824 73.3946 231.104C74.8577 225.693 78.4822 221.047 83.4893 218.164C88.4963 215.281 94.4864 214.391 100.172 215.686C105.858 216.981 110.786 220.356 113.897 225.088C117.008 229.819 118.053 235.529 116.809 240.989C116.729 241.277 116.669 241.526 116.589 241.794Z" fill="#EBEBEB"/>
<path d="M178.182 127.589C184.642 125.33 187.821 118.838 185.281 113.09C182.742 107.342 175.445 104.514 168.984 106.773C162.524 109.033 159.345 115.525 161.885 121.273C164.425 127.021 171.721 129.849 178.182 127.589Z" fill="#EBEBEB"/>
<path d="M185.606 120.436C184.437 119.528 183.113 118.792 181.684 118.255C179.194 117.278 172.416 116.214 169.265 114.8C164.853 112.823 164.304 110.689 164.33 109.566C165.429 108.511 166.744 107.652 168.206 107.037C168.52 108.2 169.703 111.689 177.03 114.015C180.815 115.178 184.436 114.411 185.665 114.143C186.326 116.202 186.306 118.387 185.606 120.436Z" fill="#DBDBDB"/>
<path d="M180.478 126.54C178.068 127.946 175.188 128.574 172.32 128.319C169.452 128.064 166.769 126.941 164.719 125.139C165.433 124.797 166.19 124.532 166.974 124.348C170.353 123.615 174.072 125.052 175.432 125.732C176.953 126.526 178.742 126.813 180.478 126.54Z" fill="#DBDBDB"/>
<path d="M184.868 122.107L184.711 122.381L184.567 122.625C184.449 122.811 184.332 122.985 184.208 123.16C184.083 123.334 183.979 123.474 183.861 123.625L183.724 123.794L183.567 123.98L183.41 124.166L183.208 124.375L183.011 124.585L182.835 124.759C182.704 124.887 182.567 125.009 182.43 125.131C181.645 125.347 180.599 125.254 179.063 124.713C176.782 123.916 174.318 121.997 169.912 120.589C167.198 119.742 164.274 119.575 161.461 120.107C160.779 117.877 160.893 115.513 161.787 113.343C162.591 113.343 165.173 113.646 170.684 117.693C172.398 118.987 174.257 120.119 176.233 121.072C180.939 123.265 183.659 122.613 184.796 122.107H184.881H184.868Z" fill="#DBDBDB"/>
<path d="M172.92 126.299C173.142 125.845 173.927 125.717 174.672 125.996C175.417 126.275 175.842 126.892 175.613 127.345C175.384 127.799 174.606 127.927 173.861 127.648C173.116 127.369 172.698 126.781 172.92 126.299Z" fill="#C7C7C7"/>
<path d="M176.469 125.519C176.6 125.263 177.064 125.2 177.508 125.368C177.953 125.537 178.214 125.892 178.09 126.147C177.966 126.403 177.502 126.473 177.051 126.299C176.6 126.124 176.345 125.775 176.469 125.519Z" fill="#C7C7C7"/>
<path d="M166.725 111.794C166.915 111.405 167.595 111.294 168.248 111.55C168.902 111.806 169.274 112.324 169.085 112.713C168.895 113.103 168.209 113.213 167.555 112.957C166.902 112.702 166.529 112.184 166.725 111.794Z" fill="#C7C7C7"/>
<path d="M169.036 111.405C169.112 111.298 169.231 111.221 169.369 111.191C169.507 111.161 169.652 111.179 169.775 111.242C169.908 111.28 170.02 111.36 170.089 111.468C170.158 111.576 170.179 111.703 170.148 111.824C170.055 111.905 169.937 111.959 169.809 111.98C169.68 112.001 169.548 111.988 169.429 111.942C169.31 111.895 169.208 111.819 169.138 111.721C169.068 111.623 169.033 111.509 169.036 111.393V111.405Z" fill="#C7C7C7"/>
<path d="M169.411 112.45C169.461 112.386 169.537 112.341 169.623 112.325C169.71 112.308 169.8 112.322 169.875 112.363C170.071 112.438 170.182 112.601 170.117 112.723C170.051 112.845 169.849 112.886 169.653 112.81C169.457 112.735 169.352 112.578 169.411 112.45Z" fill="#C7C7C7"/>
<path d="M177.259 112.468C177.285 112.27 177.381 112.084 177.533 111.937C177.685 111.79 177.885 111.689 178.105 111.648C178.325 111.607 178.553 111.629 178.759 111.71C178.964 111.791 179.135 111.928 179.248 112.1C179.362 112.273 179.411 112.472 179.39 112.671C179.369 112.87 179.278 113.058 179.131 113.209C178.983 113.359 178.786 113.465 178.568 113.51C178.349 113.556 178.12 113.539 177.912 113.463C177.679 113.405 177.48 113.269 177.358 113.084C177.236 112.898 177.201 112.677 177.259 112.468Z" fill="#C7C7C7"/>
<path d="M176.955 114.002C176.984 113.916 177.043 113.841 177.122 113.785C177.201 113.73 177.297 113.697 177.397 113.691C177.498 113.686 177.598 113.707 177.684 113.753C177.771 113.799 177.839 113.867 177.881 113.949C177.923 114.03 177.936 114.121 177.918 114.209C177.901 114.298 177.854 114.379 177.783 114.443C177.712 114.507 177.621 114.55 177.522 114.567C177.424 114.583 177.321 114.573 177.229 114.537C177.115 114.497 177.022 114.418 176.971 114.319C176.92 114.219 176.914 114.105 176.955 114.002Z" fill="#C7C7C7"/>
<path d="M367.223 242.779C371.891 242.779 375.675 239.413 375.675 235.26C375.675 231.107 371.891 227.74 367.223 227.74C362.555 227.74 358.771 231.107 358.771 235.26C358.771 239.413 362.555 242.779 367.223 242.779Z" fill="#EBEBEB"/>
<path d="M370.297 230.782C370.317 231.142 370.207 231.498 369.984 231.799C369.757 232.111 369.438 232.361 369.062 232.521C368.678 232.695 368.233 232.73 367.82 232.619C367.431 232.506 367.098 232.276 366.879 231.968C367.177 232.17 367.524 232.307 367.892 232.369C368.063 232.396 368.238 232.396 368.408 232.369C368.581 232.345 368.748 232.298 368.905 232.23L369.141 232.114C369.212 232.067 369.291 232.026 369.356 231.98C369.502 231.885 369.634 231.773 369.748 231.648C369.992 231.393 370.178 231.099 370.297 230.782Z" fill="#C7C7C7"/>
<path d="M367.257 231.219C367.217 230.968 367.28 230.712 367.433 230.498C367.587 230.272 367.815 230.094 368.087 229.986C368.222 229.925 368.37 229.889 368.521 229.879C368.673 229.869 368.825 229.886 368.969 229.928C369.25 230.006 369.485 230.179 369.623 230.411C369.408 230.291 369.168 230.211 368.917 230.178C368.692 230.153 368.464 230.189 368.263 230.283C367.807 230.471 367.448 230.806 367.257 231.219Z" fill="#C7C7C7"/>
<path d="M367.221 238.785C367.316 239.016 367.316 239.269 367.221 239.5C367.132 239.744 366.961 239.957 366.73 240.111C366.503 240.267 366.216 240.339 365.93 240.312C365.643 240.285 365.38 240.161 365.194 239.965C365.427 240.03 365.67 240.059 365.913 240.052C366.13 240.041 366.338 239.969 366.508 239.849C366.69 239.727 366.843 239.575 366.959 239.401C367.084 239.21 367.173 239.002 367.221 238.785Z" fill="#C7C7C7"/>
<path d="M365.473 239.66C365.426 239.584 365.397 239.499 365.387 239.413C365.377 239.326 365.386 239.238 365.414 239.154C365.472 238.979 365.591 238.824 365.754 238.712C365.84 238.654 365.938 238.612 366.042 238.589C366.147 238.566 366.256 238.563 366.362 238.579C366.459 238.594 366.551 238.626 366.633 238.674C366.715 238.722 366.785 238.785 366.839 238.858C366.677 238.836 366.511 238.836 366.349 238.858C366.215 238.875 366.089 238.923 365.983 238.997C365.737 239.163 365.558 239.396 365.473 239.66Z" fill="#C7C7C7"/>
<path d="M364.178 232.023C364.253 232.085 364.313 232.16 364.355 232.243C364.396 232.326 364.418 232.415 364.42 232.506C364.422 232.706 364.335 232.898 364.178 233.041C364.097 233.112 363.999 233.165 363.891 233.198C363.784 233.23 363.669 233.24 363.557 233.227C363.356 233.208 363.17 233.128 363.027 233C363.202 233.007 363.378 232.997 363.55 232.971C363.688 232.951 363.816 232.894 363.916 232.809C364.017 232.717 364.091 232.605 364.132 232.483C364.175 232.333 364.191 232.178 364.178 232.023Z" fill="#C7C7C7"/>
<path d="M363.128 232.763C363.066 232.726 363.014 232.677 362.977 232.62C362.939 232.562 362.917 232.498 362.913 232.431C362.909 232.358 362.922 232.286 362.951 232.218C362.981 232.15 363.025 232.088 363.083 232.036C363.143 231.982 363.216 231.942 363.297 231.919C363.377 231.896 363.463 231.89 363.547 231.902C363.619 231.911 363.688 231.934 363.75 231.968C363.812 232.002 363.865 232.047 363.906 232.1C363.787 232.112 363.669 232.131 363.553 232.158C363.474 232.179 363.402 232.217 363.344 232.268C363.284 232.323 363.236 232.386 363.2 232.455C363.162 232.554 363.138 232.658 363.128 232.763Z" fill="#C7C7C7"/>
<path d="M370.053 239.953C370.004 240.033 369.937 240.104 369.856 240.16C369.775 240.216 369.682 240.256 369.583 240.279C369.473 240.306 369.359 240.313 369.246 240.299C369.134 240.285 369.026 240.25 368.929 240.198C368.833 240.146 368.752 240.076 368.691 239.992C368.63 239.908 368.59 239.814 368.576 239.715C368.548 239.535 368.589 239.353 368.694 239.197C368.73 239.351 368.784 239.502 368.857 239.645C368.91 239.758 369.001 239.854 369.119 239.918C369.244 239.984 369.386 240.02 369.531 240.023C369.708 240.024 369.884 240.001 370.053 239.953Z" fill="#C7C7C7"/>
<path d="M368.995 239.234C369.021 239.173 369.062 239.117 369.115 239.072C369.168 239.027 369.232 238.993 369.302 238.972C369.38 238.949 369.462 238.942 369.543 238.95C369.625 238.958 369.703 238.981 369.773 239.019C369.846 239.057 369.908 239.11 369.953 239.174C369.999 239.238 370.027 239.31 370.034 239.385C370.045 239.515 370.001 239.643 369.91 239.746C369.864 239.646 369.812 239.549 369.753 239.455C369.717 239.391 369.66 239.339 369.59 239.304C369.516 239.263 369.434 239.237 369.348 239.228C369.231 239.213 369.112 239.215 368.995 239.234Z" fill="#C7C7C7"/>
<path d="M372.947 234.675C372.955 234.765 372.944 234.856 372.912 234.942C372.881 235.028 372.83 235.107 372.764 235.175C372.692 235.25 372.604 235.311 372.505 235.355C372.406 235.399 372.299 235.425 372.189 235.431C372.075 235.437 371.962 235.42 371.858 235.38C371.754 235.341 371.661 235.281 371.587 235.205C371.448 235.073 371.367 234.902 371.358 234.722C371.484 234.831 371.622 234.929 371.77 235.013C371.888 235.077 372.024 235.109 372.162 235.106C372.307 235.096 372.446 235.054 372.568 234.984C372.713 234.9 372.841 234.796 372.947 234.675Z" fill="#C7C7C7"/>
<path d="M371.61 234.603C371.593 234.539 371.592 234.472 371.608 234.407C371.624 234.343 371.656 234.282 371.702 234.231C371.754 234.174 371.818 234.127 371.891 234.093C371.964 234.059 372.045 234.038 372.127 234.033C372.211 234.028 372.296 234.041 372.373 234.071C372.451 234.102 372.519 234.148 372.571 234.207C372.663 234.309 372.707 234.438 372.695 234.568C372.595 234.507 372.491 234.452 372.382 234.405C372.309 234.372 372.228 234.356 372.146 234.358C372.06 234.365 371.976 234.384 371.898 234.417C371.794 234.469 371.698 234.531 371.61 234.603Z" fill="#C7C7C7"/>
<path d="M361.74 236.364C361.751 236.454 361.742 236.546 361.711 236.633C361.681 236.72 361.631 236.801 361.563 236.87C361.491 236.944 361.403 237.005 361.305 237.049C361.206 237.093 361.098 237.119 360.988 237.126C360.874 237.131 360.76 237.113 360.655 237.074C360.55 237.035 360.456 236.975 360.38 236.899C360.246 236.765 360.166 236.595 360.151 236.416C360.28 236.524 360.42 236.622 360.57 236.707C360.687 236.772 360.824 236.804 360.962 236.8C361.106 236.789 361.245 236.747 361.367 236.678C361.513 236.596 361.64 236.489 361.74 236.364Z" fill="#C7C7C7"/>
<path d="M360.416 236.288C360.399 236.223 360.398 236.157 360.414 236.092C360.43 236.028 360.462 235.967 360.508 235.915C360.558 235.858 360.621 235.811 360.693 235.777C360.765 235.743 360.844 235.723 360.926 235.718C361.01 235.712 361.095 235.725 361.173 235.755C361.25 235.786 361.318 235.833 361.37 235.892C361.418 235.942 361.454 235.999 361.476 236.061C361.498 236.123 361.507 236.188 361.501 236.253C361.401 236.192 361.296 236.137 361.187 236.09C361.115 236.055 361.034 236.039 360.952 236.043C360.866 236.05 360.782 236.069 360.704 236.101C360.6 236.153 360.504 236.216 360.416 236.288Z" fill="#C7C7C7"/>
<path d="M222.584 156.917C219.69 156.52 216.881 155.735 214.25 154.591C201.595 149.125 200.236 135.877 198.798 121.85C197.491 108.927 196.098 95.5692 185.941 87.503C164.795 70.7309 131.459 82.961 131.126 83.089L128.387 77.3432C135.316 74.919 142.588 73.3535 149.996 72.6908C166.338 71.2253 180.404 74.7262 190.601 82.8215C202.831 92.5218 204.4 107.788 205.779 121.256C207.086 134.01 208.217 145.025 217.309 148.95C236.37 157.179 248.972 136.627 249.495 135.749L255.691 138.657C252.865 143.116 249.202 147.113 244.86 150.474C237.86 155.783 230.297 157.947 222.584 156.917Z" fill="#D9E5FF"/>
<path opacity="0.1" d="M222.584 156.917C219.69 156.52 216.881 155.735 214.25 154.591C201.595 149.125 200.236 135.877 198.798 121.85C197.491 108.927 196.098 95.5692 185.941 87.503C164.795 70.7309 131.459 82.961 131.126 83.089L128.387 77.3432C135.316 74.919 142.588 73.3535 149.996 72.6908C166.338 71.2253 180.404 74.7262 190.601 82.8215C202.831 92.5218 204.4 107.788 205.779 121.256C207.086 134.01 208.217 145.025 217.309 148.95C236.37 157.179 248.972 136.627 249.495 135.749L255.691 138.657C252.865 143.116 249.202 147.113 244.86 150.474C237.86 155.783 230.297 157.947 222.584 156.917Z" fill="black"/>
<path opacity="0.1" d="M255.692 138.677C252.866 143.135 249.203 147.13 244.861 150.488C240.651 153.675 236.233 155.722 231.703 156.629L223.813 150.721C239.187 152.552 249.031 136.502 249.502 135.734L255.692 138.677Z" fill="black"/>
<path d="M277.796 169.041C277.175 169.367 240.166 158.393 238.577 157.375C238.502 157.327 238.434 157.271 238.375 157.207C236.564 155.619 229.721 144.412 229.224 143.534C228.021 141.295 265.312 113.334 272.247 110.74C273.986 110.089 296.765 117.335 300.177 120.278C301.642 121.54 304.393 126.646 304.243 127.344C304.001 128.344 278.424 168.716 277.796 169.041Z" fill="#D9E5FF"/>
<path opacity="0.1" d="M277.796 169.041C277.175 169.367 240.166 158.393 238.577 157.375C238.502 157.327 238.434 157.271 238.375 157.207C236.564 155.619 229.721 144.412 229.224 143.534C228.021 141.295 265.312 113.334 272.247 110.74C273.986 110.089 296.765 117.335 300.177 120.278C301.642 121.54 304.393 126.646 304.243 127.344C304.001 128.344 278.424 168.716 277.796 169.041Z" fill="black"/>
<path opacity="0.1" d="M277.8 169.037C277.179 169.363 240.169 158.389 238.581 157.371C238.505 157.323 238.437 157.267 238.378 157.203C245.071 150.311 276.525 117.994 277.087 117.913C277.649 117.831 299.207 125.269 304.253 127.346C304.004 128.34 278.427 168.712 277.8 169.037Z" fill="black"/>
<path d="M224.076 235.991L194.583 249.209C188.935 251.704 184.033 253.99 181.621 255.38C181.608 255.376 181.595 255.376 181.582 255.38C180.667 255.903 180.118 256.293 180.039 256.543V256.589C179.739 258.59 200.871 299.351 202.146 300.549C203.42 301.747 207.375 298.613 207.97 296.449C208.565 294.286 208.316 275.455 208.316 275.455L237.632 262.004L224.076 235.991Z" fill="#455A64"/>
<path d="M175.557 258.29L176.609 260.413C176.883 260.324 177.173 260.278 177.465 260.279C178.033 260.28 178.585 260.45 179.032 260.761C179.479 261.073 179.797 261.508 179.934 261.998C180.071 262.489 180.021 263.006 179.79 263.468C179.56 263.929 179.162 264.31 178.661 264.548L179.609 266.478C179.893 266.382 180.194 266.333 180.498 266.333C181.069 266.333 181.623 266.503 182.071 266.817C182.52 267.131 182.837 267.569 182.971 268.063C183.105 268.556 183.049 269.075 182.812 269.537C182.574 269.998 182.169 270.375 181.662 270.607L182.616 272.544C182.904 272.438 183.213 272.384 183.525 272.387C184.199 272.387 184.846 272.625 185.323 273.05C185.799 273.474 186.067 274.049 186.067 274.649C186.07 275.07 185.94 275.483 185.692 275.841C185.443 276.199 185.086 276.487 184.662 276.673L185.616 278.598C185.919 278.495 186.24 278.441 186.564 278.441C187.142 278.439 187.702 278.612 188.155 278.932C188.607 279.252 188.923 279.699 189.052 280.2C189.18 280.7 189.113 281.225 188.862 281.688C188.611 282.15 188.19 282.523 187.669 282.744L188.623 284.669C188.929 284.555 189.258 284.496 189.59 284.495C190.171 284.493 190.734 284.667 191.188 284.99C191.641 285.312 191.957 285.762 192.083 286.266C192.209 286.77 192.137 287.297 191.88 287.76C191.623 288.223 191.196 288.593 190.669 288.81L191.623 290.735C191.935 290.609 192.274 290.546 192.617 290.549C193.197 290.551 193.759 290.729 194.21 291.054C194.661 291.378 194.974 291.83 195.097 292.334C195.22 292.839 195.147 293.365 194.888 293.827C194.63 294.289 194.202 294.659 193.676 294.876L194.63 296.806C194.951 296.671 195.301 296.602 195.656 296.603C196.239 296.606 196.802 296.786 197.254 297.114C197.705 297.442 198.016 297.897 198.136 298.404C198.256 298.911 198.177 299.439 197.913 299.901C197.648 300.363 197.214 300.73 196.683 300.941L197.578 302.756L202.154 300.552L180.041 256.545L175.557 258.29Z" fill="#37474F"/>
<path d="M190.081 252.598C190.841 253.732 191.328 254.994 191.51 256.305C191.693 257.615 191.567 258.945 191.14 260.21C190.369 262.281 188.839 264.491 186.381 265.619C186.31 265.654 186.238 265.537 186.303 265.497C190.486 262.635 192.186 256.954 189.937 252.668C189.933 252.651 189.935 252.635 189.942 252.619C189.95 252.604 189.963 252.592 189.979 252.584C189.996 252.576 190.014 252.573 190.033 252.576C190.051 252.578 190.068 252.586 190.081 252.598Z" fill="#37474F"/>
<path d="M196.121 250.598C198.004 253.372 199.631 256.285 201.22 259.199C202.808 262.112 204.344 264.979 205.88 267.881C206.756 269.545 207.632 271.214 208.403 272.918C208.415 272.94 208.417 272.966 208.408 272.989C208.399 273.013 208.379 273.032 208.354 273.043C208.329 273.053 208.3 273.055 208.274 273.047C208.247 273.039 208.226 273.021 208.214 272.999C206.377 270.202 204.769 267.277 203.122 264.392C201.475 261.507 199.854 258.664 198.324 255.768C197.428 254.104 196.592 252.429 195.84 250.714C195.83 250.682 195.833 250.648 195.848 250.617C195.864 250.587 195.891 250.563 195.925 250.549C195.959 250.535 195.997 250.532 196.033 250.541C196.069 250.55 196.1 250.57 196.121 250.598Z" fill="#37474F"/>
<path d="M198.843 249.776C200.732 252.55 202.353 255.464 203.941 258.383C205.53 261.303 207.066 264.164 208.602 267.066C209.478 268.729 210.354 270.398 211.125 272.096C211.131 272.107 211.134 272.119 211.135 272.132C211.136 272.144 211.134 272.156 211.13 272.168C211.125 272.179 211.118 272.19 211.109 272.199C211.099 272.209 211.088 272.216 211.076 272.221C211.063 272.227 211.05 272.23 211.036 272.231C211.022 272.231 211.009 272.229 210.995 272.225C210.982 272.221 210.97 272.215 210.96 272.207C210.95 272.199 210.941 272.189 210.935 272.178C209.099 269.38 207.491 266.455 205.843 263.571C204.196 260.686 202.575 257.842 201.046 254.946C200.157 253.283 199.313 251.608 198.562 249.893C198.551 249.861 198.554 249.826 198.57 249.796C198.585 249.766 198.612 249.741 198.646 249.727C198.68 249.713 198.719 249.711 198.755 249.72C198.791 249.728 198.822 249.749 198.843 249.776Z" fill="#37474F"/>
<path d="M203.374 245.279L218.624 270.728C218.624 270.728 223.199 271.606 228.873 269.268C241.429 264.11 262.451 252.107 272.961 242.889C283.825 233.357 294.486 166.548 294.486 166.548L268.863 153.394C268.863 153.394 255.555 216.393 250.666 220.941C246.253 225.047 220.67 234.032 208.61 239.65C206.1 240.84 204.218 242.863 203.374 245.279Z" fill="#D9E5FF"/>
<path d="M208.861 244.971C210.868 247.681 212.619 250.531 214.338 253.392C216.058 256.254 217.711 259.057 219.372 261.906C220.326 263.535 221.274 265.175 222.123 266.844C222.13 266.865 222.129 266.888 222.119 266.909C222.109 266.929 222.092 266.946 222.07 266.957C222.048 266.968 222.023 266.972 221.998 266.968C221.973 266.964 221.951 266.953 221.934 266.937C219.973 264.203 218.241 261.336 216.463 258.51C214.685 255.684 212.966 252.898 211.286 250.06C210.325 248.432 209.41 246.786 208.586 245.099C208.574 245.068 208.575 245.034 208.589 245.003C208.603 244.972 208.629 244.946 208.662 244.931C208.695 244.916 208.734 244.911 208.77 244.919C208.806 244.926 208.839 244.945 208.861 244.971Z" fill="#263238"/>
<path opacity="0.1" d="M260.124 191.532L294.48 166.525L268.857 153.394C268.857 153.394 264.673 173.294 260.124 191.532Z" fill="black"/>
<path opacity="0.1" d="M266.119 232.84C265.21 232.949 264.285 232.874 263.413 232.619C262.538 232.382 261.695 232.062 260.897 231.665C259.327 230.869 257.882 229.891 256.602 228.757C255.948 228.175 255.373 227.594 254.791 227.012C254.21 226.431 253.68 225.774 253.19 225.116C252.7 224.459 252.236 223.785 251.811 223.099C251.386 222.412 251.007 221.685 250.687 220.941C251.371 221.445 252.025 221.981 252.647 222.546C253.262 223.098 253.902 223.628 254.484 224.186C255.066 224.744 255.7 225.268 256.282 225.826L257.19 226.629C257.491 226.896 257.772 227.181 258.086 227.431C259.295 228.49 260.53 229.501 261.825 230.449C263.098 231.452 264.549 232.26 266.119 232.84Z" fill="black"/>
<path d="M279.134 239.345C281.979 234.012 280.838 228.232 276.585 226.437C272.332 224.641 266.578 227.508 263.733 232.842C260.888 238.175 262.03 243.954 266.282 245.75C270.535 247.545 276.289 244.678 279.134 239.345Z" fill="#D9E5FF"/>
<path opacity="0.1" d="M279.134 239.345C281.979 234.012 280.838 228.232 276.585 226.437C272.332 224.641 266.578 227.508 263.733 232.842C260.888 238.175 262.03 243.954 266.282 245.75C270.535 247.545 276.289 244.678 279.134 239.345Z" fill="black"/>
<path d="M218.376 178.588L210.585 150.04C209.127 144.579 207.741 139.81 206.767 137.408C206.767 137.408 206.767 137.408 206.767 137.367C206.607 136.782 206.298 136.237 205.865 135.774C205.865 135.774 205.865 135.774 205.82 135.774C203.702 135.059 154.292 144.137 152.691 144.974C151.089 145.812 153.626 149.935 155.861 150.947C158.097 151.959 178.739 156 178.739 156L186.831 184.456L218.376 178.588Z" fill="#455A64"/>
<path d="M204.958 131.478L202.395 131.908C202.434 132.166 202.421 132.428 202.356 132.681C202.227 133.175 201.916 133.616 201.473 133.933C201.03 134.251 200.479 134.428 199.91 134.435C199.341 134.443 198.785 134.28 198.332 133.974C197.878 133.668 197.553 133.235 197.408 132.745L195.081 133.135C195.121 133.403 195.106 133.675 195.035 133.938C194.906 134.431 194.594 134.872 194.149 135.189C193.704 135.507 193.152 135.682 192.582 135.686C192.012 135.691 191.457 135.525 191.006 135.215C190.555 134.906 190.233 134.47 190.094 133.978L187.76 134.362C187.819 134.635 187.819 134.915 187.76 135.188C187.606 135.773 187.198 136.28 186.624 136.597C186.051 136.914 185.359 137.016 184.701 136.88C184.241 136.788 183.819 136.582 183.485 136.285C183.151 135.989 182.917 135.615 182.812 135.205L180.485 135.595C180.528 135.88 180.513 136.17 180.439 136.45C180.31 136.948 179.994 137.393 179.544 137.711C179.095 138.029 178.537 138.202 177.962 138.202C177.387 138.202 176.829 138.029 176.379 137.711C175.929 137.393 175.614 136.948 175.485 136.45L173.158 136.839C173.225 137.206 173.191 137.582 173.056 137.935C172.922 138.287 172.692 138.604 172.387 138.858C172.082 139.112 171.711 139.295 171.307 139.392C170.904 139.488 170.479 139.494 170.072 139.41C169.6 139.311 169.169 139.094 168.83 138.785C168.49 138.476 168.257 138.088 168.157 137.665L165.837 138.061C165.908 138.358 165.908 138.665 165.837 138.962C165.705 139.466 165.383 139.915 164.924 140.234C164.466 140.552 163.899 140.722 163.317 140.715C162.736 140.707 162.174 140.523 161.727 140.193C161.279 139.862 160.972 139.405 160.856 138.898L158.529 139.288C158.607 139.596 158.607 139.916 158.529 140.224C158.399 140.732 158.076 141.185 157.615 141.506C157.153 141.827 156.581 141.996 155.996 141.985C155.41 141.974 154.847 141.784 154.401 141.446C153.955 141.108 153.654 140.644 153.548 140.131L151.358 140.497L152.738 144.935L205.918 135.764L204.958 131.478Z" fill="#37474F"/>
<path d="M207.904 145.356C206.49 145.758 204.997 145.894 203.52 145.755C202.044 145.615 200.616 145.204 199.328 144.548C197.236 143.385 195.164 141.588 194.484 139.197C194.484 139.133 194.609 139.093 194.641 139.162C196.824 143.431 202.662 146.176 207.858 145.216C207.876 145.216 207.894 145.222 207.909 145.231C207.924 145.241 207.935 145.255 207.94 145.271C207.945 145.287 207.945 145.304 207.938 145.319C207.931 145.334 207.919 145.347 207.904 145.356Z" fill="#37474F"/>
<path d="M208.73 151.051C205.265 152.057 201.71 152.796 198.154 153.517C194.598 154.238 191.12 154.919 187.591 155.587C185.577 155.971 183.551 156.355 181.512 156.64C181.484 156.645 181.455 156.641 181.431 156.627C181.407 156.613 181.39 156.592 181.384 156.567C181.378 156.543 181.383 156.517 181.399 156.496C181.414 156.474 181.438 156.459 181.466 156.454C184.943 155.494 188.506 154.767 192.042 153.988C195.578 153.209 199.049 152.47 202.572 151.784C204.592 151.389 206.612 151.04 208.664 150.784C208.701 150.783 208.736 150.794 208.764 150.814C208.793 150.834 208.813 150.862 208.82 150.894C208.828 150.925 208.823 150.958 208.807 150.987C208.79 151.016 208.763 151.038 208.73 151.051Z" fill="#37474F"/>
<path d="M209.01 153.611C205.539 154.617 201.983 155.355 198.434 156.077C194.884 156.798 191.394 157.478 187.871 158.147C185.851 158.531 183.825 158.915 181.785 159.2C181.757 159.204 181.729 159.199 181.706 159.185C181.682 159.17 181.666 159.149 181.661 159.124C181.656 159.099 181.662 159.074 181.678 159.053C181.694 159.032 181.718 159.018 181.746 159.013C185.223 158.054 188.786 157.327 192.315 156.553C195.845 155.78 199.329 155.036 202.846 154.344C204.872 153.954 206.892 153.605 208.944 153.343C208.981 153.343 209.016 153.353 209.044 153.373C209.073 153.393 209.093 153.422 209.1 153.453C209.108 153.485 209.103 153.518 209.087 153.546C209.07 153.575 209.043 153.598 209.01 153.611Z" fill="#37474F"/>
<path d="M294.524 166.553C294.524 166.553 287.425 173.474 281.398 178.911C276.999 182.889 272.934 186.274 271.855 186.291C270.633 186.291 265.07 185.768 263.227 185.552C263.227 185.552 235.813 212.385 221.74 218.876C216.922 221.097 201.79 218.817 197.411 212.234C190.306 201.551 183.096 185.407 180.462 175.253C179.285 170.723 180.495 165.826 180.495 165.826L212.909 157.859C212.909 157.859 216.413 163.052 217.485 166.315C219.066 171.24 220.485 186.326 220.485 186.326C229.25 180.755 237.787 170.461 237.787 170.461C237.787 170.461 240.31 158.504 256.089 146.763L294.524 166.553Z" fill="#D9E5FF"/>
<path d="M271.824 186.154C267.72 185.55 263.564 185.266 259.404 185.305C259.376 185.311 259.35 185.325 259.331 185.346C259.313 185.366 259.303 185.392 259.303 185.418C259.303 185.444 259.313 185.47 259.331 185.491C259.35 185.511 259.376 185.526 259.404 185.532C263.516 185.921 267.66 186.404 271.785 186.596C271.817 186.598 271.85 186.595 271.881 186.586C271.912 186.577 271.941 186.562 271.966 186.543C271.991 186.524 272.011 186.501 272.026 186.475C272.041 186.45 272.05 186.421 272.053 186.392C272.055 186.363 272.051 186.334 272.041 186.306C272.031 186.279 272.015 186.253 271.994 186.231C271.972 186.209 271.946 186.191 271.917 186.177C271.888 186.164 271.856 186.156 271.824 186.154Z" fill="#263238"/>
<path d="M285.66 166.463C285.712 166.352 285.522 166.23 285.457 166.341C283.375 169.629 281.109 172.822 278.666 175.907C277.554 177.349 270.874 185.043 268.305 182.956C267.874 182.601 267.9 182.043 268.24 181.339C268.652 180.496 269.606 179.687 270.26 178.966C271.698 177.373 273.077 175.744 274.365 174.058C276.8 170.935 278.866 167.597 280.529 164.096C280.536 164.073 280.535 164.049 280.525 164.028C280.514 164.006 280.496 163.989 280.472 163.978C280.448 163.968 280.422 163.965 280.396 163.971C280.37 163.976 280.348 163.99 280.332 164.009C277.528 168.631 274.333 173.058 270.776 177.251C269.024 179.245 265.71 181.903 268.063 183.531C270.417 185.16 275.626 180.525 276.901 179.181C280.426 175.297 283.371 171.021 285.66 166.463Z" fill="#263238"/>
<path d="M268.252 183.213C267.63 183.648 267.04 184.118 266.487 184.62C266.009 184.983 265.61 185.421 265.31 185.911C265.264 186.01 265.395 186.086 265.493 186.051C266.071 185.775 266.598 185.422 267.055 185.004C267.624 184.58 268.199 184.167 268.748 183.725C268.786 183.696 268.817 183.66 268.84 183.621C268.862 183.581 268.875 183.538 268.879 183.494C268.883 183.449 268.876 183.405 268.861 183.363C268.845 183.321 268.82 183.282 268.788 183.248C268.755 183.214 268.715 183.187 268.671 183.167C268.626 183.147 268.578 183.135 268.528 183.132C268.478 183.129 268.428 183.134 268.381 183.148C268.333 183.162 268.289 183.184 268.252 183.213Z" fill="#263238"/>
<path d="M185.04 169.365C188.426 168.324 191.91 167.539 195.394 166.783C198.878 166.027 202.284 165.306 205.741 164.597C207.702 164.189 209.703 163.782 211.703 163.474C211.728 163.474 211.752 163.481 211.771 163.495C211.791 163.509 211.805 163.528 211.811 163.549C211.817 163.57 211.814 163.593 211.804 163.613C211.794 163.633 211.777 163.65 211.755 163.66C208.35 164.66 204.859 165.405 201.401 166.242C197.943 167.08 194.538 167.836 191.08 168.569C189.119 168.987 187.119 169.359 185.106 169.639C185.065 169.646 185.022 169.639 184.988 169.619C184.953 169.599 184.928 169.567 184.919 169.531C184.911 169.495 184.919 169.457 184.941 169.426C184.964 169.395 185 169.373 185.04 169.365Z" fill="#263238"/>
<path opacity="0.1" d="M215.356 208.401C214.777 207.549 214.44 206.585 214.376 205.592C214.31 205.103 214.31 204.615 214.278 204.12C214.245 203.626 214.278 203.143 214.33 202.655C214.491 200.719 214.858 198.8 215.428 196.926C215.982 195.065 216.681 193.24 217.52 191.466C218.338 189.68 219.322 187.959 220.461 186.319C220.128 188.238 219.598 190.087 219.082 191.925C218.566 193.763 218.01 195.583 217.461 197.397C216.912 199.212 216.389 201.026 215.951 202.852C215.748 203.76 215.533 204.679 215.409 205.597C215.215 206.523 215.197 207.47 215.356 208.401Z" fill="black"/>
<path d="M214.317 221.651C220.952 221.651 226.331 218.256 226.331 214.068C226.331 209.88 220.952 206.484 214.317 206.484C207.682 206.484 202.303 209.88 202.303 214.068C202.303 218.256 207.682 221.651 214.317 221.651Z" fill="#D9E5FF"/>
<path opacity="0.1" d="M214.317 221.651C220.952 221.651 226.331 218.256 226.331 214.068C226.331 209.88 220.952 206.484 214.317 206.484C207.682 206.484 202.303 209.88 202.303 214.068C202.303 218.256 207.682 221.651 214.317 221.651Z" fill="black"/>
<path d="M293.655 131.933C312.872 138.737 328.253 141.488 334.332 139.912C339.652 138.528 354.83 132.718 362.216 126.42C364.445 124.524 354.373 111.579 351.287 112.608C348.202 113.637 332.737 121.372 328.697 122.646C326.403 123.367 301.394 124.198 295.708 124.286C286.217 124.437 285.125 128.915 293.655 131.933Z" fill="#FD7702"/>
<path d="M372.201 117.804C371.502 118.758 372.057 119.095 374.214 118.438C376.371 117.781 384.261 113.576 385.679 116.152C387.098 118.729 375.874 124.521 372.181 125.364C368.488 126.207 362.22 126.428 362.22 126.428C364.155 124.911 368.449 120.828 372.201 117.804Z" fill="#455A64"/>
<path d="M351.29 112.607C356.911 108.537 363.624 103.099 371.73 101.971C372.622 101.828 373.542 101.955 374.344 102.331C377.965 101.75 379.351 103.122 379.351 103.122C382.907 103.518 384.11 105.076 384.11 105.076C384.11 105.076 388.365 104.46 389.215 106.687C390.176 109.188 383.986 109.566 380.75 111.619C373.305 116.324 364.206 124.872 362.206 126.419L351.29 112.607Z" fill="#455A64"/>
<path d="M369.064 111.672C371.224 110.273 373.489 109.006 375.842 107.88C378.503 106.791 381.252 105.881 384.065 105.158C384.08 105.152 384.093 105.142 384.1 105.128C384.107 105.115 384.109 105.1 384.105 105.085C384.101 105.071 384.092 105.058 384.079 105.049C384.065 105.04 384.049 105.036 384.032 105.036C378.442 105.955 373.242 108.22 368.998 111.585C368.868 111.66 368.946 111.753 369.064 111.672Z" fill="#263238"/>
<path d="M365.213 108.094C367.455 106.89 371.416 104.797 379.378 103.203V103.163C374.223 103.567 369.297 105.242 365.154 108.001C365.017 108.083 365.063 108.176 365.213 108.094Z" fill="#263238"/>
<path d="M363.189 106.124C367.111 104.205 369.824 103.437 374.341 102.35V102.303C369.059 103.059 367.242 103.868 363.104 106.014C362.987 106.083 363.039 106.2 363.189 106.124Z" fill="#263238"/>
<path d="M351.288 112.6L362.217 126.412C361.722 128.261 360.642 129.946 359.106 131.268C356.544 133.472 336.568 140.834 330.385 140.916C324.201 140.997 300.042 135.589 291.388 131.692C282.734 127.796 287.368 124.423 293.708 124.039C300.049 123.655 326.58 122.294 328.103 121.963C329.626 121.631 342.209 114.566 344.876 113.333C347.543 112.1 351.288 112.6 351.288 112.6Z" fill="#D9E5FF"/>
<path opacity="0.1" d="M291.386 131.708C297.655 134.528 312.048 138.14 321.859 139.896L292.988 124.107C287.033 124.7 283.065 127.963 291.386 131.708Z" fill="black"/>
<path opacity="0.1" d="M347.173 114.218C348.82 116.096 350.356 118.05 351.879 120.033C353.402 122.016 354.879 123.918 356.37 125.849C357.219 126.96 358.076 128.082 358.88 129.222C358.939 129.297 358.88 129.338 358.801 129.268C357.174 127.384 355.644 125.418 354.095 123.453C352.546 121.487 351.043 119.597 349.52 117.637C348.663 116.521 347.827 115.398 347.029 114.247C346.977 114.177 347.088 114.119 347.173 114.218Z" fill="black"/>
<path d="M294.484 166.535L256.049 146.763C255.604 144.75 256.061 142.663 257.324 140.947C262.206 133.846 273.9 122.157 284.345 117.853C291.875 114.76 297.798 117.382 300.033 122.32C300.602 123.57 306.132 139.819 305.445 145.611C304.72 151.741 301.373 159.336 298.366 163.5C297.375 164.783 296.041 165.826 294.484 166.535Z" fill="#D9E5FF"/>
<path d="M294.175 168.62C294.744 168.696 296.443 165.904 296.286 165.497C296.129 165.09 256.198 144.747 255.904 144.701C255.61 144.654 253.668 148.085 254.021 148.335C254.374 148.585 293.417 168.515 294.175 168.62Z" fill="#D9E5FF"/>
<path opacity="0.1" d="M294.175 168.62C294.744 168.696 296.443 165.904 296.286 165.497C296.129 165.09 256.198 144.747 255.904 144.701C255.61 144.654 253.668 148.085 254.021 148.335C254.374 148.585 293.417 168.515 294.175 168.62Z" fill="black"/>
<path d="M286.407 145.677L305.762 149.301L306.193 134.041L286.839 130.417L286.407 145.677Z" fill="#D9E5FF"/>
<path opacity="0.2" d="M286.407 145.677L305.762 149.301L306.193 134.041L286.839 130.417L286.407 145.677Z" fill="black"/>
<path opacity="0.1" d="M286.407 145.677L288.858 146.137L289.29 130.877L286.839 130.417L286.407 145.677Z" fill="black"/>
<path opacity="0.1" d="M302.77 136.981C302.759 137.242 302.849 137.5 303.023 137.711C303.197 137.922 303.447 138.075 303.731 138.144C303.859 138.166 303.992 138.162 304.119 138.132C304.245 138.101 304.362 138.046 304.461 137.969C304.559 137.892 304.637 137.796 304.687 137.688C304.737 137.58 304.759 137.463 304.75 137.347C304.761 137.084 304.67 136.827 304.495 136.615C304.319 136.404 304.068 136.252 303.783 136.184C303.655 136.161 303.522 136.165 303.396 136.196C303.269 136.226 303.153 136.282 303.055 136.359C302.956 136.436 302.88 136.532 302.83 136.64C302.781 136.748 302.76 136.865 302.77 136.981Z" fill="black"/>
<path opacity="0.1" d="M302.681 140.247C302.671 140.509 302.76 140.766 302.934 140.977C303.109 141.188 303.358 141.341 303.642 141.41C303.771 141.434 303.904 141.431 304.031 141.401C304.158 141.371 304.276 141.315 304.375 141.238C304.474 141.161 304.551 141.064 304.601 140.956C304.651 140.847 304.671 140.73 304.662 140.613C304.672 140.352 304.583 140.094 304.409 139.883C304.234 139.672 303.985 139.52 303.701 139.45C303.572 139.427 303.439 139.43 303.311 139.46C303.184 139.49 303.067 139.545 302.968 139.623C302.869 139.7 302.792 139.796 302.742 139.905C302.692 140.013 302.671 140.13 302.681 140.247Z" fill="black"/>
<path opacity="0.1" d="M302.589 143.433C302.578 143.695 302.668 143.952 302.842 144.163C303.016 144.374 303.266 144.527 303.55 144.596C303.679 144.619 303.812 144.615 303.939 144.584C304.067 144.553 304.184 144.497 304.283 144.419C304.381 144.342 304.459 144.245 304.508 144.136C304.558 144.028 304.579 143.911 304.569 143.794C304.58 143.532 304.491 143.275 304.316 143.063C304.142 142.852 303.893 142.7 303.609 142.631C303.479 142.607 303.345 142.61 303.217 142.64C303.09 142.67 302.972 142.727 302.873 142.805C302.774 142.882 302.696 142.98 302.647 143.089C302.598 143.198 302.578 143.316 302.589 143.433Z" fill="black"/>
<path opacity="0.1" d="M299.689 136.414C299.679 136.675 299.768 136.933 299.942 137.144C300.117 137.355 300.366 137.507 300.65 137.577C300.779 137.6 300.912 137.597 301.039 137.567C301.167 137.537 301.284 137.482 301.383 137.404C301.482 137.327 301.559 137.231 301.609 137.122C301.659 137.014 301.68 136.897 301.67 136.78C301.68 136.518 301.591 136.261 301.417 136.05C301.242 135.839 300.993 135.686 300.709 135.617C300.58 135.594 300.448 135.598 300.321 135.629C300.194 135.659 300.077 135.715 299.979 135.792C299.88 135.869 299.803 135.965 299.753 136.073C299.703 136.181 299.681 136.297 299.689 136.414Z" fill="black"/>
<path opacity="0.1" d="M299.585 139.665C299.575 139.927 299.664 140.184 299.838 140.395C300.013 140.606 300.262 140.759 300.546 140.828C300.675 140.852 300.808 140.849 300.936 140.819C301.063 140.789 301.18 140.733 301.279 140.656C301.378 140.579 301.455 140.482 301.505 140.374C301.555 140.265 301.576 140.148 301.566 140.031C301.576 139.77 301.487 139.512 301.313 139.301C301.138 139.09 300.889 138.938 300.605 138.868C300.476 138.845 300.343 138.848 300.216 138.878C300.089 138.907 299.971 138.963 299.872 139.04C299.773 139.118 299.696 139.214 299.646 139.323C299.596 139.431 299.576 139.548 299.585 139.665Z" fill="black"/>
<path opacity="0.1" d="M299.508 142.886C299.498 143.149 299.588 143.407 299.763 143.618C299.939 143.829 300.19 143.981 300.475 144.049C300.604 144.073 300.737 144.07 300.864 144.04C300.991 144.01 301.108 143.955 301.206 143.877C301.305 143.8 301.381 143.703 301.43 143.595C301.479 143.486 301.499 143.369 301.488 143.253C301.499 142.991 301.409 142.733 301.235 142.522C301.061 142.311 300.811 142.159 300.527 142.09C300.399 142.067 300.266 142.071 300.139 142.101C300.013 142.132 299.896 142.188 299.797 142.265C299.699 142.342 299.621 142.438 299.571 142.545C299.521 142.653 299.499 142.77 299.508 142.886Z" fill="black"/>
<path opacity="0.1" d="M296.601 135.848C296.591 136.11 296.681 136.368 296.857 136.58C297.033 136.791 297.284 136.943 297.569 137.011C297.698 137.032 297.831 137.027 297.957 136.996C298.084 136.965 298.201 136.909 298.299 136.831C298.397 136.754 298.474 136.658 298.525 136.55C298.575 136.442 298.597 136.325 298.588 136.208C298.599 135.946 298.508 135.688 298.333 135.477C298.157 135.266 297.906 135.113 297.621 135.045C297.492 135.024 297.359 135.029 297.233 135.06C297.106 135.091 296.989 135.148 296.891 135.225C296.792 135.302 296.715 135.399 296.665 135.507C296.615 135.615 296.593 135.731 296.601 135.848Z" fill="black"/>
<path opacity="0.1" d="M296.517 139.097C296.506 139.359 296.596 139.616 296.77 139.827C296.944 140.038 297.194 140.191 297.478 140.26C297.606 140.283 297.739 140.278 297.866 140.248C297.992 140.218 298.109 140.162 298.208 140.085C298.307 140.008 298.384 139.912 298.434 139.804C298.484 139.696 298.506 139.58 298.497 139.463C298.508 139.201 298.417 138.943 298.242 138.732C298.066 138.52 297.815 138.368 297.53 138.3C297.402 138.277 297.269 138.281 297.143 138.312C297.016 138.342 296.9 138.398 296.802 138.475C296.704 138.552 296.627 138.649 296.577 138.756C296.528 138.864 296.507 138.981 296.517 139.097Z" fill="black"/>
<path opacity="0.1" d="M296.429 142.29C296.418 142.552 296.507 142.809 296.682 143.02C296.856 143.232 297.106 143.384 297.39 143.453C297.518 143.476 297.651 143.472 297.778 143.441C297.904 143.411 298.021 143.355 298.12 143.278C298.218 143.201 298.296 143.105 298.346 142.997C298.396 142.89 298.418 142.773 298.409 142.657C298.419 142.394 298.329 142.136 298.154 141.925C297.978 141.714 297.727 141.562 297.442 141.493C297.313 141.47 297.18 141.473 297.053 141.502C296.926 141.532 296.809 141.588 296.711 141.666C296.612 141.743 296.535 141.84 296.486 141.948C296.438 142.057 296.418 142.174 296.429 142.29Z" fill="black"/>
<path d="M303.066 91.3633C303.798 91.5552 307.125 91.689 308.825 94.6433C310.439 97.4347 309.786 105.111 309.929 106.856C310.073 108.601 312.466 109.182 312.694 111.177C312.89 112.922 311.426 113.317 311.067 114.509C310.792 115.434 311.596 116.998 310.38 118.254C309.276 119.418 307.766 118.906 306.779 119.167C305.792 119.429 304.818 121.267 303.027 121.54C301.236 121.814 299.935 120.191 299.014 120.069C298.092 119.947 296.562 122.29 293.614 121.645C290.666 120.999 290.209 118.627 289.039 118.004C287.869 117.382 284.653 117.708 283.483 116.132C282.313 114.556 282.404 112.695 281.894 111.927C281.385 111.159 280.025 111.078 279.515 109.409C279.005 107.74 280.822 106.978 281.293 105.658C281.62 104.733 280.836 103.733 281.757 102.39C283.025 100.54 285.679 101.354 287.078 99.4818C288.183 98.0047 291.117 91.34 296.137 90.2758C299.615 89.5547 303.066 91.3633 303.066 91.3633Z" fill="#263238"/>
<path d="M309.912 106.447C310.037 106.824 310.261 107.169 310.566 107.453L311.409 108.337C311.989 108.891 312.47 109.52 312.834 110.204C312.999 110.53 313.078 110.885 313.065 111.242C313.051 111.599 312.945 111.948 312.756 112.263C312.544 112.576 312.277 112.857 311.965 113.094C311.611 113.354 311.3 113.658 311.043 113.996C310.855 114.397 310.818 114.842 310.938 115.264C311.01 115.653 311.102 116.025 311.154 116.427C311.236 116.782 311.238 117.149 311.161 117.505C311.083 117.861 310.928 118.2 310.703 118.503C310.47 118.786 310.136 118.991 309.755 119.084C309.352 119.176 308.932 119.197 308.52 119.148C308.095 119.114 307.67 119.038 307.213 118.986C306.779 118.888 306.322 118.912 305.905 119.055C306.322 118.967 306.758 118.981 307.167 119.096C307.592 119.183 308.01 119.294 308.441 119.358C308.886 119.436 309.343 119.436 309.788 119.358C310.25 119.259 310.662 119.025 310.958 118.695C311.234 118.365 311.43 117.988 311.533 117.588C311.637 117.187 311.646 116.772 311.559 116.369C311.514 115.973 311.422 115.595 311.363 115.205C311.268 114.876 311.293 114.527 311.435 114.211C311.801 113.629 312.671 113.211 313.102 112.466C313.319 112.098 313.432 111.688 313.432 111.271C313.432 110.855 313.319 110.445 313.102 110.076C312.685 109.381 312.147 108.749 311.507 108.204L310.585 107.389C310.29 107.12 310.061 106.799 309.912 106.447Z" fill="#263238"/>
<path d="M291.082 93.5444C290.135 94.6372 289.262 95.779 288.467 96.964C288.036 97.5455 287.624 98.1271 287.16 98.6505C286.934 98.9107 286.68 99.1503 286.402 99.3658C286.342 99.4163 286.274 99.4575 286.199 99.4879C286.129 99.5291 286.051 99.5605 285.97 99.581C285.794 99.6333 285.611 99.674 285.428 99.7147C284.663 99.8722 283.908 100.066 283.166 100.296C282.383 100.526 281.698 100.964 281.205 101.552C280.966 101.86 280.817 102.216 280.774 102.588C280.756 102.949 280.813 103.31 280.944 103.652C281.239 104.289 281.366 104.977 281.316 105.664C281.461 104.976 281.414 104.267 281.179 103.6C281.081 103.28 281.05 102.947 281.088 102.617C281.147 102.3 281.295 102.002 281.519 101.75C281.99 101.255 282.608 100.888 283.303 100.692C284.016 100.465 284.768 100.343 285.532 100.174C285.722 100.128 285.918 100.075 286.108 100.017C286.317 99.9528 286.511 99.852 286.676 99.7206C286.981 99.4826 287.255 99.2154 287.493 98.9238C287.967 98.3657 288.404 97.7832 288.801 97.1792L289.938 95.3705C290.281 94.7435 290.663 94.1338 291.082 93.5444Z" fill="#263238"/>
<path d="M281.283 111.37C281.472 111.829 281.555 112.318 281.525 112.807C281.558 113.301 281.584 113.795 281.643 114.295C281.692 114.8 281.799 115.299 281.963 115.784C282.126 116.295 282.426 116.762 282.839 117.145C283.77 117.782 284.939 118.079 286.107 117.977C286.669 117.977 287.218 117.93 287.767 117.924C288.317 117.889 288.868 117.971 289.375 118.163C288.898 117.888 288.348 117.732 287.78 117.709C287.218 117.668 286.663 117.668 286.114 117.639C285.035 117.587 283.898 117.442 283.153 116.825C282.796 116.497 282.532 116.098 282.381 115.662C282.209 115.205 282.078 114.736 281.989 114.26C281.891 113.778 281.819 113.289 281.741 112.801C281.695 112.551 281.649 112.306 281.584 112.062C281.553 111.812 281.449 111.574 281.283 111.37Z" fill="#263238"/>
<path d="M290.47 119.658C290.522 120.402 293.463 125.636 297.17 126.055C298.372 126.188 299.477 120.355 299.477 120.355L299.667 119.943L302.353 114.127L295.274 108.364L294.241 107.584C294.241 107.584 293.62 109.213 292.875 111.248L292.771 111.539C292.725 111.65 292.679 111.76 292.646 111.865C292.529 112.167 292.411 112.481 292.306 112.789C292.202 113.098 292.137 113.255 292.058 113.505L291.81 114.249C291.226 116.023 290.778 117.83 290.47 119.658Z" fill="#FD7702"/>
<path d="M302.354 114.147L299.779 119.718C296.346 118.017 293.795 115.192 292.667 111.844L292.876 111.262C293.628 109.232 294.242 107.604 294.242 107.604L295.275 108.372L302.354 114.147Z" fill="#263238"/>
<path d="M312.861 105.866C312.096 116.846 304.618 117.677 301.958 117.497C299.546 117.363 291.336 116.631 290.846 105.639C290.355 94.6477 296.317 91.5248 301.827 91.5713C307.337 91.6178 313.625 94.8978 312.861 105.866Z" fill="#FD7702"/>
<path d="M291.294 105.354C293.254 105.738 294.313 102.057 294.313 102.057C294.313 102.057 298.386 102.563 300.536 97.5207C300.176 99.0628 299.317 100.478 298.065 101.592C298.065 101.592 305.353 101.795 309.177 96.817C309.177 96.817 307.55 99.3933 306.269 100.225C306.269 100.225 309.393 99.8469 311.197 97.8522C311.197 97.8522 311.981 101.091 312.818 102.063C312.818 102.063 314.25 90.8444 302.425 90.6118C302.425 90.6118 295.072 90.1466 291.66 94.9618C288.247 99.7771 291.294 105.354 291.294 105.354Z" fill="#263238"/>
<path d="M292.73 106.615C292.73 106.615 290.632 102.87 288.756 103.486C286.88 104.102 288.063 109.302 289.978 110.232C290.216 110.368 290.482 110.46 290.76 110.502C291.038 110.544 291.323 110.536 291.598 110.478C291.872 110.42 292.131 110.313 292.358 110.164C292.585 110.014 292.776 109.826 292.92 109.61L292.73 106.615Z" fill="#FD7702"/>
<path d="M289.125 104.948V104.994C290.432 105.698 291.021 106.972 291.341 108.263C291.279 108.125 291.185 108.001 291.064 107.899C290.943 107.796 290.799 107.719 290.641 107.671C290.484 107.622 290.316 107.605 290.15 107.62C289.985 107.635 289.824 107.682 289.681 107.757C289.672 107.76 289.665 107.765 289.66 107.772C289.655 107.778 289.652 107.786 289.652 107.794C289.652 107.803 289.655 107.811 289.66 107.817C289.665 107.824 289.672 107.829 289.681 107.832C289.939 107.802 290.201 107.842 290.434 107.945C290.667 108.049 290.86 108.212 290.988 108.414C291.196 108.762 291.363 109.128 291.485 109.507C291.537 109.629 291.772 109.6 291.746 109.466V109.42C292.086 107.821 291.086 105.349 289.125 104.948Z" fill="#263238"/>
<path d="M291.469 109.913C291.445 110.055 291.359 110.183 291.229 110.269C291.099 110.355 290.937 110.392 290.776 110.372C290.623 110.352 290.485 110.281 290.389 110.173C290.293 110.065 290.247 109.928 290.26 109.791C290.283 109.648 290.368 109.519 290.497 109.433C290.627 109.346 290.789 109.308 290.95 109.329C291.11 109.349 291.255 109.424 291.352 109.54C291.45 109.655 291.492 109.799 291.469 109.942V109.913Z" fill="white"/>
<path d="M310.757 103.352C310.486 103.288 310.22 103.208 309.96 103.114C309.665 103.069 309.396 102.938 309.195 102.742C309.145 102.668 309.124 102.582 309.135 102.497C309.145 102.412 309.187 102.332 309.254 102.27C309.406 102.168 309.586 102.103 309.775 102.083C309.965 102.062 310.157 102.087 310.332 102.154C310.711 102.237 311.04 102.445 311.254 102.736C311.301 102.805 311.324 102.885 311.32 102.965C311.316 103.046 311.286 103.124 311.234 103.189C311.181 103.255 311.107 103.305 311.023 103.334C310.938 103.363 310.846 103.369 310.757 103.352Z" fill="#263238"/>
<path d="M302.737 103.147C303.018 103.095 303.267 103.001 303.541 102.926C303.836 102.884 304.106 102.757 304.312 102.565C304.364 102.493 304.387 102.407 304.378 102.322C304.368 102.236 304.327 102.156 304.26 102.094C304.111 101.989 303.933 101.921 303.745 101.897C303.557 101.872 303.365 101.892 303.188 101.955C302.803 102.036 302.467 102.244 302.247 102.536C302.203 102.605 302.182 102.683 302.186 102.762C302.191 102.841 302.22 102.917 302.272 102.981C302.324 103.046 302.395 103.095 302.477 103.125C302.56 103.154 302.65 103.162 302.737 103.147Z" fill="#263238"/>
<path d="M304.159 105.503C304.159 105.503 304.087 105.503 304.087 105.561C304.041 106.3 303.851 107.131 303.08 107.306V107.352C304.015 107.317 304.257 106.207 304.159 105.503Z" fill="#263238"/>
<path d="M303.503 104.658C302.196 104.466 301.843 106.827 303.065 106.984C304.287 107.141 304.614 104.821 303.503 104.658Z" fill="#263238"/>
<path d="M302.974 104.73C302.725 104.841 302.464 105.05 302.183 105.044C301.902 105.039 301.647 104.759 301.47 104.498C301.47 104.469 301.424 104.498 301.418 104.498C301.346 104.709 301.367 104.937 301.478 105.135C301.588 105.333 301.78 105.486 302.013 105.562C302.496 105.678 302.915 105.324 303.104 104.882C303.143 104.823 303.078 104.69 302.974 104.73Z" fill="#263238"/>
<path d="M308.878 105.738C308.878 105.738 308.937 105.779 308.931 105.808C308.793 106.535 308.774 107.389 309.48 107.721C309.48 107.721 309.48 107.767 309.48 107.762C308.578 107.541 308.617 106.407 308.878 105.738Z" fill="#263238"/>
<path d="M309.722 105.045C311.062 105.115 310.807 107.482 309.572 107.418C308.337 107.354 308.605 104.987 309.722 105.045Z" fill="#263238"/>
<path d="M310.265 105.25C310.461 105.395 310.644 105.64 310.919 105.68C311.193 105.721 311.455 105.483 311.664 105.25H311.703C311.67 105.704 311.448 106.163 310.951 106.21C310.455 106.256 310.213 105.832 310.141 105.372C310.102 105.314 310.186 105.198 310.265 105.25Z" fill="#263238"/>
<path d="M303.423 111.463C303.587 111.667 303.737 111.928 304.031 111.998C304.334 112.038 304.644 112.022 304.94 111.952C304.972 111.952 304.992 111.952 304.972 111.992C304.826 112.116 304.646 112.203 304.449 112.244C304.253 112.285 304.047 112.279 303.855 112.225C303.696 112.161 303.563 112.057 303.471 111.925C303.379 111.794 303.333 111.641 303.338 111.486C303.338 111.477 303.341 111.468 303.346 111.461C303.352 111.453 303.361 111.448 303.371 111.445C303.38 111.442 303.391 111.443 303.4 111.446C303.41 111.449 303.418 111.455 303.423 111.463Z" fill="#263238"/>
<path d="M307.319 109.023C307.319 109.023 307.351 110.133 307.286 110.651C307.286 110.698 307.136 110.709 306.933 110.698C306.424 110.727 305.916 110.631 305.464 110.421C305.012 110.21 304.634 109.894 304.371 109.505C304.338 109.453 304.423 109.406 304.469 109.441C305.147 109.969 306.001 110.286 306.9 110.343C306.959 110.203 306.783 108.441 306.9 108.447C307.355 108.524 307.796 108.659 308.207 108.848C308.207 106.522 307.828 104.231 307.881 101.922C307.881 101.903 307.889 101.886 307.904 101.872C307.918 101.859 307.938 101.852 307.959 101.852C307.98 101.852 308 101.859 308.015 101.872C308.029 101.886 308.038 101.903 308.038 101.922C308.554 104.376 308.792 106.87 308.75 109.366C308.685 109.645 307.541 109.139 307.319 109.023Z" fill="#263238"/>
<path d="M306.695 110.588C306.312 110.944 305.833 111.207 305.303 111.35C305.009 111.416 304.7 111.404 304.414 111.315C303.799 111.106 303.845 110.582 304.015 110.152C304.11 109.924 304.233 109.705 304.381 109.5C305.003 110.072 305.813 110.453 306.695 110.588Z" fill="#263238"/>
<path d="M305.303 111.346C305.009 111.413 304.7 111.4 304.414 111.311C303.799 111.102 303.845 110.578 304.015 110.148C304.349 110.191 304.658 110.332 304.891 110.549C305.125 110.766 305.269 111.047 305.303 111.346Z" fill="#FF98B9"/>
<path d="M285.204 119.042C285.219 120.026 285.533 120.989 286.113 121.827C287.963 124.543 292.93 126.747 297.878 126.212C301.022 125.869 302.964 124.741 303.944 123.304C300.66 123.843 297.283 123.74 294.048 123.004C290.812 122.268 287.795 120.916 285.204 119.042Z" fill="#455A64"/>
<path d="M280.949 115.402C286.558 123.922 302.873 127.69 313.148 120.002C320.404 114.558 323.606 103.34 318.142 94.0063C310.207 80.5084 294.166 81.8983 285.205 88.4874C275.785 95.4311 276.707 108.935 280.949 115.402ZM291.891 93.8319C299.127 89.0922 312.115 88.8072 318.429 98.4087C320.382 101.429 321.034 104.978 320.266 108.395C319.498 111.811 317.361 114.864 314.253 116.984C305.925 122.537 292.806 119.926 288.329 113.861C284.937 109.261 284.237 98.8449 291.891 93.8319Z" fill="#D9E5FF"/>
<path opacity="0.1" d="M288.327 113.861C292.805 119.926 305.923 122.538 314.251 116.984C317.357 114.864 319.493 111.813 320.261 108.397C321.029 104.982 320.378 101.435 318.428 98.4146C312.113 88.8131 299.125 89.1097 291.889 93.8378C284.235 98.8508 284.935 109.266 288.327 113.861Z" fill="#455A64"/>
<path opacity="0.1" d="M288.327 113.861C292.805 119.926 305.923 122.538 314.251 116.984C317.357 114.864 319.493 111.813 320.261 108.397C321.029 104.982 320.378 101.435 318.428 98.4146C312.113 88.8131 299.125 89.1097 291.889 93.8378C284.235 98.8508 284.935 109.266 288.327 113.861Z" fill="#455A64"/>
<g opacity="0.2">
<path d="M303.886 90.6436C310.031 96.2003 315.474 102.339 320.116 108.951C320.668 106.995 320.737 104.955 320.318 102.973C317.308 99.1263 314.022 95.4568 310.481 91.9869C308.4 91.1666 306.161 90.7105 303.886 90.6436Z" fill="white"/>
<path d="M286.114 108.265C286.398 110.251 287.151 112.162 288.324 113.871C289.813 115.764 291.844 117.268 294.206 118.227C291.78 114.738 289.076 111.409 286.114 108.265Z" fill="white"/>
<path d="M300.285 90.8328C307.49 97.1315 313.745 104.235 318.895 111.967C319.019 111.751 319.13 111.536 319.234 111.315C314.171 103.811 308.073 96.8986 301.083 90.7397L300.285 90.8328Z" fill="white"/>
<path d="M286.465 101.316C292.549 106.924 297.8 113.204 302.087 120.001C302.335 120.001 302.584 120.001 302.839 120.001C298.416 112.964 292.97 106.476 286.641 100.705C286.576 100.914 286.511 101.112 286.465 101.316Z" fill="white"/>
<path d="M285.895 105.42C285.895 105.699 285.895 105.967 285.895 106.24C289.8 110.21 293.3 114.482 296.353 119.005C296.647 119.098 296.941 119.185 297.242 119.261C293.972 114.332 290.171 109.696 285.895 105.42Z" fill="white"/>
<path d="M288.925 96.4924C296.732 103.213 303.344 110.951 308.534 119.441C309.29 119.26 310.03 119.033 310.75 118.76C305.368 109.958 298.483 101.952 290.343 95.0269C289.83 95.4833 289.356 95.9731 288.925 96.4924Z" fill="white"/>
</g>
<path d="M275.125 108.019C274.053 105.692 274.034 100.877 276.766 98.5859C279.381 96.4225 283.819 96.2073 285.793 101.116C287.153 104.506 286.074 108.408 283.969 110.205C280.989 112.747 276.537 111.13 275.125 108.019Z" fill="#D9E5FF"/>
<path opacity="0.1" d="M275.125 108.019C274.053 105.692 274.034 100.877 276.766 98.5859C279.381 96.4225 283.819 96.2073 285.793 101.116C287.153 104.506 286.074 108.408 283.969 110.205C280.989 112.747 276.537 111.13 275.125 108.019Z" fill="black"/>
<path d="M274.306 107.173C273.482 105.358 273.469 101.683 275.567 99.9206C277.528 98.2574 280.986 98.0945 282.502 101.863C283.548 104.468 282.718 107.469 281.097 108.842C278.816 110.802 275.397 109.557 274.306 107.173Z" fill="#D9E5FF"/>
<path d="M279.554 127.391C282.286 141.849 295.242 160.54 299.556 164.751C306.125 171.188 336.278 164.285 342.422 163.239C345.037 162.797 336.964 142.448 334.153 142.884C331.702 143.256 308.661 149.281 307.975 148.56C307.419 147.979 296.281 134.603 288.293 125.792C281.404 118.191 278.835 123.565 279.554 127.391Z" fill="#FD7702"/>
<path d="M328.724 144.127L332.94 143.132C334.294 142.779 335.583 142.25 336.764 141.562C341.489 139.137 354.745 135.927 366.714 144.47C371.289 147.733 370.727 152.03 365.289 149.384C361.452 147.523 358.975 145.941 357.536 145.645C357.536 145.645 360.151 151.123 358.099 154.054C356.315 156.616 354.329 159.063 352.157 161.376C351.591 161.117 351.043 160.827 350.516 160.509C349.596 161.602 348.348 162.442 346.915 162.93C345.482 163.419 343.923 163.538 342.418 163.272L335.626 164.563L328.724 144.127Z" fill="#455A64"/>
<path d="M341.691 139.886C344.496 140.374 350.424 141.508 354.908 143.957C359.889 146.649 368.674 153.041 366.399 156.291C364.733 158.676 361.137 156.495 361.137 156.495C361.137 156.495 364.138 159.816 362.105 161.677C360.248 163.375 357.582 161.543 357.582 161.543C357.582 161.543 359.013 163.834 356.876 165.16C354.3 166.759 351.718 161.671 347.542 161.299C346.6 161.2 341.691 139.886 341.691 139.886Z" fill="#455A64"/>
<path d="M350.831 148.136C353.387 148.985 358.629 152.207 361.145 156.365C361.198 156.458 361.145 156.545 361.08 156.469C358.043 153.347 354.593 150.562 350.805 148.176C350.805 148.176 350.805 148.13 350.831 148.136Z" fill="#263238"/>
<path d="M347.958 152.686C350.076 153.622 355.311 157.187 357.697 161.444C357.75 161.543 357.697 161.63 357.625 161.549C354.778 158.29 351.524 155.33 347.925 152.726C347.925 152.726 347.892 152.674 347.958 152.686Z" fill="#263238"/>
<path d="M328.729 144.097L335.631 164.516C335.631 164.516 334.252 166.842 328.075 167.9C321.898 168.959 303.89 169.244 299.739 165.859C295.589 162.474 284.104 144.923 280.097 131.937C276.09 118.951 284.496 120.166 288.902 125.79C293.307 131.414 307.995 147.726 308.433 147.889C308.871 148.052 319.172 144.551 322.905 143.876C326.637 143.202 328.729 144.097 328.729 144.097Z" fill="#D9E5FF"/>
<path d="M305.88 145.238C304.847 144.302 303.879 143.325 302.918 142.33C301.958 141.336 301.029 140.335 300.108 139.324C299.186 138.312 298.291 137.282 297.421 136.224L296.114 134.642C295.696 134.101 295.264 133.572 294.872 133.02C295.388 133.485 295.872 133.973 296.375 134.45L297.827 135.921C298.794 136.904 299.716 137.916 300.637 138.928C301.559 139.94 302.461 140.975 303.324 142.034C304.187 143.092 305.076 144.145 305.88 145.238Z" fill="#263238"/>
<path d="M297.626 136.022C297.344 135.631 297.105 135.216 296.913 134.783C296.72 134.351 296.552 133.91 296.41 133.463C296.6 133.637 296.762 133.832 296.894 134.044C297.025 134.247 297.141 134.457 297.24 134.673C297.443 135.103 297.573 135.558 297.626 136.022Z" fill="#263238"/>
<path d="M297.932 164.035C297.043 163.093 296.226 162.092 295.402 161.098C294.579 160.103 293.827 159.063 293.069 158.027C291.559 155.957 290.173 153.817 288.846 151.63C287.519 149.444 286.323 147.228 285.238 144.948C284.14 142.68 283.178 140.363 282.355 138.004C282.931 139.133 283.414 140.284 284.009 141.395C284.604 142.506 285.127 143.651 285.735 144.75L287.539 148.071C288.193 149.164 288.787 150.264 289.461 151.334C290.729 153.52 292.121 155.643 293.526 157.731C294.932 159.819 296.402 161.982 297.932 164.035Z" fill="#263238"/>
<path d="M284.128 142.113C283.69 141.817 283.291 141.477 282.939 141.101C282.58 140.73 282.273 140.322 282.023 139.886C282.461 140.18 282.858 140.52 283.207 140.898C283.57 141.267 283.879 141.675 284.128 142.113Z" fill="#263238"/>
<path opacity="0.1" d="M325.371 146.358C326.3 148.585 327.097 150.865 327.875 153.145C328.653 155.424 329.417 157.657 330.169 159.914C330.601 161.211 331.032 162.508 331.411 163.81C331.411 163.898 331.352 163.915 331.32 163.81C330.411 161.571 329.627 159.286 328.81 157.024C327.992 154.761 327.215 152.522 326.45 150.266C326.012 148.969 325.6 147.678 325.234 146.364C325.195 146.265 325.319 146.236 325.371 146.358Z" fill="black"/>
<path d="M345.262 231.71L348.863 232.304L349.667 235.682L350.471 232.304L354.073 231.71L350.484 230.931L349.667 227.744L348.844 230.931L345.262 231.71Z" fill="#C7C7C7"/>
<path d="M170.353 222.618L173.948 223.212L174.758 226.585L175.562 223.212L179.157 222.613L175.575 221.833L174.758 218.646L173.935 221.833L170.353 222.618Z" fill="#C7C7C7"/>
<path d="M308.489 177.382L312.091 177.975L312.895 181.354L313.699 177.975L317.3 177.382L313.718 176.602L312.895 173.416L312.078 176.602L308.489 177.382Z" fill="#C7C7C7"/>
<path d="M379.49 211.82L381.503 212.152L381.955 214.036L382.406 212.152L384.412 211.82L382.412 211.384L381.955 209.599L381.497 211.384L379.49 211.82Z" fill="#C7C7C7"/>
<path d="M226.774 283.65L228.788 283.982L229.232 285.866L229.683 283.982L231.696 283.65L229.69 283.214L229.232 281.429L228.775 283.214L226.774 283.65Z" fill="#C7C7C7"/>
<path d="M374.571 126.862L376.585 127.193L377.036 129.083L377.48 127.193L379.493 126.862L377.493 126.426L377.036 124.646L376.571 126.426L374.571 126.862Z" fill="#C7C7C7"/>
<path d="M137.173 167.47L139.186 167.802L139.637 169.692L140.088 167.802L142.101 167.47L140.095 167.034L139.637 165.254L139.18 167.034L137.173 167.47Z" fill="#C7C7C7"/>
<path d="M147.975 263.531L149.988 263.863L150.439 265.747L150.89 263.863L152.897 263.531L150.896 263.095L150.439 261.31L149.981 263.095L147.975 263.531Z" fill="#C7C7C7"/>
<path d="M366.808 174.673L368.821 174.999L369.272 176.889L369.716 174.999L371.73 174.667L369.729 174.237L369.272 172.452L368.808 174.237L366.808 174.673Z" fill="#C7C7C7"/>
<path d="M208.683 84.0965L210.696 84.428L211.147 86.3123L211.598 84.428L213.611 84.0907L211.604 83.6546L211.147 81.875L210.689 83.6546L208.683 84.0965Z" fill="#C7C7C7"/>
<path d="M287.464 228.809L289.477 229.14L289.928 231.025L290.379 229.14L292.392 228.809L290.386 228.373L289.928 226.587L289.471 228.373L287.464 228.809Z" fill="#C7C7C7"/>
<path d="M222.009 287.735C222.164 287.735 222.312 287.79 222.421 287.887C222.53 287.984 222.591 288.116 222.591 288.253C222.591 288.39 222.53 288.522 222.421 288.619C222.312 288.716 222.164 288.771 222.009 288.771C221.855 288.771 221.707 288.716 221.598 288.619C221.489 288.522 221.428 288.39 221.428 288.253C221.428 288.116 221.489 287.984 221.598 287.887C221.707 287.79 221.855 287.735 222.009 287.735Z" fill="#C7C7C7"/>
<path d="M326.077 190.381C326.222 190.395 326.355 190.456 326.453 190.552C326.55 190.648 326.604 190.773 326.604 190.902C326.604 191.031 326.55 191.156 326.453 191.252C326.355 191.348 326.222 191.409 326.077 191.422C325.933 191.409 325.799 191.348 325.702 191.252C325.605 191.156 325.551 191.031 325.551 190.902C325.551 190.773 325.605 190.648 325.702 190.552C325.799 190.456 325.933 190.395 326.077 190.381Z" fill="#C7C7C7"/>
<path d="M189.776 283.842C189.921 283.855 190.055 283.916 190.152 284.012C190.249 284.108 190.303 284.233 190.303 284.362C190.303 284.492 190.249 284.616 190.152 284.712C190.055 284.808 189.921 284.869 189.776 284.883C189.632 284.869 189.498 284.808 189.401 284.712C189.304 284.616 189.25 284.492 189.25 284.362C189.25 284.233 189.304 284.108 189.401 284.012C189.498 283.916 189.632 283.855 189.776 283.842Z" fill="#C7C7C7"/>
<path d="M353.841 197.182C353.985 197.195 354.119 197.256 354.216 197.352C354.313 197.448 354.367 197.573 354.367 197.702C354.367 197.831 354.313 197.956 354.216 198.052C354.119 198.148 353.985 198.209 353.841 198.223C353.696 198.209 353.563 198.148 353.465 198.052C353.368 197.956 353.314 197.831 353.314 197.702C353.314 197.573 353.368 197.448 353.465 197.352C353.563 197.256 353.696 197.195 353.841 197.182Z" fill="#C7C7C7"/>
<path d="M236.624 278.395C236.733 278.395 236.838 278.434 236.915 278.502C236.992 278.571 237.036 278.664 237.036 278.761C237.036 278.859 236.992 278.952 236.915 279.02C236.838 279.089 236.733 279.128 236.624 279.128C236.515 279.128 236.41 279.089 236.333 279.02C236.255 278.952 236.212 278.859 236.212 278.761C236.212 278.664 236.255 278.571 236.333 278.502C236.41 278.434 236.515 278.395 236.624 278.395Z" fill="#C7C7C7"/>
<path d="M154.212 87.7422C154.321 87.7422 154.426 87.7808 154.503 87.8495C154.58 87.9182 154.623 88.0114 154.623 88.1086C154.623 88.2057 154.58 88.2989 154.503 88.3676C154.426 88.4363 154.321 88.4749 154.212 88.4749C154.102 88.4749 153.998 88.4363 153.92 88.3676C153.843 88.2989 153.8 88.2057 153.8 88.1086C153.8 88.0114 153.843 87.9182 153.92 87.8495C153.998 87.7808 154.102 87.7422 154.212 87.7422Z" fill="#C7C7C7"/>
<path d="M313.381 205.755C313.49 205.755 313.595 205.794 313.672 205.863C313.749 205.931 313.792 206.025 313.792 206.122C313.792 206.219 313.749 206.312 313.672 206.381C313.595 206.45 313.49 206.488 313.381 206.488C313.271 206.488 313.167 206.45 313.089 206.381C313.012 206.312 312.969 206.219 312.969 206.122C312.969 206.025 313.012 205.931 313.089 205.863C313.167 205.794 313.271 205.755 313.381 205.755Z" fill="#C7C7C7"/>
<path d="M299.385 199.071C299.668 199.09 299.932 199.203 300.124 199.388C300.317 199.573 300.424 199.816 300.424 200.068C300.424 200.32 300.317 200.563 300.124 200.748C299.932 200.933 299.668 201.046 299.385 201.066C299.103 201.046 298.839 200.933 298.646 200.748C298.454 200.563 298.347 200.32 298.347 200.068C298.347 199.816 298.454 199.573 298.646 199.388C298.839 199.203 299.103 199.09 299.385 199.071Z" fill="#C7C7C7"/>
<path d="M217.484 121.201L221.086 121.794L221.89 125.167L222.694 121.794L226.296 121.195L222.707 120.416L221.89 117.229L221.066 120.416L217.484 121.201Z" fill="#C7C7C7"/>
<path d="M255.868 69.349L257.881 69.6805L258.332 71.5706L258.783 69.6805L260.797 69.349L258.79 68.9129L258.332 67.1333L257.875 68.9129L255.868 69.349Z" fill="#C7C7C7"/>
<path d="M133.871 117.803C134.016 117.817 134.149 117.878 134.246 117.974C134.344 118.07 134.397 118.194 134.397 118.324C134.397 118.453 134.344 118.578 134.246 118.674C134.149 118.77 134.016 118.831 133.871 118.844C133.727 118.831 133.593 118.77 133.496 118.674C133.398 118.578 133.345 118.453 133.345 118.324C133.345 118.194 133.398 118.07 133.496 117.974C133.593 117.878 133.727 117.817 133.871 117.803Z" fill="#C7C7C7"/>
<path d="M143.036 255.454C143.19 255.454 143.338 255.508 143.447 255.605C143.556 255.702 143.618 255.834 143.618 255.971C143.618 256.108 143.556 256.24 143.447 256.337C143.338 256.434 143.19 256.489 143.036 256.489C142.882 256.489 142.734 256.434 142.624 256.337C142.515 256.24 142.454 256.108 142.454 255.971C142.454 255.834 142.515 255.702 142.624 255.605C142.734 255.508 142.882 255.454 143.036 255.454Z" fill="#C7C7C7"/>
<path d="M157.099 161.311C157.254 161.311 157.403 161.366 157.512 161.463C157.622 161.561 157.684 161.693 157.684 161.832C157.684 161.97 157.622 162.102 157.512 162.2C157.403 162.297 157.254 162.352 157.099 162.352C156.944 162.352 156.795 162.297 156.685 162.2C156.575 162.102 156.514 161.97 156.514 161.832C156.514 161.693 156.575 161.561 156.685 161.463C156.795 161.366 156.944 161.311 157.099 161.311Z" fill="#C7C7C7"/>
<path d="M180.194 230.716C180.303 230.716 180.408 230.755 180.485 230.824C180.562 230.892 180.606 230.986 180.606 231.083C180.606 231.18 180.562 231.273 180.485 231.342C180.408 231.41 180.303 231.449 180.194 231.449C180.085 231.449 179.98 231.41 179.903 231.342C179.826 231.273 179.782 231.18 179.782 231.083C179.782 230.986 179.826 230.892 179.903 230.824C179.98 230.755 180.085 230.716 180.194 230.716Z" fill="#C7C7C7"/>
<path d="M267.248 277.774C267.357 277.774 267.462 277.813 267.539 277.882C267.616 277.95 267.66 278.044 267.66 278.141C267.66 278.238 267.616 278.331 267.539 278.4C267.462 278.469 267.357 278.507 267.248 278.507C267.139 278.507 267.034 278.469 266.957 278.4C266.879 278.331 266.836 278.238 266.836 278.141C266.836 278.044 266.879 277.95 266.957 277.882C267.034 277.813 267.139 277.774 267.248 277.774Z" fill="#C7C7C7"/>
<path d="M328.542 109.785C328.651 109.785 328.756 109.824 328.833 109.892C328.91 109.961 328.953 110.054 328.953 110.152C328.953 110.249 328.91 110.342 328.833 110.411C328.756 110.479 328.651 110.518 328.542 110.518C328.432 110.518 328.328 110.479 328.25 110.411C328.173 110.342 328.13 110.249 328.13 110.152C328.13 110.054 328.173 109.961 328.25 109.892C328.328 109.824 328.432 109.785 328.542 109.785Z" fill="#C7C7C7"/>
<path d="M253.982 87.3218C254.091 87.3218 254.196 87.3604 254.273 87.4291C254.351 87.4978 254.394 87.591 254.394 87.6882C254.394 87.7853 254.351 87.8785 254.273 87.9472C254.196 88.0159 254.091 88.0545 253.982 88.0545C253.873 88.0545 253.768 88.0159 253.691 87.9472C253.614 87.8785 253.57 87.7853 253.57 87.6882C253.57 87.591 253.614 87.4978 253.691 87.4291C253.768 87.3604 253.873 87.3218 253.982 87.3218Z" fill="#C7C7C7"/>
<path d="M229.238 217.663C229.534 217.663 229.819 217.768 230.028 217.954C230.238 218.141 230.356 218.394 230.356 218.658C230.356 218.921 230.238 219.174 230.028 219.361C229.819 219.547 229.534 219.652 229.238 219.652C228.941 219.652 228.657 219.547 228.447 219.361C228.238 219.174 228.12 218.921 228.12 218.658C228.12 218.394 228.238 218.141 228.447 217.954C228.657 217.768 228.941 217.663 229.238 217.663Z" fill="#C7C7C7"/>
<path d="M376.541 142.491C376.837 142.491 377.121 142.595 377.331 142.782C377.541 142.968 377.658 143.221 377.658 143.485C377.658 143.749 377.541 144.002 377.331 144.188C377.121 144.375 376.837 144.48 376.541 144.48C376.244 144.48 375.96 144.375 375.75 144.188C375.541 144.002 375.423 143.749 375.423 143.485C375.423 143.221 375.541 142.968 375.75 142.782C375.96 142.595 376.244 142.491 376.541 142.491Z" fill="#C7C7C7"/>
<path d="M147.685 229.714C147.982 229.714 148.266 229.819 148.475 230.005C148.685 230.192 148.803 230.445 148.803 230.708C148.803 230.972 148.685 231.225 148.475 231.412C148.266 231.598 147.982 231.703 147.685 231.703C147.389 231.703 147.104 231.598 146.895 231.412C146.685 231.225 146.567 230.972 146.567 230.708C146.567 230.445 146.685 230.192 146.895 230.005C147.104 229.819 147.389 229.714 147.685 229.714Z" fill="#C7C7C7"/>
<path d="M215.923 137.247L217.936 137.578L218.387 139.469L218.832 137.578L220.845 137.247L218.845 136.811L218.387 135.031L217.923 136.811L215.923 137.247Z" fill="#C7C7C7"/>
<path d="M284.376 281.717L286.389 282.049L286.84 283.939L287.285 282.049L289.298 281.717L287.298 281.281L286.84 279.501L286.383 281.281L284.376 281.717Z" fill="#C7C7C7"/>
<path d="M293.296 258.468C293.45 258.468 293.598 258.523 293.707 258.62C293.816 258.717 293.877 258.849 293.877 258.986C293.877 259.123 293.816 259.255 293.707 259.352C293.598 259.449 293.45 259.503 293.296 259.503C293.141 259.503 292.993 259.449 292.884 259.352C292.775 259.255 292.714 259.123 292.714 258.986C292.714 258.849 292.775 258.717 292.884 258.62C292.993 258.523 293.141 258.468 293.296 258.468Z" fill="#C7C7C7"/>
<path d="M316.025 244.66C316.179 244.66 316.327 244.714 316.436 244.811C316.546 244.908 316.607 245.04 316.607 245.177C316.607 245.315 316.546 245.446 316.436 245.543C316.327 245.64 316.179 245.695 316.025 245.695C315.871 245.695 315.723 245.64 315.614 245.543C315.505 245.446 315.443 245.315 315.443 245.177C315.443 245.04 315.505 244.908 315.614 244.811C315.723 244.714 315.871 244.66 316.025 244.66Z" fill="#C7C7C7"/>
<path d="M244.087 268.5L246.1 268.832L246.551 270.716L247.002 268.832L249.015 268.495L247.009 268.064L246.551 266.279L246.094 268.064L244.087 268.5Z" fill="#C7C7C7"/>
<path d="M326.934 101.331C327.078 101.345 327.212 101.405 327.309 101.501C327.406 101.598 327.46 101.722 327.46 101.852C327.46 101.981 327.406 102.106 327.309 102.202C327.212 102.298 327.078 102.358 326.934 102.372C326.789 102.358 326.655 102.298 326.558 102.202C326.461 102.106 326.407 101.981 326.407 101.852C326.407 101.722 326.461 101.598 326.558 101.501C326.655 101.405 326.789 101.345 326.934 101.331Z" fill="#C7C7C7"/>
<path d="M340.971 246.291C341.072 246.302 341.165 246.346 341.232 246.414C341.3 246.482 341.337 246.569 341.337 246.66C341.337 246.75 341.3 246.838 341.232 246.906C341.165 246.974 341.072 247.018 340.971 247.029C340.87 247.018 340.777 246.974 340.709 246.906C340.642 246.838 340.604 246.75 340.604 246.66C340.604 246.569 340.642 246.482 340.709 246.414C340.777 246.346 340.87 246.302 340.971 246.291Z" fill="#C7C7C7"/>
<path d="M165.36 183.862L167.374 184.193L167.825 186.083L168.269 184.193L170.282 183.862L168.282 183.426L167.825 181.646L167.367 183.426L165.36 183.862Z" fill="#C7C7C7"/>
<path d="M142.099 212.432C142.254 212.432 142.402 212.487 142.511 212.584C142.62 212.681 142.681 212.812 142.681 212.95C142.681 213.087 142.62 213.219 142.511 213.316C142.402 213.413 142.254 213.467 142.099 213.467C141.945 213.467 141.797 213.413 141.688 213.316C141.579 213.219 141.518 213.087 141.518 212.95C141.518 212.812 141.579 212.681 141.688 212.584C141.797 212.487 141.945 212.432 142.099 212.432Z" fill="#C7C7C7"/>
<path d="M222.576 174.206C222.73 174.206 222.878 174.261 222.987 174.358C223.096 174.455 223.158 174.586 223.158 174.724C223.158 174.861 223.096 174.993 222.987 175.09C222.878 175.187 222.73 175.241 222.576 175.241C222.422 175.241 222.274 175.187 222.165 175.09C222.055 174.993 221.994 174.861 221.994 174.724C221.994 174.586 222.055 174.455 222.165 174.358C222.274 174.261 222.422 174.206 222.576 174.206Z" fill="#C7C7C7"/>
<path d="M154.212 121.763C154.321 121.763 154.426 121.801 154.503 121.87C154.58 121.939 154.623 122.032 154.623 122.129C154.623 122.226 154.58 122.319 154.503 122.388C154.426 122.457 154.321 122.495 154.212 122.495C154.102 122.495 153.998 122.457 153.92 122.388C153.843 122.319 153.8 122.226 153.8 122.129C153.8 122.032 153.843 121.939 153.92 121.87C153.998 121.801 154.102 121.763 154.212 121.763Z" fill="#C7C7C7"/>
<path d="M148.936 118.401C149.219 118.42 149.483 118.533 149.675 118.718C149.868 118.903 149.975 119.146 149.975 119.398C149.975 119.65 149.868 119.893 149.675 120.078C149.483 120.263 149.219 120.376 148.936 120.396C148.654 120.376 148.39 120.263 148.197 120.078C148.004 119.893 147.897 119.65 147.897 119.398C147.897 119.146 148.004 118.903 148.197 118.718C148.39 118.533 148.654 118.42 148.936 118.401Z" fill="#C7C7C7"/>
<path d="M339.398 164.676C339.694 164.676 339.979 164.781 340.188 164.968C340.398 165.154 340.516 165.407 340.516 165.671C340.516 165.934 340.398 166.187 340.188 166.374C339.979 166.56 339.694 166.665 339.398 166.665C339.102 166.665 338.817 166.56 338.608 166.374C338.398 166.187 338.28 165.934 338.28 165.671C338.28 165.407 338.398 165.154 338.608 164.968C338.817 164.781 339.102 164.676 339.398 164.676Z" fill="#C7C7C7"/>
</svg>
