<svg width="53" height="55" viewBox="0 0 53 55" fill="none" xmlns="http://www.w3.org/2000/svg">
<path d="M28.2056 6.26591C29.4076 6.26591 30.322 5.35141 30.322 4.14952C30.322 2.97376 29.4076 2.05927 28.2056 2.05927H9.07985L13.2342 6.26591H28.2056ZM35.5477 13.7386C36.7234 13.7386 37.664 12.798 37.664 11.596C37.664 10.4203 36.7234 9.53192 35.5477 9.53192H16.3696L20.524 13.7386H35.5477ZM42.7328 21.1851C43.9087 21.1851 44.8233 20.2445 44.8233 19.0426C44.8233 17.8668 43.9087 16.9785 42.7328 16.9785H23.6595L27.8136 21.1851H42.7328ZM49.9967 24.4251H30.9491C32.5168 26.0188 33.2222 26.9856 33.3268 28.6317H49.9967C51.1723 28.6317 52.113 27.7171 52.113 26.5153C52.113 25.3394 51.1723 24.4251 49.9967 24.4251ZM25.828 50.2397L16.448 28.3182L15.1938 30.4606L28.2056 31.1921C29.9563 31.2967 30.7924 29.4154 29.5382 28.1351L3.67132 1.69347C2.52168 0.517705 0.744961 1.17091 0.744961 2.81699L0.300781 39.6056C0.300781 41.4082 2.31265 42.14 3.46229 40.8073L11.8756 31.5056L9.44564 30.8787L18.5121 53.2967C18.8779 54.1849 19.7924 54.603 20.6024 54.2373L25.0964 52.3821C25.9325 52.0686 26.2199 51.1018 25.828 50.2397Z" fill="white"/>
</svg>
