<svg width="57" height="57" viewBox="0 0 57 57" fill="none" xmlns="http://www.w3.org/2000/svg">
<path d="M34.7223 6.32219C35.1731 6.44831 35.5946 6.66204 35.9627 6.95117C36.3309 7.24029 36.6384 7.59913 36.8678 8.00718C37.0972 8.41523 37.2439 8.86448 37.2996 9.32927C37.3553 9.79405 37.3188 10.2653 37.1923 10.7159L26.6686 48.2101C26.4135 49.1199 25.8074 49.8912 24.9837 50.3542C24.1599 50.8172 23.186 50.934 22.2761 50.6789C21.3662 50.4238 20.5949 49.8177 20.1319 48.9939C19.669 48.1701 19.5522 47.1962 19.8073 46.2863L30.3309 8.78744C30.4573 8.33685 30.6712 7.91559 30.9604 7.5477C31.2496 7.17981 31.6085 6.87251 32.0165 6.64336C32.4246 6.4142 32.8737 6.26768 33.3384 6.21217C33.8031 6.15665 34.2741 6.19323 34.7246 6.31981L34.7223 6.32219ZM17.9548 15.9053C18.6219 16.5733 18.9966 17.4787 18.9966 18.4228C18.9966 19.3669 18.6219 20.2723 17.9548 20.9403L10.4023 28.4999L17.9595 36.0572C18.6275 36.7255 19.0027 37.6318 19.0024 38.5767C19.0022 39.5216 18.6266 40.4277 17.9583 41.0957C17.29 41.7637 16.3837 42.1389 15.4388 42.1387C14.4939 42.1384 13.5878 41.7629 12.9198 41.0946L2.84265 31.0174C2.17551 30.3495 1.80078 29.444 1.80078 28.4999C1.80078 27.5559 2.17551 26.6504 2.84265 25.9824L12.9174 15.9053C13.2482 15.5743 13.6411 15.3116 14.0734 15.1325C14.5058 14.9533 14.9692 14.8611 15.4373 14.8611C15.9053 14.8611 16.3687 14.9533 16.8011 15.1325C17.2335 15.3116 17.6239 15.5743 17.9548 15.9053ZM39.0448 20.9403C38.6948 20.6142 38.414 20.2209 38.2193 19.7839C38.0246 19.3469 37.9199 18.8751 37.9115 18.3968C37.903 17.9185 37.991 17.4433 38.1702 16.9997C38.3494 16.5561 38.6161 16.1532 38.9543 15.8149C39.2926 15.4766 39.6956 15.2099 40.1392 15.0307C40.5828 14.8516 41.0579 14.7636 41.5363 14.772C42.0146 14.7804 42.4863 14.8851 42.9233 15.0799C43.3603 15.2746 43.7536 15.5553 44.0798 15.9053L54.1569 25.9801C54.8248 26.6481 55.1999 27.5541 55.1999 28.4987C55.1999 29.4434 54.8248 30.3494 54.1569 31.0174L44.0821 41.0946C43.7514 41.4255 43.3587 41.688 42.9265 41.8671C42.4943 42.0463 42.031 42.1386 41.5631 42.1387C41.0952 42.1388 40.6319 42.0467 40.1996 41.8678C39.7673 41.6888 39.3745 41.4265 39.0436 41.0957C38.7127 40.765 38.4501 40.3723 38.271 39.9401C38.0918 39.5079 37.9996 39.0446 37.9995 38.5767C37.9994 38.1088 38.0914 37.6455 38.2704 37.2132C38.4493 36.7809 38.7116 36.3881 39.0424 36.0572L46.5996 28.4999L39.0448 20.9403Z" fill="white"/>
</svg>
