<svg width="55" height="55" viewBox="0 0 55 55" fill="none" xmlns="http://www.w3.org/2000/svg">
<path d="M45.7466 38.4661C46.9357 38.4661 48.0761 37.9917 48.917 37.1473C49.7578 36.3029 50.2302 35.1576 50.2302 33.9634V9.19861C50.2302 8.00442 49.7578 6.85915 48.917 6.01473C48.0761 5.17031 46.9357 4.69592 45.7466 4.69592H22.1181C22.9027 6.06924 23.3287 7.62267 23.3287 9.19861H45.7466V33.9634H25.5705V38.4661M34.5376 15.9526V20.4553H21.0869V49.7228H16.6033V36.2147H12.1197V49.7228H7.63613V31.7121H4.27344V20.4553C4.27344 19.2611 4.74581 18.1159 5.58665 17.2714C6.42748 16.427 7.5679 15.9526 8.75702 15.9526H34.5376ZM18.8451 9.19861C18.8451 10.3928 18.3727 11.5381 17.5319 12.3825C16.691 13.2269 15.5506 13.7013 14.3615 13.7013C13.1724 13.7013 12.032 13.2269 11.1911 12.3825C10.3503 11.5381 9.87792 10.3928 9.87792 9.19861C9.87792 8.00442 10.3503 6.85915 11.1911 6.01473C12.032 5.17031 13.1724 4.69592 14.3615 4.69592C15.5506 4.69592 16.691 5.17031 17.5319 6.01473C18.3727 6.85915 18.8451 8.00442 18.8451 9.19861Z" fill="white"/>
</svg>
