<svg width="63" height="63" viewBox="0 0 63 63" fill="none" xmlns="http://www.w3.org/2000/svg">
<path d="M7.875 28.875C4.9875 28.875 2.625 31.2375 2.625 34.125V52.5C2.625 55.3875 4.9875 57.75 7.875 57.75C10.7625 57.75 13.125 55.3875 13.125 52.5V34.125C13.125 31.2375 10.7625 28.875 7.875 28.875ZM26.25 13.9125C26.25 9.05625 30.0562 5.25 34.9125 5.25C37.6425 5.25 40.2938 6.53625 42 8.53125C43.7062 6.53625 46.3575 5.25 49.0875 5.25C53.9438 5.25 57.75 9.05625 57.75 13.9125C57.75 19.425 51.1875 25.7513 43.7588 32.5238C43.2748 32.9665 42.6427 33.212 41.9869 33.212C41.331 33.212 40.6989 32.9665 40.215 32.5238C32.8125 25.7513 26.25 19.425 26.25 13.9125ZM52.4738 44.625H34.545C34.2492 44.6237 33.956 44.5704 33.6787 44.4675L29.82 43.1288C29.659 43.0729 29.5107 42.9856 29.3837 42.8719C29.2568 42.7582 29.1536 42.6205 29.0804 42.4666C29.0071 42.3127 28.9651 42.1458 28.9569 41.9756C28.9487 41.8054 28.9744 41.6352 29.0325 41.475C29.2688 40.7925 30.03 40.425 30.7125 40.6875L33.6525 41.8163C33.9412 41.9213 34.2825 42 34.5975 42H41.5013C43.2075 42 44.5988 40.6088 44.5988 38.9025C44.5988 37.6163 43.785 36.4613 42.5775 35.9888L24.4125 29.2163C23.835 28.98 23.205 28.875 22.575 28.875H18.375V52.5525L35.0962 57.3038C36.1725 57.6188 37.3275 57.5663 38.3775 57.1725L57.75 49.875C57.75 46.9613 55.3875 44.625 52.4738 44.625Z" fill="white"/>
</svg>
